%TF.GenerationSoftware,KiCad,Pcbnew,10.0.5*%
%TF.CreationDate,2026-09-20T15:13:48-05:00*%
%TF.ProjectId,VehicleControlUnit,56656869-636c-4654-936f-6e74726f6c55,rev?*%
%TF.SameCoordinates,Original*%
%TF.FileFunction,Soldermask,Top*%
%TF.FilePolarity,Negative*%
%FSLAX46Y46*%
G04 Gerber Fmt 4.6, Leading zero omitted, Abs format (unit mm)*
G04 Created by KiCad (PCBNEW 10.0.5) date 2026-09-20 15:13:48*
%MOMM*%
%LPD*%
G01*
G04 APERTURE LIST*
G04 Aperture macros list*
%AMRoundRect*
0 Rectangle with rounded corners*
0 $1 Rounding radius*
0 $2 $3 $4 $5 $6 $7 $8 $9 X,Y pos of 4 corners*
0 Add a 4 corners polygon primitive as box body*
4,1,4,$2,$3,$4,$5,$6,$7,$8,$9,$2,$3,0*
0 Add four circle primitives for the rounded corners*
1,1,$1+$1,$2,$3*
1,1,$1+$1,$4,$5*
1,1,$1+$1,$6,$7*
1,1,$1+$1,$8,$9*
0 Add four rect primitives between the rounded corners*
20,1,$1+$1,$2,$3,$4,$5,0*
20,1,$1+$1,$4,$5,$6,$7,0*
20,1,$1+$1,$6,$7,$8,$9,0*
20,1,$1+$1,$8,$9,$2,$3,0*%
%AMFreePoly0*
4,1,22,0.945671,0.830970,1.026777,0.776777,1.080970,0.695671,1.100000,0.600000,1.100000,-0.600000,1.080970,-0.695671,1.026777,-0.776777,0.945671,-0.830970,0.850000,-0.850000,-0.850000,-0.850000,-0.945671,-0.830970,-1.026777,-0.776777,-1.080970,-0.695671,-1.100000,-0.600000,-1.100000,0.200000,-1.080970,0.295671,-1.026777,0.376777,-0.626777,0.776777,-0.545671,0.830970,-0.450000,0.850000,
0.850000,0.850000,0.945671,0.830970,0.945671,0.830970,$1*%
%AMFreePoly1*
4,1,9,2.975000,-2.350000,1.425000,-2.350000,1.425000,-2.100000,-1.650000,-2.100000,-1.650000,2.100000,1.425000,2.100000,1.425000,2.350000,2.975000,2.350000,2.975000,-2.350000,2.975000,-2.350000,$1*%
%AMFreePoly2*
4,1,23,0.500000,-0.750000,0.000000,-0.750000,0.000000,-0.745722,-0.065263,-0.745722,-0.191342,-0.711940,-0.304381,-0.646677,-0.396677,-0.554381,-0.461940,-0.441342,-0.495722,-0.315263,-0.495722,-0.250000,-0.500000,-0.250000,-0.500000,0.250000,-0.495722,0.250000,-0.495722,0.315263,-0.461940,0.441342,-0.396677,0.554381,-0.304381,0.646677,-0.191342,0.711940,-0.065263,0.745722,0.000000,0.745722,
0.000000,0.750000,0.500000,0.750000,0.500000,-0.750000,0.500000,-0.750000,$1*%
%AMFreePoly3*
4,1,23,0.000000,0.745722,0.065263,0.745722,0.191342,0.711940,0.304381,0.646677,0.396677,0.554381,0.461940,0.441342,0.495722,0.315263,0.495722,0.250000,0.500000,0.250000,0.500000,-0.250000,0.495722,-0.250000,0.495722,-0.315263,0.461940,-0.441342,0.396677,-0.554381,0.304381,-0.646677,0.191342,-0.711940,0.065263,-0.745722,0.000000,-0.745722,0.000000,-0.750000,-0.500000,-0.750000,
-0.500000,0.750000,0.000000,0.750000,0.000000,0.745722,0.000000,0.745722,$1*%
%AMFreePoly4*
4,1,22,0.945671,0.830970,1.026777,0.776777,1.080970,0.695671,1.100000,0.600000,1.100000,-0.600000,1.080970,-0.695671,1.026777,-0.776777,0.945671,-0.830970,0.850000,-0.850000,-0.850000,-0.850000,-0.945671,-0.830970,-1.026777,-0.776777,-1.080970,-0.695671,-1.100000,-0.600000,-1.100000,0.346447,-1.080970,0.442118,-1.026777,0.523224,-0.773224,0.776777,-0.692118,0.830970,-0.596447,0.850000,
0.850000,0.850000,0.945671,0.830970,0.945671,0.830970,$1*%
G04 Aperture macros list end*
%ADD10C,0.200000*%
%ADD11C,0.300000*%
%ADD12C,0.010000*%
%ADD13C,0.000000*%
%ADD14R,1.150000X0.600000*%
%ADD15R,1.950000X0.650000*%
%ADD16RoundRect,0.102000X-0.669000X-0.669000X0.669000X-0.669000X0.669000X0.669000X-0.669000X0.669000X0*%
%ADD17C,1.542000*%
%ADD18RoundRect,0.218750X-0.218750X-0.256250X0.218750X-0.256250X0.218750X0.256250X-0.218750X0.256250X0*%
%ADD19R,1.700000X1.700000*%
%ADD20C,1.700000*%
%ADD21RoundRect,0.237500X0.237500X-0.300000X0.237500X0.300000X-0.237500X0.300000X-0.237500X-0.300000X0*%
%ADD22C,2.400000*%
%ADD23R,1.200000X0.700000*%
%ADD24R,0.800000X1.000000*%
%ADD25R,1.200000X1.000000*%
%ADD26R,2.800000X1.000000*%
%ADD27R,1.900000X1.300000*%
%ADD28C,3.600000*%
%ADD29C,5.600000*%
%ADD30R,0.330000X0.360000*%
%ADD31RoundRect,0.237500X-0.237500X0.250000X-0.237500X-0.250000X0.237500X-0.250000X0.237500X0.250000X0*%
%ADD32RoundRect,0.200000X0.275000X-0.200000X0.275000X0.200000X-0.275000X0.200000X-0.275000X-0.200000X0*%
%ADD33RoundRect,0.237500X-0.300000X-0.237500X0.300000X-0.237500X0.300000X0.237500X-0.300000X0.237500X0*%
%ADD34RoundRect,0.237500X0.237500X-0.250000X0.237500X0.250000X-0.237500X0.250000X-0.237500X-0.250000X0*%
%ADD35RoundRect,0.218750X0.218750X0.256250X-0.218750X0.256250X-0.218750X-0.256250X0.218750X-0.256250X0*%
%ADD36C,1.300000*%
%ADD37RoundRect,0.250000X0.600000X0.600000X-0.600000X0.600000X-0.600000X-0.600000X0.600000X-0.600000X0*%
%ADD38RoundRect,0.218750X-0.256250X0.218750X-0.256250X-0.218750X0.256250X-0.218750X0.256250X0.218750X0*%
%ADD39RoundRect,0.237500X-0.237500X0.300000X-0.237500X-0.300000X0.237500X-0.300000X0.237500X0.300000X0*%
%ADD40RoundRect,0.250000X-0.600000X-0.600000X0.600000X-0.600000X0.600000X0.600000X-0.600000X0.600000X0*%
%ADD41RoundRect,0.218750X0.256250X-0.218750X0.256250X0.218750X-0.256250X0.218750X-0.256250X-0.218750X0*%
%ADD42R,1.300000X0.600000*%
%ADD43RoundRect,0.237500X0.250000X0.237500X-0.250000X0.237500X-0.250000X-0.237500X0.250000X-0.237500X0*%
%ADD44RoundRect,0.237500X0.300000X0.237500X-0.300000X0.237500X-0.300000X-0.237500X0.300000X-0.237500X0*%
%ADD45FreePoly0,90.000000*%
%ADD46O,1.700000X2.200000*%
%ADD47R,0.400000X0.550000*%
%ADD48R,0.500000X0.700000*%
%ADD49RoundRect,0.250000X0.600000X-0.850000X0.600000X0.850000X-0.600000X0.850000X-0.600000X-0.850000X0*%
%ADD50RoundRect,0.175000X0.400000X-0.175000X0.400000X0.175000X-0.400000X0.175000X-0.400000X-0.175000X0*%
%ADD51FreePoly1,180.000000*%
%ADD52R,0.650000X1.528000*%
%ADD53RoundRect,0.250000X0.850000X0.600000X-0.850000X0.600000X-0.850000X-0.600000X0.850000X-0.600000X0*%
%ADD54O,2.200000X1.700000*%
%ADD55RoundRect,0.200000X-0.275000X0.200000X-0.275000X-0.200000X0.275000X-0.200000X0.275000X0.200000X0*%
%ADD56FreePoly2,270.000000*%
%ADD57FreePoly3,270.000000*%
%ADD58R,9.000000X2.500000*%
%ADD59C,3.000000*%
%ADD60FreePoly4,0.000000*%
%ADD61R,0.600000X1.250000*%
%ADD62R,1.475000X0.450000*%
%ADD63R,1.900000X2.400000*%
%ADD64R,0.750000X1.000000*%
%ADD65FreePoly0,270.000000*%
%ADD66R,0.450000X1.200000*%
%ADD67RoundRect,0.237500X-0.250000X-0.237500X0.250000X-0.237500X0.250000X0.237500X-0.250000X0.237500X0*%
%ADD68RoundRect,0.175000X-0.400000X0.175000X-0.400000X-0.175000X0.400000X-0.175000X0.400000X0.175000X0*%
%ADD69FreePoly1,0.000000*%
%ADD70R,0.350000X0.950000*%
%ADD71R,0.950000X0.350000*%
%ADD72R,2.200000X2.200000*%
%ADD73R,2.500000X1.200000*%
%ADD74C,2.000000*%
%ADD75R,0.304800X1.193800*%
%ADD76R,1.193800X0.304800*%
%ADD77RoundRect,0.375000X0.375000X-0.625000X0.375000X0.625000X-0.375000X0.625000X-0.375000X-0.625000X0*%
%ADD78RoundRect,0.500000X1.400000X-0.500000X1.400000X0.500000X-1.400000X0.500000X-1.400000X-0.500000X0*%
%ADD79C,0.650000*%
%ADD80RoundRect,0.150000X-0.150000X-0.425000X0.150000X-0.425000X0.150000X0.425000X-0.150000X0.425000X0*%
%ADD81RoundRect,0.075000X-0.075000X-0.500000X0.075000X-0.500000X0.075000X0.500000X-0.075000X0.500000X0*%
%ADD82O,1.000000X2.100000*%
%ADD83O,1.000000X1.800000*%
%ADD84RoundRect,0.250000X0.250000X0.250000X-0.250000X0.250000X-0.250000X-0.250000X0.250000X-0.250000X0*%
%ADD85R,0.599999X1.100000*%
%ADD86RoundRect,0.102000X-0.425000X-1.150000X0.425000X-1.150000X0.425000X1.150000X-0.425000X1.150000X0*%
%ADD87RoundRect,0.250000X-0.475000X0.337500X-0.475000X-0.337500X0.475000X-0.337500X0.475000X0.337500X0*%
%ADD88RoundRect,0.250000X0.600000X-0.600000X0.600000X0.600000X-0.600000X0.600000X-0.600000X-0.600000X0*%
%ADD89R,0.990600X2.743200*%
G04 APERTURE END LIST*
D10*
X166102943Y-53737387D02*
X166436276Y-54737387D01*
X166436276Y-54737387D02*
X166769609Y-53737387D01*
X167483895Y-54689768D02*
X167388657Y-54737387D01*
X167388657Y-54737387D02*
X167198181Y-54737387D01*
X167198181Y-54737387D02*
X167102943Y-54689768D01*
X167102943Y-54689768D02*
X167055324Y-54594529D01*
X167055324Y-54594529D02*
X167055324Y-54213577D01*
X167055324Y-54213577D02*
X167102943Y-54118339D01*
X167102943Y-54118339D02*
X167198181Y-54070720D01*
X167198181Y-54070720D02*
X167388657Y-54070720D01*
X167388657Y-54070720D02*
X167483895Y-54118339D01*
X167483895Y-54118339D02*
X167531514Y-54213577D01*
X167531514Y-54213577D02*
X167531514Y-54308815D01*
X167531514Y-54308815D02*
X167055324Y-54404053D01*
X167960086Y-54737387D02*
X167960086Y-53737387D01*
X168388657Y-54737387D02*
X168388657Y-54213577D01*
X168388657Y-54213577D02*
X168341038Y-54118339D01*
X168341038Y-54118339D02*
X168245800Y-54070720D01*
X168245800Y-54070720D02*
X168102943Y-54070720D01*
X168102943Y-54070720D02*
X168007705Y-54118339D01*
X168007705Y-54118339D02*
X167960086Y-54165958D01*
X168864848Y-54737387D02*
X168864848Y-54070720D01*
X168864848Y-53737387D02*
X168817229Y-53785006D01*
X168817229Y-53785006D02*
X168864848Y-53832625D01*
X168864848Y-53832625D02*
X168912467Y-53785006D01*
X168912467Y-53785006D02*
X168864848Y-53737387D01*
X168864848Y-53737387D02*
X168864848Y-53832625D01*
X169769609Y-54689768D02*
X169674371Y-54737387D01*
X169674371Y-54737387D02*
X169483895Y-54737387D01*
X169483895Y-54737387D02*
X169388657Y-54689768D01*
X169388657Y-54689768D02*
X169341038Y-54642148D01*
X169341038Y-54642148D02*
X169293419Y-54546910D01*
X169293419Y-54546910D02*
X169293419Y-54261196D01*
X169293419Y-54261196D02*
X169341038Y-54165958D01*
X169341038Y-54165958D02*
X169388657Y-54118339D01*
X169388657Y-54118339D02*
X169483895Y-54070720D01*
X169483895Y-54070720D02*
X169674371Y-54070720D01*
X169674371Y-54070720D02*
X169769609Y-54118339D01*
X170341038Y-54737387D02*
X170245800Y-54689768D01*
X170245800Y-54689768D02*
X170198181Y-54594529D01*
X170198181Y-54594529D02*
X170198181Y-53737387D01*
X171102943Y-54689768D02*
X171007705Y-54737387D01*
X171007705Y-54737387D02*
X170817229Y-54737387D01*
X170817229Y-54737387D02*
X170721991Y-54689768D01*
X170721991Y-54689768D02*
X170674372Y-54594529D01*
X170674372Y-54594529D02*
X170674372Y-54213577D01*
X170674372Y-54213577D02*
X170721991Y-54118339D01*
X170721991Y-54118339D02*
X170817229Y-54070720D01*
X170817229Y-54070720D02*
X171007705Y-54070720D01*
X171007705Y-54070720D02*
X171102943Y-54118339D01*
X171102943Y-54118339D02*
X171150562Y-54213577D01*
X171150562Y-54213577D02*
X171150562Y-54308815D01*
X171150562Y-54308815D02*
X170674372Y-54404053D01*
X172912467Y-54642148D02*
X172864848Y-54689768D01*
X172864848Y-54689768D02*
X172721991Y-54737387D01*
X172721991Y-54737387D02*
X172626753Y-54737387D01*
X172626753Y-54737387D02*
X172483896Y-54689768D01*
X172483896Y-54689768D02*
X172388658Y-54594529D01*
X172388658Y-54594529D02*
X172341039Y-54499291D01*
X172341039Y-54499291D02*
X172293420Y-54308815D01*
X172293420Y-54308815D02*
X172293420Y-54165958D01*
X172293420Y-54165958D02*
X172341039Y-53975482D01*
X172341039Y-53975482D02*
X172388658Y-53880244D01*
X172388658Y-53880244D02*
X172483896Y-53785006D01*
X172483896Y-53785006D02*
X172626753Y-53737387D01*
X172626753Y-53737387D02*
X172721991Y-53737387D01*
X172721991Y-53737387D02*
X172864848Y-53785006D01*
X172864848Y-53785006D02*
X172912467Y-53832625D01*
X173483896Y-54737387D02*
X173388658Y-54689768D01*
X173388658Y-54689768D02*
X173341039Y-54642148D01*
X173341039Y-54642148D02*
X173293420Y-54546910D01*
X173293420Y-54546910D02*
X173293420Y-54261196D01*
X173293420Y-54261196D02*
X173341039Y-54165958D01*
X173341039Y-54165958D02*
X173388658Y-54118339D01*
X173388658Y-54118339D02*
X173483896Y-54070720D01*
X173483896Y-54070720D02*
X173626753Y-54070720D01*
X173626753Y-54070720D02*
X173721991Y-54118339D01*
X173721991Y-54118339D02*
X173769610Y-54165958D01*
X173769610Y-54165958D02*
X173817229Y-54261196D01*
X173817229Y-54261196D02*
X173817229Y-54546910D01*
X173817229Y-54546910D02*
X173769610Y-54642148D01*
X173769610Y-54642148D02*
X173721991Y-54689768D01*
X173721991Y-54689768D02*
X173626753Y-54737387D01*
X173626753Y-54737387D02*
X173483896Y-54737387D01*
X174245801Y-54070720D02*
X174245801Y-54737387D01*
X174245801Y-54165958D02*
X174293420Y-54118339D01*
X174293420Y-54118339D02*
X174388658Y-54070720D01*
X174388658Y-54070720D02*
X174531515Y-54070720D01*
X174531515Y-54070720D02*
X174626753Y-54118339D01*
X174626753Y-54118339D02*
X174674372Y-54213577D01*
X174674372Y-54213577D02*
X174674372Y-54737387D01*
X175007706Y-54070720D02*
X175388658Y-54070720D01*
X175150563Y-53737387D02*
X175150563Y-54594529D01*
X175150563Y-54594529D02*
X175198182Y-54689768D01*
X175198182Y-54689768D02*
X175293420Y-54737387D01*
X175293420Y-54737387D02*
X175388658Y-54737387D01*
X175721992Y-54737387D02*
X175721992Y-54070720D01*
X175721992Y-54261196D02*
X175769611Y-54165958D01*
X175769611Y-54165958D02*
X175817230Y-54118339D01*
X175817230Y-54118339D02*
X175912468Y-54070720D01*
X175912468Y-54070720D02*
X176007706Y-54070720D01*
X176483897Y-54737387D02*
X176388659Y-54689768D01*
X176388659Y-54689768D02*
X176341040Y-54642148D01*
X176341040Y-54642148D02*
X176293421Y-54546910D01*
X176293421Y-54546910D02*
X176293421Y-54261196D01*
X176293421Y-54261196D02*
X176341040Y-54165958D01*
X176341040Y-54165958D02*
X176388659Y-54118339D01*
X176388659Y-54118339D02*
X176483897Y-54070720D01*
X176483897Y-54070720D02*
X176626754Y-54070720D01*
X176626754Y-54070720D02*
X176721992Y-54118339D01*
X176721992Y-54118339D02*
X176769611Y-54165958D01*
X176769611Y-54165958D02*
X176817230Y-54261196D01*
X176817230Y-54261196D02*
X176817230Y-54546910D01*
X176817230Y-54546910D02*
X176769611Y-54642148D01*
X176769611Y-54642148D02*
X176721992Y-54689768D01*
X176721992Y-54689768D02*
X176626754Y-54737387D01*
X176626754Y-54737387D02*
X176483897Y-54737387D01*
X177388659Y-54737387D02*
X177293421Y-54689768D01*
X177293421Y-54689768D02*
X177245802Y-54594529D01*
X177245802Y-54594529D02*
X177245802Y-53737387D01*
X178531517Y-53737387D02*
X178531517Y-54546910D01*
X178531517Y-54546910D02*
X178579136Y-54642148D01*
X178579136Y-54642148D02*
X178626755Y-54689768D01*
X178626755Y-54689768D02*
X178721993Y-54737387D01*
X178721993Y-54737387D02*
X178912469Y-54737387D01*
X178912469Y-54737387D02*
X179007707Y-54689768D01*
X179007707Y-54689768D02*
X179055326Y-54642148D01*
X179055326Y-54642148D02*
X179102945Y-54546910D01*
X179102945Y-54546910D02*
X179102945Y-53737387D01*
X179579136Y-54070720D02*
X179579136Y-54737387D01*
X179579136Y-54165958D02*
X179626755Y-54118339D01*
X179626755Y-54118339D02*
X179721993Y-54070720D01*
X179721993Y-54070720D02*
X179864850Y-54070720D01*
X179864850Y-54070720D02*
X179960088Y-54118339D01*
X179960088Y-54118339D02*
X180007707Y-54213577D01*
X180007707Y-54213577D02*
X180007707Y-54737387D01*
X180483898Y-54737387D02*
X180483898Y-54070720D01*
X180483898Y-53737387D02*
X180436279Y-53785006D01*
X180436279Y-53785006D02*
X180483898Y-53832625D01*
X180483898Y-53832625D02*
X180531517Y-53785006D01*
X180531517Y-53785006D02*
X180483898Y-53737387D01*
X180483898Y-53737387D02*
X180483898Y-53832625D01*
X180817231Y-54070720D02*
X181198183Y-54070720D01*
X180960088Y-53737387D02*
X180960088Y-54594529D01*
X180960088Y-54594529D02*
X181007707Y-54689768D01*
X181007707Y-54689768D02*
X181102945Y-54737387D01*
X181102945Y-54737387D02*
X181198183Y-54737387D01*
X169864849Y-56299712D02*
X170007706Y-56347331D01*
X170007706Y-56347331D02*
X170245801Y-56347331D01*
X170245801Y-56347331D02*
X170341039Y-56299712D01*
X170341039Y-56299712D02*
X170388658Y-56252092D01*
X170388658Y-56252092D02*
X170436277Y-56156854D01*
X170436277Y-56156854D02*
X170436277Y-56061616D01*
X170436277Y-56061616D02*
X170388658Y-55966378D01*
X170388658Y-55966378D02*
X170341039Y-55918759D01*
X170341039Y-55918759D02*
X170245801Y-55871140D01*
X170245801Y-55871140D02*
X170055325Y-55823521D01*
X170055325Y-55823521D02*
X169960087Y-55775902D01*
X169960087Y-55775902D02*
X169912468Y-55728283D01*
X169912468Y-55728283D02*
X169864849Y-55633045D01*
X169864849Y-55633045D02*
X169864849Y-55537807D01*
X169864849Y-55537807D02*
X169912468Y-55442569D01*
X169912468Y-55442569D02*
X169960087Y-55394950D01*
X169960087Y-55394950D02*
X170055325Y-55347331D01*
X170055325Y-55347331D02*
X170293420Y-55347331D01*
X170293420Y-55347331D02*
X170436277Y-55394950D01*
X171293420Y-56347331D02*
X171293420Y-55823521D01*
X171293420Y-55823521D02*
X171245801Y-55728283D01*
X171245801Y-55728283D02*
X171150563Y-55680664D01*
X171150563Y-55680664D02*
X170960087Y-55680664D01*
X170960087Y-55680664D02*
X170864849Y-55728283D01*
X171293420Y-56299712D02*
X171198182Y-56347331D01*
X171198182Y-56347331D02*
X170960087Y-56347331D01*
X170960087Y-56347331D02*
X170864849Y-56299712D01*
X170864849Y-56299712D02*
X170817230Y-56204473D01*
X170817230Y-56204473D02*
X170817230Y-56109235D01*
X170817230Y-56109235D02*
X170864849Y-56013997D01*
X170864849Y-56013997D02*
X170960087Y-55966378D01*
X170960087Y-55966378D02*
X171198182Y-55966378D01*
X171198182Y-55966378D02*
X171293420Y-55918759D01*
X171626754Y-55680664D02*
X172007706Y-55680664D01*
X171769611Y-55347331D02*
X171769611Y-56204473D01*
X171769611Y-56204473D02*
X171817230Y-56299712D01*
X171817230Y-56299712D02*
X171912468Y-56347331D01*
X171912468Y-56347331D02*
X172007706Y-56347331D01*
X172341040Y-56347331D02*
X172341040Y-55347331D01*
X172769611Y-56347331D02*
X172769611Y-55823521D01*
X172769611Y-55823521D02*
X172721992Y-55728283D01*
X172721992Y-55728283D02*
X172626754Y-55680664D01*
X172626754Y-55680664D02*
X172483897Y-55680664D01*
X172483897Y-55680664D02*
X172388659Y-55728283D01*
X172388659Y-55728283D02*
X172341040Y-55775902D01*
X173150564Y-55680664D02*
X173388659Y-56347331D01*
X173388659Y-56347331D02*
X173626754Y-55680664D01*
X174007707Y-56347331D02*
X174007707Y-55680664D01*
X174007707Y-55347331D02*
X173960088Y-55394950D01*
X173960088Y-55394950D02*
X174007707Y-55442569D01*
X174007707Y-55442569D02*
X174055326Y-55394950D01*
X174055326Y-55394950D02*
X174007707Y-55347331D01*
X174007707Y-55347331D02*
X174007707Y-55442569D01*
X174483897Y-56347331D02*
X174483897Y-55347331D01*
X174579135Y-55966378D02*
X174864849Y-56347331D01*
X174864849Y-55680664D02*
X174483897Y-56061616D01*
X176245802Y-55871140D02*
X176245802Y-56347331D01*
X175912469Y-55347331D02*
X176245802Y-55871140D01*
X176245802Y-55871140D02*
X176579135Y-55347331D01*
X177293421Y-56299712D02*
X177198183Y-56347331D01*
X177198183Y-56347331D02*
X177007707Y-56347331D01*
X177007707Y-56347331D02*
X176912469Y-56299712D01*
X176912469Y-56299712D02*
X176864850Y-56204473D01*
X176864850Y-56204473D02*
X176864850Y-55823521D01*
X176864850Y-55823521D02*
X176912469Y-55728283D01*
X176912469Y-55728283D02*
X177007707Y-55680664D01*
X177007707Y-55680664D02*
X177198183Y-55680664D01*
X177198183Y-55680664D02*
X177293421Y-55728283D01*
X177293421Y-55728283D02*
X177341040Y-55823521D01*
X177341040Y-55823521D02*
X177341040Y-55918759D01*
X177341040Y-55918759D02*
X176864850Y-56013997D01*
X178198183Y-56299712D02*
X178102945Y-56347331D01*
X178102945Y-56347331D02*
X177912469Y-56347331D01*
X177912469Y-56347331D02*
X177817231Y-56299712D01*
X177817231Y-56299712D02*
X177769612Y-56252092D01*
X177769612Y-56252092D02*
X177721993Y-56156854D01*
X177721993Y-56156854D02*
X177721993Y-55871140D01*
X177721993Y-55871140D02*
X177769612Y-55775902D01*
X177769612Y-55775902D02*
X177817231Y-55728283D01*
X177817231Y-55728283D02*
X177912469Y-55680664D01*
X177912469Y-55680664D02*
X178102945Y-55680664D01*
X178102945Y-55680664D02*
X178198183Y-55728283D01*
X178626755Y-56347331D02*
X178626755Y-55347331D01*
X179055326Y-56347331D02*
X179055326Y-55823521D01*
X179055326Y-55823521D02*
X179007707Y-55728283D01*
X179007707Y-55728283D02*
X178912469Y-55680664D01*
X178912469Y-55680664D02*
X178769612Y-55680664D01*
X178769612Y-55680664D02*
X178674374Y-55728283D01*
X178674374Y-55728283D02*
X178626755Y-55775902D01*
X179960088Y-55680664D02*
X179960088Y-56347331D01*
X179531517Y-55680664D02*
X179531517Y-56204473D01*
X179531517Y-56204473D02*
X179579136Y-56299712D01*
X179579136Y-56299712D02*
X179674374Y-56347331D01*
X179674374Y-56347331D02*
X179817231Y-56347331D01*
X179817231Y-56347331D02*
X179912469Y-56299712D01*
X179912469Y-56299712D02*
X179960088Y-56252092D01*
X180436279Y-56347331D02*
X180436279Y-55680664D01*
X180436279Y-55871140D02*
X180483898Y-55775902D01*
X180483898Y-55775902D02*
X180531517Y-55728283D01*
X180531517Y-55728283D02*
X180626755Y-55680664D01*
X180626755Y-55680664D02*
X180721993Y-55680664D01*
X181055327Y-56347331D02*
X181055327Y-55680664D01*
X181055327Y-55347331D02*
X181007708Y-55394950D01*
X181007708Y-55394950D02*
X181055327Y-55442569D01*
X181055327Y-55442569D02*
X181102946Y-55394950D01*
X181102946Y-55394950D02*
X181055327Y-55347331D01*
X181055327Y-55347331D02*
X181055327Y-55442569D01*
X172007707Y-56957275D02*
X172102945Y-56957275D01*
X172102945Y-56957275D02*
X172198183Y-57004894D01*
X172198183Y-57004894D02*
X172245802Y-57052513D01*
X172245802Y-57052513D02*
X172293421Y-57147751D01*
X172293421Y-57147751D02*
X172341040Y-57338227D01*
X172341040Y-57338227D02*
X172341040Y-57576322D01*
X172341040Y-57576322D02*
X172293421Y-57766798D01*
X172293421Y-57766798D02*
X172245802Y-57862036D01*
X172245802Y-57862036D02*
X172198183Y-57909656D01*
X172198183Y-57909656D02*
X172102945Y-57957275D01*
X172102945Y-57957275D02*
X172007707Y-57957275D01*
X172007707Y-57957275D02*
X171912469Y-57909656D01*
X171912469Y-57909656D02*
X171864850Y-57862036D01*
X171864850Y-57862036D02*
X171817231Y-57766798D01*
X171817231Y-57766798D02*
X171769612Y-57576322D01*
X171769612Y-57576322D02*
X171769612Y-57338227D01*
X171769612Y-57338227D02*
X171817231Y-57147751D01*
X171817231Y-57147751D02*
X171864850Y-57052513D01*
X171864850Y-57052513D02*
X171912469Y-57004894D01*
X171912469Y-57004894D02*
X172007707Y-56957275D01*
X172817231Y-57957275D02*
X173007707Y-57957275D01*
X173007707Y-57957275D02*
X173102945Y-57909656D01*
X173102945Y-57909656D02*
X173150564Y-57862036D01*
X173150564Y-57862036D02*
X173245802Y-57719179D01*
X173245802Y-57719179D02*
X173293421Y-57528703D01*
X173293421Y-57528703D02*
X173293421Y-57147751D01*
X173293421Y-57147751D02*
X173245802Y-57052513D01*
X173245802Y-57052513D02*
X173198183Y-57004894D01*
X173198183Y-57004894D02*
X173102945Y-56957275D01*
X173102945Y-56957275D02*
X172912469Y-56957275D01*
X172912469Y-56957275D02*
X172817231Y-57004894D01*
X172817231Y-57004894D02*
X172769612Y-57052513D01*
X172769612Y-57052513D02*
X172721993Y-57147751D01*
X172721993Y-57147751D02*
X172721993Y-57385846D01*
X172721993Y-57385846D02*
X172769612Y-57481084D01*
X172769612Y-57481084D02*
X172817231Y-57528703D01*
X172817231Y-57528703D02*
X172912469Y-57576322D01*
X172912469Y-57576322D02*
X173102945Y-57576322D01*
X173102945Y-57576322D02*
X173198183Y-57528703D01*
X173198183Y-57528703D02*
X173245802Y-57481084D01*
X173245802Y-57481084D02*
X173293421Y-57385846D01*
X174436278Y-56909656D02*
X173579136Y-58195370D01*
X174721993Y-57052513D02*
X174769612Y-57004894D01*
X174769612Y-57004894D02*
X174864850Y-56957275D01*
X174864850Y-56957275D02*
X175102945Y-56957275D01*
X175102945Y-56957275D02*
X175198183Y-57004894D01*
X175198183Y-57004894D02*
X175245802Y-57052513D01*
X175245802Y-57052513D02*
X175293421Y-57147751D01*
X175293421Y-57147751D02*
X175293421Y-57242989D01*
X175293421Y-57242989D02*
X175245802Y-57385846D01*
X175245802Y-57385846D02*
X174674374Y-57957275D01*
X174674374Y-57957275D02*
X175293421Y-57957275D01*
X175912469Y-56957275D02*
X176007707Y-56957275D01*
X176007707Y-56957275D02*
X176102945Y-57004894D01*
X176102945Y-57004894D02*
X176150564Y-57052513D01*
X176150564Y-57052513D02*
X176198183Y-57147751D01*
X176198183Y-57147751D02*
X176245802Y-57338227D01*
X176245802Y-57338227D02*
X176245802Y-57576322D01*
X176245802Y-57576322D02*
X176198183Y-57766798D01*
X176198183Y-57766798D02*
X176150564Y-57862036D01*
X176150564Y-57862036D02*
X176102945Y-57909656D01*
X176102945Y-57909656D02*
X176007707Y-57957275D01*
X176007707Y-57957275D02*
X175912469Y-57957275D01*
X175912469Y-57957275D02*
X175817231Y-57909656D01*
X175817231Y-57909656D02*
X175769612Y-57862036D01*
X175769612Y-57862036D02*
X175721993Y-57766798D01*
X175721993Y-57766798D02*
X175674374Y-57576322D01*
X175674374Y-57576322D02*
X175674374Y-57338227D01*
X175674374Y-57338227D02*
X175721993Y-57147751D01*
X175721993Y-57147751D02*
X175769612Y-57052513D01*
X175769612Y-57052513D02*
X175817231Y-57004894D01*
X175817231Y-57004894D02*
X175912469Y-56957275D01*
X177388659Y-56909656D02*
X176531517Y-58195370D01*
X177674374Y-57052513D02*
X177721993Y-57004894D01*
X177721993Y-57004894D02*
X177817231Y-56957275D01*
X177817231Y-56957275D02*
X178055326Y-56957275D01*
X178055326Y-56957275D02*
X178150564Y-57004894D01*
X178150564Y-57004894D02*
X178198183Y-57052513D01*
X178198183Y-57052513D02*
X178245802Y-57147751D01*
X178245802Y-57147751D02*
X178245802Y-57242989D01*
X178245802Y-57242989D02*
X178198183Y-57385846D01*
X178198183Y-57385846D02*
X177626755Y-57957275D01*
X177626755Y-57957275D02*
X178245802Y-57957275D01*
X178864850Y-56957275D02*
X178960088Y-56957275D01*
X178960088Y-56957275D02*
X179055326Y-57004894D01*
X179055326Y-57004894D02*
X179102945Y-57052513D01*
X179102945Y-57052513D02*
X179150564Y-57147751D01*
X179150564Y-57147751D02*
X179198183Y-57338227D01*
X179198183Y-57338227D02*
X179198183Y-57576322D01*
X179198183Y-57576322D02*
X179150564Y-57766798D01*
X179150564Y-57766798D02*
X179102945Y-57862036D01*
X179102945Y-57862036D02*
X179055326Y-57909656D01*
X179055326Y-57909656D02*
X178960088Y-57957275D01*
X178960088Y-57957275D02*
X178864850Y-57957275D01*
X178864850Y-57957275D02*
X178769612Y-57909656D01*
X178769612Y-57909656D02*
X178721993Y-57862036D01*
X178721993Y-57862036D02*
X178674374Y-57766798D01*
X178674374Y-57766798D02*
X178626755Y-57576322D01*
X178626755Y-57576322D02*
X178626755Y-57338227D01*
X178626755Y-57338227D02*
X178674374Y-57147751D01*
X178674374Y-57147751D02*
X178721993Y-57052513D01*
X178721993Y-57052513D02*
X178769612Y-57004894D01*
X178769612Y-57004894D02*
X178864850Y-56957275D01*
X179579136Y-57052513D02*
X179626755Y-57004894D01*
X179626755Y-57004894D02*
X179721993Y-56957275D01*
X179721993Y-56957275D02*
X179960088Y-56957275D01*
X179960088Y-56957275D02*
X180055326Y-57004894D01*
X180055326Y-57004894D02*
X180102945Y-57052513D01*
X180102945Y-57052513D02*
X180150564Y-57147751D01*
X180150564Y-57147751D02*
X180150564Y-57242989D01*
X180150564Y-57242989D02*
X180102945Y-57385846D01*
X180102945Y-57385846D02*
X179531517Y-57957275D01*
X179531517Y-57957275D02*
X180150564Y-57957275D01*
X181007707Y-56957275D02*
X180817231Y-56957275D01*
X180817231Y-56957275D02*
X180721993Y-57004894D01*
X180721993Y-57004894D02*
X180674374Y-57052513D01*
X180674374Y-57052513D02*
X180579136Y-57195370D01*
X180579136Y-57195370D02*
X180531517Y-57385846D01*
X180531517Y-57385846D02*
X180531517Y-57766798D01*
X180531517Y-57766798D02*
X180579136Y-57862036D01*
X180579136Y-57862036D02*
X180626755Y-57909656D01*
X180626755Y-57909656D02*
X180721993Y-57957275D01*
X180721993Y-57957275D02*
X180912469Y-57957275D01*
X180912469Y-57957275D02*
X181007707Y-57909656D01*
X181007707Y-57909656D02*
X181055326Y-57862036D01*
X181055326Y-57862036D02*
X181102945Y-57766798D01*
X181102945Y-57766798D02*
X181102945Y-57528703D01*
X181102945Y-57528703D02*
X181055326Y-57433465D01*
X181055326Y-57433465D02*
X181007707Y-57385846D01*
X181007707Y-57385846D02*
X180912469Y-57338227D01*
X180912469Y-57338227D02*
X180721993Y-57338227D01*
X180721993Y-57338227D02*
X180626755Y-57385846D01*
X180626755Y-57385846D02*
X180579136Y-57433465D01*
X180579136Y-57433465D02*
X180531517Y-57528703D01*
X177864849Y-59567219D02*
X177531516Y-59091028D01*
X177293421Y-59567219D02*
X177293421Y-58567219D01*
X177293421Y-58567219D02*
X177674373Y-58567219D01*
X177674373Y-58567219D02*
X177769611Y-58614838D01*
X177769611Y-58614838D02*
X177817230Y-58662457D01*
X177817230Y-58662457D02*
X177864849Y-58757695D01*
X177864849Y-58757695D02*
X177864849Y-58900552D01*
X177864849Y-58900552D02*
X177817230Y-58995790D01*
X177817230Y-58995790D02*
X177769611Y-59043409D01*
X177769611Y-59043409D02*
X177674373Y-59091028D01*
X177674373Y-59091028D02*
X177293421Y-59091028D01*
X178674373Y-59519600D02*
X178579135Y-59567219D01*
X178579135Y-59567219D02*
X178388659Y-59567219D01*
X178388659Y-59567219D02*
X178293421Y-59519600D01*
X178293421Y-59519600D02*
X178245802Y-59424361D01*
X178245802Y-59424361D02*
X178245802Y-59043409D01*
X178245802Y-59043409D02*
X178293421Y-58948171D01*
X178293421Y-58948171D02*
X178388659Y-58900552D01*
X178388659Y-58900552D02*
X178579135Y-58900552D01*
X178579135Y-58900552D02*
X178674373Y-58948171D01*
X178674373Y-58948171D02*
X178721992Y-59043409D01*
X178721992Y-59043409D02*
X178721992Y-59138647D01*
X178721992Y-59138647D02*
X178245802Y-59233885D01*
X179055326Y-58900552D02*
X179293421Y-59567219D01*
X179293421Y-59567219D02*
X179531516Y-58900552D01*
X180626755Y-59281504D02*
X181102945Y-59281504D01*
X180531517Y-59567219D02*
X180864850Y-58567219D01*
X180864850Y-58567219D02*
X181198183Y-59567219D01*
D11*
X163698558Y-62314638D02*
X163698558Y-60314638D01*
X163698558Y-60314638D02*
X164365225Y-61743209D01*
X164365225Y-61743209D02*
X165031891Y-60314638D01*
X165031891Y-60314638D02*
X165031891Y-62314638D01*
X165984272Y-62314638D02*
X165984272Y-60981304D01*
X165984272Y-60314638D02*
X165889034Y-60409876D01*
X165889034Y-60409876D02*
X165984272Y-60505114D01*
X165984272Y-60505114D02*
X166079510Y-60409876D01*
X166079510Y-60409876D02*
X165984272Y-60314638D01*
X165984272Y-60314638D02*
X165984272Y-60505114D01*
X166936653Y-62314638D02*
X166936653Y-60314638D01*
X167127129Y-61552733D02*
X167698558Y-62314638D01*
X167698558Y-60981304D02*
X166936653Y-61743209D01*
X169412844Y-62314638D02*
X169412844Y-61267019D01*
X169412844Y-61267019D02*
X169317606Y-61076542D01*
X169317606Y-61076542D02*
X169127130Y-60981304D01*
X169127130Y-60981304D02*
X168746177Y-60981304D01*
X168746177Y-60981304D02*
X168555701Y-61076542D01*
X169412844Y-62219400D02*
X169222368Y-62314638D01*
X169222368Y-62314638D02*
X168746177Y-62314638D01*
X168746177Y-62314638D02*
X168555701Y-62219400D01*
X168555701Y-62219400D02*
X168460463Y-62028923D01*
X168460463Y-62028923D02*
X168460463Y-61838447D01*
X168460463Y-61838447D02*
X168555701Y-61647971D01*
X168555701Y-61647971D02*
X168746177Y-61552733D01*
X168746177Y-61552733D02*
X169222368Y-61552733D01*
X169222368Y-61552733D02*
X169412844Y-61457495D01*
D12*
%TO.C,U2*%
X126960000Y-73420000D02*
X126960000Y-74180000D01*
X126540000Y-74180000D01*
X126540000Y-73420000D01*
X126960000Y-73420000D01*
G36*
X126960000Y-74180000D02*
G01*
X126540000Y-74180000D01*
X126540000Y-73420000D01*
X126960000Y-73420000D01*
X126960000Y-74180000D01*
G37*
X126960000Y-74890000D02*
X126960000Y-75650000D01*
X126540000Y-75650000D01*
X126540000Y-74890000D01*
X126960000Y-74890000D01*
G36*
X126960000Y-75650000D02*
G01*
X126540000Y-75650000D01*
X126540000Y-74890000D01*
X126960000Y-74890000D01*
X126960000Y-75650000D01*
G37*
X127460000Y-73420000D02*
X127460000Y-74180000D01*
X127040000Y-74180000D01*
X127040000Y-73420000D01*
X127460000Y-73420000D01*
G36*
X127460000Y-74180000D02*
G01*
X127040000Y-74180000D01*
X127040000Y-73420000D01*
X127460000Y-73420000D01*
X127460000Y-74180000D01*
G37*
X127460000Y-74890000D02*
X127460000Y-75650000D01*
X127040000Y-75650000D01*
X127040000Y-74890000D01*
X127460000Y-74890000D01*
G36*
X127460000Y-75650000D02*
G01*
X127040000Y-75650000D01*
X127040000Y-74890000D01*
X127460000Y-74890000D01*
X127460000Y-75650000D01*
G37*
X127960000Y-73420000D02*
X127960000Y-74180000D01*
X127540000Y-74180000D01*
X127540000Y-73420000D01*
X127960000Y-73420000D01*
G36*
X127960000Y-74180000D02*
G01*
X127540000Y-74180000D01*
X127540000Y-73420000D01*
X127960000Y-73420000D01*
X127960000Y-74180000D01*
G37*
X127960000Y-74890000D02*
X127960000Y-75650000D01*
X127540000Y-75650000D01*
X127540000Y-74890000D01*
X127960000Y-74890000D01*
G36*
X127960000Y-75650000D02*
G01*
X127540000Y-75650000D01*
X127540000Y-74890000D01*
X127960000Y-74890000D01*
X127960000Y-75650000D01*
G37*
X128460000Y-73420000D02*
X128460000Y-74180000D01*
X128040000Y-74180000D01*
X128040000Y-73420000D01*
X128460000Y-73420000D01*
G36*
X128460000Y-74180000D02*
G01*
X128040000Y-74180000D01*
X128040000Y-73420000D01*
X128460000Y-73420000D01*
X128460000Y-74180000D01*
G37*
X128460000Y-74890000D02*
X128460000Y-75650000D01*
X128040000Y-75650000D01*
X128040000Y-74890000D01*
X128460000Y-74890000D01*
G36*
X128460000Y-75650000D02*
G01*
X128040000Y-75650000D01*
X128040000Y-74890000D01*
X128460000Y-74890000D01*
X128460000Y-75650000D01*
G37*
D13*
%TO.C,G\u002A\u002A\u002A*%
G36*
X169050794Y-117346905D02*
G01*
X169075993Y-118480833D01*
X170096528Y-118494476D01*
X171117064Y-118508119D01*
X171117064Y-118759059D01*
X171117064Y-119010000D01*
X169780751Y-119010000D01*
X168444438Y-119010000D01*
X168457834Y-117611488D01*
X168471231Y-116212976D01*
X168748413Y-116212976D01*
X169025596Y-116212976D01*
X169050794Y-117346905D01*
G37*
G36*
X181915873Y-116860198D02*
G01*
X181915873Y-117086984D01*
X181134722Y-117086984D01*
X180353571Y-117086984D01*
X180353571Y-117338968D01*
X180353571Y-117590952D01*
X181134722Y-117590952D01*
X181915873Y-117590952D01*
X181915873Y-118296508D01*
X181915873Y-119002063D01*
X180907936Y-119002063D01*
X179900000Y-119002063D01*
X179900000Y-118775278D01*
X179900000Y-118548492D01*
X180681151Y-118548492D01*
X181462301Y-118548492D01*
X181462301Y-118296508D01*
X181462301Y-118044524D01*
X180681151Y-118044524D01*
X179900000Y-118044524D01*
X179900000Y-117338968D01*
X179900000Y-116633413D01*
X180907936Y-116633413D01*
X181915873Y-116633413D01*
X181915873Y-116860198D01*
G37*
G36*
X174926828Y-116196870D02*
G01*
X175123612Y-116212976D01*
X175137008Y-117611488D01*
X175150404Y-119010000D01*
X174823678Y-119010000D01*
X174496952Y-119010000D01*
X174482703Y-118443036D01*
X174468453Y-117876071D01*
X173373982Y-117862494D01*
X172279510Y-117848916D01*
X172265251Y-118416859D01*
X172250993Y-118984801D01*
X171935211Y-118999826D01*
X171619429Y-119014851D01*
X171632830Y-117613914D01*
X171646231Y-116212976D01*
X171902691Y-116198025D01*
X172101790Y-116202861D01*
X172210363Y-116245420D01*
X172215728Y-116251244D01*
X172241275Y-116328573D01*
X172264051Y-116481243D01*
X172280876Y-116683801D01*
X172286847Y-116820561D01*
X172301389Y-117321706D01*
X173384921Y-117321706D01*
X174468453Y-117321706D01*
X174482752Y-116780474D01*
X174492061Y-116522555D01*
X174511771Y-116349779D01*
X174553781Y-116246509D01*
X174629990Y-116197105D01*
X174752298Y-116185930D01*
X174926828Y-116196870D01*
G37*
G36*
X177156389Y-116192880D02*
G01*
X177479517Y-116196724D01*
X177947725Y-116205193D01*
X178325655Y-116217869D01*
X178623823Y-116238856D01*
X178852744Y-116272257D01*
X179022934Y-116322178D01*
X179144908Y-116392721D01*
X179229182Y-116487992D01*
X179286272Y-116612094D01*
X179326693Y-116769132D01*
X179355352Y-116928856D01*
X179365781Y-117131314D01*
X179342188Y-117353805D01*
X179291695Y-117562348D01*
X179221422Y-117722966D01*
X179177371Y-117778160D01*
X179113130Y-117844076D01*
X179113297Y-117896382D01*
X179180288Y-117976572D01*
X179189499Y-117986385D01*
X179245563Y-118061351D01*
X179282230Y-118158775D01*
X179305316Y-118303634D01*
X179320634Y-118520905D01*
X179322438Y-118557429D01*
X179344076Y-119010000D01*
X179010332Y-119010000D01*
X178676588Y-119010000D01*
X178676588Y-118714415D01*
X178664342Y-118507713D01*
X178621898Y-118364351D01*
X178572136Y-118286042D01*
X178467685Y-118153254D01*
X177513803Y-118153254D01*
X176559921Y-118153254D01*
X176559921Y-118581627D01*
X176559921Y-119010000D01*
X176232342Y-119010000D01*
X175904762Y-119010000D01*
X175904762Y-117625047D01*
X175904762Y-117162116D01*
X175904762Y-116742143D01*
X176559921Y-116742143D01*
X176559921Y-117162116D01*
X176564188Y-117359653D01*
X176575542Y-117517374D01*
X176591816Y-117609012D01*
X176597719Y-117620099D01*
X176657819Y-117631199D01*
X176802244Y-117639204D01*
X177014564Y-117643761D01*
X177278345Y-117644519D01*
X177577158Y-117641126D01*
X177578719Y-117641098D01*
X177915482Y-117634007D01*
X178165965Y-117625610D01*
X178344681Y-117614404D01*
X178466141Y-117598885D01*
X178544859Y-117577551D01*
X178595349Y-117548897D01*
X178611853Y-117534093D01*
X178677195Y-117415962D01*
X178701407Y-117224497D01*
X178701786Y-117189462D01*
X178691791Y-117020129D01*
X178653410Y-116913196D01*
X178582810Y-116838484D01*
X178532720Y-116804546D01*
X178468423Y-116779601D01*
X178374814Y-116762287D01*
X178236788Y-116751247D01*
X178039240Y-116745123D01*
X177767064Y-116742554D01*
X177511878Y-116742143D01*
X176559921Y-116742143D01*
X175904762Y-116742143D01*
X175904762Y-116240095D01*
X176030608Y-116208509D01*
X176113764Y-116200726D01*
X176282805Y-116195150D01*
X176522847Y-116191903D01*
X176819004Y-116191106D01*
X177156389Y-116192880D01*
G37*
D12*
%TO.C,D6*%
X114762501Y-94475091D02*
X114762501Y-93874999D01*
X116362748Y-93874999D01*
X116362748Y-94475091D01*
X114762501Y-94475091D01*
G36*
X116362748Y-94475091D02*
G01*
X114762501Y-94475091D01*
X114762501Y-93874999D01*
X116362748Y-93874999D01*
X116362748Y-94475091D01*
G37*
%TO.C,JP6*%
G36*
X141450000Y-54050000D02*
G01*
X142950000Y-54050000D01*
X142950000Y-54350000D01*
X141450000Y-54350000D01*
X141450000Y-54050000D01*
G37*
%TD*%
D14*
%TO.C,CR1*%
X111150000Y-99100000D03*
X111150000Y-98150000D03*
X111150000Y-97200000D03*
X108550000Y-97200000D03*
X108550000Y-98150000D03*
X108550000Y-99100000D03*
%TD*%
D15*
%TO.C,IC5*%
X156603108Y-76779048D03*
X156603108Y-78049048D03*
X156603108Y-79319048D03*
X156603108Y-80589048D03*
X156603108Y-81859048D03*
X156603108Y-83129048D03*
X156603108Y-84399048D03*
X156603108Y-85669048D03*
X166053108Y-85669048D03*
X166053108Y-84399048D03*
X166053108Y-83129048D03*
X166053108Y-81859048D03*
X166053108Y-80589048D03*
X166053108Y-79319048D03*
X166053108Y-78049048D03*
X166053108Y-76779048D03*
%TD*%
D16*
%TO.C,PS1*%
X155675000Y-57335335D03*
D17*
X158215000Y-57335335D03*
X160755000Y-57335335D03*
X163295000Y-57335335D03*
%TD*%
D18*
%TO.C,D12*%
X145425000Y-87000000D03*
X147000000Y-87000000D03*
%TD*%
D19*
%TO.C,J17*%
X162500000Y-127240000D03*
D20*
X162500000Y-124700000D03*
X165040000Y-127240000D03*
X165040000Y-124700000D03*
X167580000Y-127240000D03*
X167580000Y-124700000D03*
X170120000Y-127240000D03*
X170120000Y-124700000D03*
X172660000Y-127240000D03*
X172660000Y-124700000D03*
X175200000Y-127240000D03*
X175200000Y-124700000D03*
X177740000Y-127240000D03*
X177740000Y-124700000D03*
%TD*%
D21*
%TO.C,C32*%
X110000001Y-107062499D03*
X110000001Y-105337499D03*
%TD*%
D22*
%TO.C,F2*%
X109750416Y-63557518D03*
X106350416Y-63557518D03*
X109750416Y-77027518D03*
X106350416Y-77027518D03*
%TD*%
D23*
%TO.C,J13*%
X106600000Y-101100000D03*
X106600000Y-100000000D03*
X106600000Y-98900000D03*
X106600000Y-97800000D03*
X106600000Y-96700000D03*
X106600000Y-95600000D03*
X106600000Y-94500000D03*
X106600000Y-93400000D03*
X106600000Y-92450000D03*
D24*
X96100000Y-91500000D03*
D25*
X102300000Y-91500000D03*
D26*
X91950000Y-91500000D03*
D25*
X106600000Y-102650000D03*
D27*
X91500000Y-105000000D03*
%TD*%
D18*
%TO.C,D10*%
X145465000Y-92710000D03*
X147040000Y-92710000D03*
%TD*%
D28*
%TO.C,H3*%
X185000000Y-125000000D03*
D29*
X185000000Y-125000000D03*
%TD*%
D30*
%TO.C,D33*%
X123270000Y-120520000D03*
X122570000Y-120520000D03*
X122920000Y-121680000D03*
%TD*%
D31*
%TO.C,R13*%
X129550000Y-73587500D03*
X129550000Y-75412500D03*
%TD*%
D32*
%TO.C,R11*%
X122842916Y-71025000D03*
X122842916Y-69375000D03*
%TD*%
D33*
%TO.C,C24*%
X122287501Y-93500000D03*
X124012501Y-93500000D03*
%TD*%
D34*
%TO.C,R7*%
X130125000Y-70862500D03*
X130125000Y-69037500D03*
%TD*%
D35*
%TO.C,D19*%
X147000000Y-108690000D03*
X145425000Y-108690000D03*
%TD*%
D14*
%TO.C,Q4*%
X170203108Y-65419048D03*
X170203108Y-67339048D03*
X172403108Y-66379048D03*
%TD*%
D36*
%TO.C,J8*%
X182000000Y-70000000D03*
D37*
X183340000Y-78750000D03*
D20*
X183340000Y-76250000D03*
X183340000Y-73750000D03*
X183340000Y-71250000D03*
X183340000Y-68750000D03*
X183340000Y-66250000D03*
X183340000Y-63750000D03*
X185840000Y-63750000D03*
X185840000Y-66250000D03*
X185840000Y-68750000D03*
X185840000Y-71250000D03*
X185840000Y-73750000D03*
X185840000Y-76250000D03*
X185840000Y-78750000D03*
%TD*%
D38*
%TO.C,D30*%
X179650000Y-63112500D03*
X179650000Y-64687500D03*
%TD*%
D39*
%TO.C,C33*%
X128737501Y-115399999D03*
X128737501Y-117124999D03*
%TD*%
D36*
%TO.C,J7*%
X181960000Y-91450000D03*
D40*
X183300000Y-97700000D03*
D20*
X183300000Y-95200000D03*
X183300000Y-92700000D03*
X183300000Y-90200000D03*
X183300000Y-87700000D03*
X185800000Y-87700000D03*
X185800000Y-90200000D03*
X185800000Y-92700000D03*
X185800000Y-95200000D03*
X185800000Y-97700000D03*
%TD*%
D31*
%TO.C,R74*%
X121420000Y-119407500D03*
X121420000Y-121232500D03*
%TD*%
D41*
%TO.C,D27*%
X174203108Y-78191548D03*
X174203108Y-76616548D03*
%TD*%
D42*
%TO.C,Q3*%
X170253108Y-69129048D03*
X170253108Y-71029048D03*
X172353108Y-70079048D03*
%TD*%
D35*
%TO.C,D31*%
X147087482Y-81445416D03*
X145512482Y-81445416D03*
%TD*%
D31*
%TO.C,R73*%
X116850000Y-124807500D03*
X116850000Y-126632500D03*
%TD*%
D43*
%TO.C,R6*%
X137037500Y-67550000D03*
X135212500Y-67550000D03*
%TD*%
D34*
%TO.C,R5*%
X138625000Y-69362500D03*
X138625000Y-67537500D03*
%TD*%
%TO.C,R48*%
X99750000Y-81125000D03*
X99750000Y-79300000D03*
%TD*%
D19*
%TO.C,J19*%
X153500000Y-101800000D03*
D20*
X153500000Y-104340000D03*
X153500000Y-106880000D03*
%TD*%
D35*
%TO.C,D16*%
X139980000Y-93275000D03*
X138405000Y-93275000D03*
%TD*%
D21*
%TO.C,FB2*%
X111550001Y-110462499D03*
X111550001Y-108737499D03*
%TD*%
D19*
%TO.C,J16*%
X153100000Y-90960000D03*
D20*
X153100000Y-93500000D03*
X153100000Y-96040000D03*
%TD*%
D18*
%TO.C,D13*%
X145465000Y-95710000D03*
X147040000Y-95710000D03*
%TD*%
D35*
%TO.C,D18*%
X147000000Y-105680000D03*
X145425000Y-105680000D03*
%TD*%
D15*
%TO.C,IC7*%
X156550000Y-108380000D03*
X156550000Y-109650000D03*
X156550000Y-110920000D03*
X156550000Y-112190000D03*
X156550000Y-113460000D03*
X156550000Y-114730000D03*
X156550000Y-116000000D03*
X156550000Y-117270000D03*
X166000000Y-117270000D03*
X166000000Y-116000000D03*
X166000000Y-114730000D03*
X166000000Y-113460000D03*
X166000000Y-112190000D03*
X166000000Y-110920000D03*
X166000000Y-109650000D03*
X166000000Y-108380000D03*
%TD*%
D35*
%TO.C,D7*%
X102762500Y-109000000D03*
X101187500Y-109000000D03*
%TD*%
D18*
%TO.C,D11*%
X145425000Y-90000000D03*
X147000000Y-90000000D03*
%TD*%
D28*
%TO.C,H1*%
X95000000Y-55000000D03*
D29*
X95000000Y-55000000D03*
%TD*%
D44*
%TO.C,C25*%
X120700001Y-93500000D03*
X118975001Y-93500000D03*
%TD*%
%TO.C,C35*%
X115562500Y-97400000D03*
X113837500Y-97400000D03*
%TD*%
D36*
%TO.C,J3*%
X104950000Y-55240000D03*
D45*
X106200000Y-53900000D03*
D46*
X103700000Y-53900000D03*
%TD*%
D47*
%TO.C,D6*%
X114837501Y-94849999D03*
X114837501Y-93499999D03*
D48*
X115562501Y-94924999D03*
X115562501Y-93424999D03*
D47*
X116287501Y-94849999D03*
X116287501Y-93499999D03*
%TD*%
D19*
%TO.C,J12*%
X110150000Y-126280000D03*
D20*
X110150000Y-123740000D03*
X110150000Y-121200000D03*
X110150000Y-118660000D03*
%TD*%
D36*
%TO.C,J1*%
X133330000Y-55290000D03*
D49*
X137080000Y-53950000D03*
D46*
X134580000Y-53950000D03*
X132080000Y-53950000D03*
X129580000Y-53950000D03*
%TD*%
D50*
%TO.C,Q2*%
X131875000Y-65850000D03*
X131875000Y-64580000D03*
X131875000Y-63300000D03*
X131875000Y-62030000D03*
D51*
X128605000Y-63940000D03*
%TD*%
D39*
%TO.C,C17*%
X128000000Y-76887500D03*
X128000000Y-78612500D03*
%TD*%
D52*
%TO.C,IC2*%
X133330000Y-111822000D03*
X134600000Y-111822000D03*
X135870000Y-111822000D03*
X137140000Y-111822000D03*
X137140000Y-106400000D03*
X135870000Y-106400000D03*
X134600000Y-106400000D03*
X133330000Y-106400000D03*
%TD*%
D39*
%TO.C,C36*%
X111600001Y-112174999D03*
X111600001Y-113899999D03*
%TD*%
D42*
%TO.C,Q6*%
X170203108Y-76529048D03*
X170203108Y-78429048D03*
X172303108Y-77479048D03*
%TD*%
D21*
%TO.C,FB1*%
X111550001Y-103662499D03*
X111550001Y-101937499D03*
%TD*%
D36*
%TO.C,J9*%
X94990000Y-82425000D03*
D53*
X93650000Y-78675000D03*
D54*
X93650000Y-81175000D03*
X93650000Y-83675000D03*
X93650000Y-86175000D03*
%TD*%
D15*
%TO.C,IC6*%
X156603108Y-88440335D03*
X156603108Y-89710335D03*
X156603108Y-90980335D03*
X156603108Y-92250335D03*
X156603108Y-93520335D03*
X156603108Y-94790335D03*
X156603108Y-96060335D03*
X156603108Y-97330335D03*
X166053108Y-97330335D03*
X166053108Y-96060335D03*
X166053108Y-94790335D03*
X166053108Y-93520335D03*
X166053108Y-92250335D03*
X166053108Y-90980335D03*
X166053108Y-89710335D03*
X166053108Y-88440335D03*
%TD*%
D31*
%TO.C,R10*%
X126750000Y-67504982D03*
X126750000Y-69329982D03*
%TD*%
D55*
%TO.C,R12*%
X121262916Y-69405000D03*
X121262916Y-71055000D03*
%TD*%
D56*
%TO.C,JP6*%
X142200000Y-53550000D03*
D57*
X142200000Y-54850000D03*
%TD*%
D31*
%TO.C,R17*%
X131900001Y-114487499D03*
X131900001Y-116312499D03*
%TD*%
D19*
%TO.C,J18*%
X132860000Y-127250000D03*
D20*
X135400000Y-127250000D03*
X137940000Y-127250000D03*
X140480000Y-127250000D03*
%TD*%
D15*
%TO.C,IC4*%
X156603108Y-65579048D03*
X156603108Y-66849048D03*
X156603108Y-68119048D03*
X156603108Y-69389048D03*
X156603108Y-70659048D03*
X156603108Y-71929048D03*
X156603108Y-73199048D03*
X156603108Y-74469048D03*
X166053108Y-74469048D03*
X166053108Y-73199048D03*
X166053108Y-71929048D03*
X166053108Y-70659048D03*
X166053108Y-69389048D03*
X166053108Y-68119048D03*
X166053108Y-66849048D03*
X166053108Y-65579048D03*
%TD*%
D58*
%TO.C,L1*%
X119162916Y-74100000D03*
X119162916Y-80500000D03*
%TD*%
D41*
%TO.C,D29*%
X174003108Y-85729048D03*
X174003108Y-84154048D03*
%TD*%
D59*
%TO.C,TP2*%
X119000000Y-87700000D03*
%TD*%
D35*
%TO.C,D15*%
X139980000Y-96390000D03*
X138405000Y-96390000D03*
%TD*%
D36*
%TO.C,J2*%
X184485000Y-109850000D03*
D60*
X185825000Y-113600000D03*
D54*
X185825000Y-111100000D03*
X185825000Y-108600000D03*
%TD*%
D61*
%TO.C,D4*%
X134335000Y-104411000D03*
X136235000Y-104411000D03*
X135285000Y-102411000D03*
%TD*%
D33*
%TO.C,C31*%
X125675001Y-97399999D03*
X127400001Y-97399999D03*
%TD*%
D62*
%TO.C,U5*%
X168615108Y-90567835D03*
X168615108Y-91217835D03*
X168615108Y-91867835D03*
X168615108Y-92517835D03*
X168615108Y-93167835D03*
X168615108Y-93817835D03*
X168615108Y-94467835D03*
X174491108Y-94467835D03*
X174491108Y-93817835D03*
X174491108Y-93167835D03*
X174491108Y-92517835D03*
X174491108Y-91867835D03*
X174491108Y-91217835D03*
X174491108Y-90567835D03*
%TD*%
D63*
%TO.C,Y1*%
X119450001Y-96200000D03*
X123550001Y-96200000D03*
%TD*%
D43*
%TO.C,R8*%
X130137500Y-67500000D03*
X128312500Y-67500000D03*
%TD*%
D34*
%TO.C,R47*%
X101250000Y-81125000D03*
X101250000Y-79300000D03*
%TD*%
D42*
%TO.C,Q5*%
X170203108Y-72829048D03*
X170203108Y-74729048D03*
X172303108Y-73779048D03*
%TD*%
D41*
%TO.C,D25*%
X174103108Y-67166548D03*
X174103108Y-65591548D03*
%TD*%
D64*
%TO.C,Reset1*%
X101900000Y-111450000D03*
X101900000Y-115950000D03*
X104050000Y-111450000D03*
X104050000Y-115950000D03*
%TD*%
D36*
%TO.C,J5*%
X151550000Y-125390000D03*
D65*
X150300000Y-126730000D03*
D46*
X152800000Y-126730000D03*
%TD*%
D59*
%TO.C,TP1*%
X106500000Y-83500000D03*
%TD*%
D66*
%TO.C,IC1*%
X131675000Y-70100000D03*
X132325000Y-70100000D03*
X132975000Y-70100000D03*
X133625000Y-70100000D03*
X133625000Y-67600000D03*
X132975000Y-67600000D03*
X132325000Y-67600000D03*
X131675000Y-67600000D03*
%TD*%
D59*
%TO.C,TP4*%
X114250000Y-87700000D03*
%TD*%
D18*
%TO.C,D8*%
X134712500Y-81950000D03*
X136287500Y-81950000D03*
%TD*%
%TO.C,D9*%
X118407500Y-119070000D03*
X119982500Y-119070000D03*
%TD*%
D41*
%TO.C,D28*%
X174003108Y-82054048D03*
X174003108Y-80479048D03*
%TD*%
D19*
%TO.C,JP1*%
X139835000Y-103725000D03*
D20*
X139835000Y-106265000D03*
%TD*%
D67*
%TO.C,R43*%
X100612500Y-71000000D03*
X102437500Y-71000000D03*
%TD*%
D68*
%TO.C,Q1*%
X133620000Y-62068297D03*
X133620000Y-63338297D03*
X133620000Y-64618297D03*
X133620000Y-65888297D03*
D69*
X136890000Y-63978297D03*
%TD*%
D39*
%TO.C,C3*%
X135325000Y-69187500D03*
X135325000Y-70912500D03*
%TD*%
D35*
%TO.C,D17*%
X139980000Y-90160000D03*
X138405000Y-90160000D03*
%TD*%
D21*
%TO.C,C27*%
X111600001Y-107062499D03*
X111600001Y-105337499D03*
%TD*%
D35*
%TO.C,D14*%
X139980000Y-87045000D03*
X138405000Y-87045000D03*
%TD*%
D70*
%TO.C,IC3*%
X101575000Y-74000000D03*
X100925000Y-74000000D03*
X100275000Y-74000000D03*
X99625000Y-74000000D03*
D71*
X98700000Y-74925000D03*
X98700000Y-75575000D03*
X98700000Y-76225000D03*
X98700000Y-76875000D03*
D70*
X99625000Y-77800000D03*
X100275000Y-77800000D03*
X100925000Y-77800000D03*
X101575000Y-77800000D03*
D71*
X102500000Y-76875000D03*
X102500000Y-76225000D03*
X102500000Y-75575000D03*
X102500000Y-74925000D03*
D72*
X100600000Y-75900000D03*
%TD*%
D73*
%TO.C,SW1*%
X97850000Y-114850000D03*
X92350000Y-112350000D03*
X97850000Y-109850000D03*
%TD*%
D74*
%TO.C,TP_3.3V1*%
X130048000Y-85250000D03*
%TD*%
D59*
%TO.C,TP3*%
X124000000Y-87700000D03*
%TD*%
D75*
%TO.C,U4*%
X127350002Y-99350000D03*
X126850000Y-99350000D03*
X126350001Y-99350000D03*
X125850002Y-99350000D03*
X125350001Y-99350000D03*
X124850002Y-99350000D03*
X124350000Y-99350000D03*
X123850001Y-99350000D03*
X123350002Y-99350000D03*
X122850001Y-99350000D03*
X122350002Y-99350000D03*
X121850003Y-99350000D03*
X121350001Y-99350000D03*
X120850002Y-99350000D03*
X120350000Y-99350000D03*
X119850001Y-99350000D03*
X119350002Y-99350000D03*
X118850001Y-99350000D03*
X118350002Y-99350000D03*
X117850000Y-99350000D03*
X117350001Y-99350000D03*
X116850002Y-99350000D03*
X116350001Y-99350000D03*
X115850002Y-99350000D03*
X115350000Y-99350000D03*
D76*
X113600001Y-101099999D03*
X113600001Y-101600001D03*
X113600001Y-102100000D03*
X113600001Y-102599999D03*
X113600001Y-103100000D03*
X113600001Y-103599999D03*
X113600001Y-104100001D03*
X113600001Y-104600000D03*
X113600001Y-105099999D03*
X113600001Y-105600000D03*
X113600001Y-106099999D03*
X113600001Y-106600001D03*
X113600001Y-107100000D03*
X113600001Y-107599999D03*
X113600001Y-108100001D03*
X113600001Y-108600000D03*
X113600001Y-109100001D03*
X113600001Y-109600000D03*
X113600001Y-110099999D03*
X113600001Y-110600001D03*
X113600001Y-111100000D03*
X113600001Y-111600001D03*
X113600001Y-112100000D03*
X113600001Y-112599999D03*
X113600001Y-113100001D03*
D75*
X115350000Y-114850000D03*
X115850002Y-114850000D03*
X116350001Y-114850000D03*
X116850000Y-114850000D03*
X117350001Y-114850000D03*
X117850000Y-114850000D03*
X118350002Y-114850000D03*
X118850001Y-114850000D03*
X119350000Y-114850000D03*
X119850001Y-114850000D03*
X120350000Y-114850000D03*
X120850002Y-114850000D03*
X121350001Y-114850000D03*
X121850000Y-114850000D03*
X122350002Y-114850000D03*
X122850001Y-114850000D03*
X123350002Y-114850000D03*
X123850001Y-114850000D03*
X124350000Y-114850000D03*
X124850002Y-114850000D03*
X125350001Y-114850000D03*
X125850002Y-114850000D03*
X126350001Y-114850000D03*
X126850000Y-114850000D03*
X127350002Y-114850000D03*
D76*
X129100001Y-113100001D03*
X129100001Y-112599999D03*
X129100001Y-112100000D03*
X129100001Y-111600001D03*
X129100001Y-111100000D03*
X129100001Y-110600001D03*
X129100001Y-110099999D03*
X129100001Y-109600000D03*
X129100001Y-109100001D03*
X129100001Y-108600000D03*
X129100001Y-108100001D03*
X129100001Y-107599999D03*
X129100001Y-107100000D03*
X129100001Y-106600001D03*
X129100001Y-106099999D03*
X129100001Y-105600000D03*
X129100001Y-105099999D03*
X129100001Y-104600000D03*
X129100001Y-104100001D03*
X129100001Y-103599999D03*
X129100001Y-103100000D03*
X129100001Y-102599999D03*
X129100001Y-102100000D03*
X129100001Y-101600001D03*
X129100001Y-101099999D03*
%TD*%
D67*
%TO.C,R42*%
X100625000Y-72500000D03*
X102450000Y-72500000D03*
%TD*%
D41*
%TO.C,D24*%
X174153108Y-71187500D03*
X174153108Y-69612500D03*
%TD*%
D22*
%TO.C,F1*%
X147950000Y-63512921D03*
X144550000Y-63512921D03*
X147950000Y-76982921D03*
X144550000Y-76982921D03*
%TD*%
D77*
%TO.C,U3*%
X134650000Y-79750000D03*
X136950000Y-79750000D03*
D78*
X136950000Y-73450000D03*
D77*
X139250000Y-79750000D03*
%TD*%
D21*
%TO.C,C2*%
X137025000Y-70912500D03*
X137025000Y-69187500D03*
%TD*%
D67*
%TO.C,R40*%
X108597500Y-95500000D03*
X110422500Y-95500000D03*
%TD*%
D39*
%TO.C,C9*%
X116400000Y-68837500D03*
X116400000Y-70562500D03*
%TD*%
D44*
%TO.C,C41*%
X99000000Y-71000000D03*
X97275000Y-71000000D03*
%TD*%
D28*
%TO.C,H4*%
X185000000Y-55000000D03*
D29*
X185000000Y-55000000D03*
%TD*%
D79*
%TO.C,J20*%
X120030000Y-124220000D03*
X125810000Y-124220000D03*
D80*
X119720000Y-123145000D03*
X120520000Y-123145000D03*
D81*
X121670000Y-123145000D03*
X122670000Y-123145000D03*
X123170000Y-123145000D03*
X124170000Y-123145000D03*
D80*
X125320000Y-123145000D03*
X126120000Y-123145000D03*
X126120000Y-123145000D03*
X125320000Y-123145000D03*
D81*
X124670000Y-123145000D03*
X123670000Y-123145000D03*
X122170000Y-123145000D03*
X121170000Y-123145000D03*
D80*
X120520000Y-123145000D03*
X119720000Y-123145000D03*
D82*
X118600000Y-123720000D03*
X127240000Y-123720000D03*
D83*
X127240000Y-127900000D03*
X118600000Y-127900000D03*
%TD*%
D35*
%TO.C,D21*%
X147000000Y-114710000D03*
X145425000Y-114710000D03*
%TD*%
%TO.C,D20*%
X147000000Y-111700000D03*
X145425000Y-111700000D03*
%TD*%
D33*
%TO.C,C16*%
X126307500Y-72460000D03*
X128032500Y-72460000D03*
%TD*%
D31*
%TO.C,R75*%
X124410000Y-119407500D03*
X124410000Y-121232500D03*
%TD*%
D34*
%TO.C,R9*%
X128375000Y-70912500D03*
X128375000Y-69087500D03*
%TD*%
D84*
%TO.C,D3*%
X132000000Y-77250000D03*
X129500000Y-77250000D03*
%TD*%
D41*
%TO.C,D26*%
X174085608Y-74531548D03*
X174085608Y-72956548D03*
%TD*%
D85*
%TO.C,U1*%
X120112917Y-68300000D03*
X119162916Y-68300000D03*
X118212915Y-68300000D03*
X118212915Y-70999984D03*
X119162916Y-70999984D03*
X120112917Y-70999984D03*
%TD*%
D42*
%TO.C,Q8*%
X170203108Y-83979048D03*
X170203108Y-85879048D03*
X172303108Y-84929048D03*
%TD*%
D28*
%TO.C,H2*%
X95000000Y-125000000D03*
D29*
X95000000Y-125000000D03*
%TD*%
D86*
%TO.C,L2*%
X157753108Y-61185335D03*
X159703108Y-61185335D03*
%TD*%
D19*
%TO.C,J15*%
X153500000Y-68960000D03*
D20*
X153500000Y-71500000D03*
X153500000Y-74040000D03*
X153500000Y-76580000D03*
%TD*%
D19*
%TO.C,J14*%
X98160000Y-88100000D03*
D20*
X100700000Y-88100000D03*
X103240000Y-88100000D03*
X105780000Y-88100000D03*
X108320000Y-88100000D03*
%TD*%
D42*
%TO.C,Q7*%
X170203108Y-80279048D03*
X170203108Y-82179048D03*
X172303108Y-81229048D03*
%TD*%
D31*
%TO.C,R18*%
X130300001Y-114474999D03*
X130300001Y-116299999D03*
%TD*%
D36*
%TO.C,J6*%
X95000000Y-66825000D03*
D53*
X93660000Y-63075000D03*
D54*
X93660000Y-65575000D03*
X93660000Y-68075000D03*
X93660000Y-70575000D03*
%TD*%
D87*
%TO.C,C8*%
X114100000Y-68662500D03*
X114100000Y-70737500D03*
%TD*%
D36*
%TO.C,J4*%
X117800000Y-57750000D03*
D88*
X121550000Y-56410000D03*
D20*
X119050000Y-56410000D03*
X116550000Y-56410000D03*
X116550000Y-53910000D03*
X119050000Y-53910000D03*
X121550000Y-53910000D03*
%TD*%
D44*
%TO.C,C40*%
X99000000Y-72500000D03*
X97275000Y-72500000D03*
%TD*%
D89*
%TO.C,J11*%
X103060399Y-124554999D03*
X103060399Y-120305000D03*
X105060401Y-124554999D03*
X105060401Y-120305000D03*
%TD*%
M02*
