M48
; DRILL file KiCad 10.0.5 date 2026-09-20T15:13:52
; FORMAT={-:-/ absolute / metric / decimal}
; #@! TF.CreationDate,2026-09-20T15:13:52-05:00
; #@! TF.GenerationSoftware,Kicad,Pcbnew,10.0.5
; #@! TF.FileFunction,Plated,1,4,PTH
FMAT,2
METRIC
; #@! TA.AperFunction,Plated,PTH,ViaDrill
T1C0.300
; #@! TA.AperFunction,Plated,PTH,ComponentDrill
T2C0.600
; #@! TA.AperFunction,Plated,PTH,ComponentDrill
T3C0.830
; #@! TA.AperFunction,Plated,PTH,ComponentDrill
T4C1.000
; #@! TA.AperFunction,Plated,PTH,ComponentDrill
T5C1.200
; #@! TA.AperFunction,Plated,PTH,ComponentDrill
T6C1.500
; #@! TA.AperFunction,Plated,PTH,ComponentDrill
T7C1.600
; #@! TA.AperFunction,Plated,PTH,ComponentDrill
T8C3.200
%
G90
G05
T1
X92.0Y-118.0
X92.0Y-119.0
X92.0Y-120.0
X92.125Y-93.325
X93.0Y-117.5
X93.0Y-118.5
X93.0Y-119.5
X93.0Y-120.5
X94.0Y-117.0
X94.0Y-118.0
X94.0Y-119.0
X94.0Y-120.0
X94.0Y-121.0
X94.1Y-112.3
X95.0Y-110.0
X95.0Y-117.5
X95.0Y-118.5
X95.0Y-119.5
X95.0Y-120.5
X95.575Y-93.975
X96.0Y-118.0
X96.0Y-119.0
X96.0Y-120.0
X96.1Y-90.4
X97.0Y-58.0
X97.0Y-59.0
X97.15Y-74.925
X97.3Y-70.25
X97.725Y-76.875
X97.775Y-75.575
X98.0Y-56.5
X98.0Y-57.5
X98.0Y-58.5
X98.0Y-59.5
X98.35Y-112.3
X99.0Y-56.0
X99.0Y-57.0
X99.0Y-58.0
X99.0Y-59.0
X99.0Y-60.0
X99.05Y-73.45
X99.775Y-114.15
X99.85Y-109.625
X100.0Y-56.5
X100.0Y-57.5
X100.0Y-58.5
X100.0Y-59.5
X101.0Y-57.0
X101.0Y-58.0
X101.0Y-59.0
X101.1Y-71.7
X101.15Y-117.85
X101.85Y-120.35
X102.0Y-80.1
X102.05Y-80.95
X102.05Y-109.4
X102.45Y-78.35
X102.85Y-77.7
X103.1Y-122.6
X104.0Y-92.8
X104.05Y-110.6
X104.05Y-116.95
X104.2Y-70.0
X105.4Y-92.5
X105.4Y-95.6
X105.5Y-97.8
X109.387Y-97.412
X110.025Y-99.225
X110.15Y-103.85
X110.375Y-101.975
X110.6Y-110.5
X110.6Y-112.2
X111.6Y-113.2
X112.075Y-98.1
X112.15Y-109.6
X112.362Y-106.3
X112.4Y-80.925
X112.575Y-101.35
X112.7Y-117.1
X113.6Y-54.162
X113.875Y-74.925
X114.0Y-117.7
X114.1Y-81.7
X114.1Y-94.4
X114.15Y-69.8
X114.4Y-99.1
X114.675Y-92.825
X114.675Y-105.4
X114.7Y-112.1
X114.875Y-101.5
X115.35Y-116.35
X115.5Y-70.6
X115.575Y-92.6
X115.637Y-100.362
X115.7Y-123.6
X115.7Y-124.8
X116.0Y-103.8
X116.15Y-102.1
X116.167Y-116.383
X116.6Y-92.8
X116.875Y-100.825
X117.1Y-94.4
X117.3Y-119.0
X117.3Y-120.4
X117.5Y-71.0
X117.575Y-101.475
X118.762Y-101.637
X118.8Y-70.0
X118.931Y-100.869
X119.0Y-108.0
X119.0Y-109.0
X119.2Y-82.85
X119.275Y-119.875
X119.606Y-100.511
X120.0Y-107.5
X120.0Y-108.5
X120.0Y-109.5
X120.1Y-70.0
X120.275Y-82.85
X120.375Y-103.625
X120.45Y-100.402
X120.45Y-119.9
X120.95Y-116.525
X121.0Y-108.0
X121.0Y-109.0
X121.25Y-70.3
X121.3Y-113.9
X121.5Y-92.5
X121.675Y-116.25
X122.125Y-71.7
X122.2Y-113.8
X122.8Y-116.275
X122.9Y-109.875
X123.0Y-121.3
X123.5Y-117.7
X124.0Y-102.0
X124.0Y-117.1
X124.4Y-120.3
X124.75Y-113.8
X125.3Y-96.2
X125.3Y-122.1
X125.4Y-105.7
X125.513Y-76.65
X125.55Y-104.725
X125.6Y-69.1
X125.61Y-67.47
X125.7Y-106.425
X125.9Y-71.75
X126.3Y-82.85
X126.3Y-92.25
X126.3Y-101.9
X126.6Y-120.6
X126.9Y-113.9
X126.925Y-105.475
X127.025Y-76.525
X127.025Y-104.725
X127.2Y-101.35
X127.3Y-60.8
X127.5Y-117.1
X127.65Y-102.25
X127.7Y-113.9
X127.8Y-117.93
X128.2Y-103.6
X128.325Y-97.4
X128.5Y-69.85
X128.82Y-74.48
X128.925Y-76.225
X129.2Y-68.25
X129.35Y-78.6
X129.55Y-60.8
X129.6Y-119.7
X129.9Y-117.3
X130.025Y-72.275
X130.125Y-118.85
X130.45Y-101.55
X130.45Y-104.6
X130.6Y-106.2
X130.625Y-106.975
X130.65Y-105.35
X130.85Y-65.85
X130.9Y-62.7
X130.975Y-70.8
X131.0Y-75.5
X131.5Y-74.5
X131.8Y-103.475
X132.0Y-73.5
X132.0Y-75.5
X132.5Y-74.5
X132.85Y-68.85
X133.0Y-75.5
X133.45Y-103.6
X133.46Y-77.25
X133.55Y-81.95
X133.85Y-60.9
X134.25Y-56.95
X134.275Y-57.8
X134.35Y-99.0
X134.35Y-103.45
X134.4Y-71.5
X134.6Y-113.5
X135.25Y-103.625
X135.3Y-98.975
X135.35Y-71.95
X135.9Y-112.95
X136.1Y-71.875
X136.2Y-70.05
X136.25Y-103.45
X136.45Y-87.5
X136.75Y-96.125
X136.987Y-76.5
X136.996Y-96.904
X137.0Y-72.0
X137.175Y-97.725
X137.175Y-98.525
X137.3Y-87.35
X137.625Y-81.25
X137.75Y-68.4
X137.875Y-78.525
X137.925Y-103.525
X137.95Y-112.6
X138.0Y-106.45
X138.075Y-76.025
X138.2Y-104.45
X139.0Y-98.175
X139.025Y-110.2
X139.25Y-78.4
X139.5Y-82.0
X139.5Y-83.0
X139.5Y-84.0
X140.025Y-109.7
X140.025Y-110.7
X140.5Y-81.5
X140.5Y-82.5
X140.5Y-83.5
X140.5Y-84.5
X140.6Y-62.6
X140.6Y-63.4
X140.6Y-64.2
X140.6Y-65.0
X140.8Y-69.2
X141.0Y-76.0
X141.0Y-87.2
X141.025Y-110.2
X141.2Y-90.3
X141.3Y-96.5
X141.4Y-63.0
X141.4Y-63.8
X141.4Y-64.6
X141.4Y-93.3
X141.5Y-81.0
X141.5Y-82.0
X141.5Y-83.0
X141.5Y-84.0
X141.5Y-85.0
X142.5Y-81.5
X142.5Y-82.5
X142.5Y-83.5
X142.5Y-84.5
X142.75Y-100.675
X143.0Y-89.0
X143.5Y-82.0
X143.5Y-83.0
X143.5Y-84.0
X144.3Y-87.2
X144.3Y-92.6
X144.4Y-95.7
X145.35Y-116.25
X146.1Y-80.3
X146.25Y-105.15
X146.25Y-111.15
X146.25Y-114.15
X146.3Y-88.7
X146.3Y-108.05
X147.475Y-104.3
X147.8Y-86.0
X148.0Y-126.39
X148.35Y-81.55
X148.6Y-95.2
X149.0Y-91.0
X152.2Y-85.7
X154.1Y-79.75
X154.85Y-101.45
X154.925Y-93.925
X155.1Y-80.589
X155.1Y-92.55
X155.25Y-81.9
X155.5Y-100.8
X156.5Y-60.0
X156.5Y-61.0
X156.5Y-62.0
X157.85Y-87.1
X157.9Y-76.8
X157.95Y-65.5
X157.95Y-73.3
X157.95Y-108.4
X158.0Y-67.1
X158.0Y-78.1
X158.0Y-88.6
X158.0Y-89.9
X158.0Y-109.7
X158.05Y-82.85
X158.2Y-86.4
X158.4Y-84.55
X158.45Y-96.05
X158.5Y-70.55
X158.9Y-98.95
X160.55Y-77.4
X160.927Y-54.1
X161.2Y-88.55
X161.65Y-81.45
X162.8Y-82.65
X163.0Y-84.5
X163.427Y-53.0
X164.0Y-51.5
X164.0Y-52.5
X164.1Y-93.9
X164.3Y-84.45
X164.3Y-95.85
X164.6Y-78.1
X164.6Y-97.55
X164.65Y-66.9
X164.65Y-89.65
X164.65Y-109.7
X164.7Y-65.6
X164.7Y-73.2
X164.7Y-86.5
X164.7Y-88.5
X164.75Y-76.75
X164.75Y-108.4
X164.75Y-118.8
X165.0Y-51.0
X165.0Y-52.0
X165.95Y-118.1
X166.0Y-51.5
X166.0Y-52.5
X167.0Y-51.5
X167.0Y-52.5
X167.6Y-113.3
X167.75Y-112.15
X168.0Y-51.0
X168.0Y-52.0
X168.0Y-53.0
X168.8Y-112.1
X169.0Y-51.5
X169.0Y-52.5
X169.675Y-89.375
X169.7Y-95.2
X170.035Y-92.185
X170.65Y-94.95
X171.15Y-91.25
X171.3Y-82.15
X171.35Y-71.05
X171.35Y-74.75
X171.35Y-86.4
X171.4Y-67.4
X171.4Y-78.45
X171.85Y-93.65
X172.3Y-74.85
X172.3Y-78.55
X172.3Y-82.2
X172.3Y-85.85
X172.35Y-89.95
X172.95Y-93.15
X173.006Y-72.844
X173.083Y-69.217
X173.25Y-91.75
X173.35Y-90.1
X173.7Y-64.7
X173.7Y-83.45
X173.75Y-75.95
X173.8Y-79.75
X174.5Y-95.45
X175.05Y-67.2
X175.25Y-70.55
X175.45Y-89.15
X175.65Y-95.75
X178.0Y-75.5
X178.0Y-76.5
X178.0Y-87.5
X178.0Y-88.5
X178.0Y-94.0
X179.0Y-75.0
X179.0Y-76.0
X179.0Y-77.0
X179.0Y-87.0
X179.0Y-88.0
X179.0Y-89.0
X179.75Y-64.0
X179.75Y-98.95
X180.0Y-75.5
X180.0Y-76.5
X180.0Y-87.5
X180.0Y-88.5
X180.3Y-62.2
X184.0Y-84.1
X184.925Y-117.5
X184.925Y-118.5
X185.925Y-117.0
X185.925Y-118.0
X185.925Y-119.0
X186.925Y-117.5
X186.925Y-118.5
X188.1Y-92.4
T3
X155.675Y-57.335
X158.215Y-57.335
X160.755Y-57.335
X163.295Y-57.335
T4
X98.16Y-88.1
X100.7Y-88.1
X103.24Y-88.1
X105.78Y-88.1
X108.32Y-88.1
X110.15Y-118.66
X110.15Y-121.2
X110.15Y-123.74
X110.15Y-126.28
X130.048Y-85.25
X132.86Y-127.25
X135.4Y-127.25
X137.94Y-127.25
X139.835Y-103.725
X139.835Y-106.265
X140.48Y-127.25
X153.1Y-90.96
X153.1Y-93.5
X153.1Y-96.04
X153.5Y-68.96
X153.5Y-71.5
X153.5Y-74.04
X153.5Y-76.58
X153.5Y-101.8
X153.5Y-104.34
X153.5Y-106.88
X162.5Y-124.7
X162.5Y-127.24
X165.04Y-124.7
X165.04Y-127.24
X167.58Y-124.7
X167.58Y-127.24
X170.12Y-124.7
X170.12Y-127.24
X172.66Y-124.7
X172.66Y-127.24
X175.2Y-124.7
X175.2Y-127.24
X177.74Y-124.7
X177.74Y-127.24
T5
X93.65Y-78.675
X93.65Y-81.175
X93.65Y-83.675
X93.65Y-86.175
X93.66Y-63.075
X93.66Y-65.575
X93.66Y-68.075
X93.66Y-70.575
X103.7Y-53.9
X106.2Y-53.9
X116.55Y-53.91
X116.55Y-56.41
X119.05Y-53.91
X119.05Y-56.41
X121.55Y-53.91
X121.55Y-56.41
X129.58Y-53.95
X132.08Y-53.95
X134.58Y-53.95
X137.08Y-53.95
X150.3Y-126.73
X152.8Y-126.73
X183.3Y-87.7
X183.3Y-90.2
X183.3Y-92.7
X183.3Y-95.2
X183.3Y-97.7
X183.34Y-63.75
X183.34Y-66.25
X183.34Y-68.75
X183.34Y-71.25
X183.34Y-73.75
X183.34Y-76.25
X183.34Y-78.75
X185.8Y-87.7
X185.8Y-90.2
X185.8Y-92.7
X185.8Y-95.2
X185.8Y-97.7
X185.825Y-108.6
X185.825Y-111.1
X185.825Y-113.6
X185.84Y-63.75
X185.84Y-66.25
X185.84Y-68.75
X185.84Y-71.25
X185.84Y-73.75
X185.84Y-76.25
X185.84Y-78.75
T6
X106.5Y-83.5
X114.25Y-87.7
X119.0Y-87.7
X124.0Y-87.7
T7
X106.35Y-63.558
X106.35Y-77.028
X109.75Y-63.558
X109.75Y-77.028
X144.55Y-63.513
X144.55Y-76.983
X147.95Y-63.513
X147.95Y-76.983
T8
X95.0Y-55.0
X95.0Y-125.0
X185.0Y-55.0
X185.0Y-125.0
T2
G00X118.6Y-123.17
M15
G01X118.6Y-124.27
M16
G05
G00X118.6Y-127.5
M15
G01X118.6Y-128.3
M16
G05
G00X127.24Y-123.17
M15
G01X127.24Y-124.27
M16
G05
G00X127.24Y-127.5
M15
G01X127.24Y-128.3
M16
G05
M30
