%TF.GenerationSoftware,KiCad,Pcbnew,10.0.5*%
%TF.CreationDate,2026-09-23T01:57:51-05:00*%
%TF.ProjectId,VehicleControlUnit,56656869-636c-4654-936f-6e74726f6c55,rev?*%
%TF.SameCoordinates,Original*%
%TF.FileFunction,Soldermask,Bot*%
%TF.FilePolarity,Negative*%
%FSLAX46Y46*%
G04 Gerber Fmt 4.6, Leading zero omitted, Abs format (unit mm)*
G04 Created by KiCad (PCBNEW 10.0.5) date 2026-09-23 01:57:51*
%MOMM*%
%LPD*%
G01*
G04 APERTURE LIST*
G04 Aperture macros list*
%AMRoundRect*
0 Rectangle with rounded corners*
0 $1 Rounding radius*
0 $2 $3 $4 $5 $6 $7 $8 $9 X,Y pos of 4 corners*
0 Add a 4 corners polygon primitive as box body*
4,1,4,$2,$3,$4,$5,$6,$7,$8,$9,$2,$3,0*
0 Add four circle primitives for the rounded corners*
1,1,$1+$1,$2,$3*
1,1,$1+$1,$4,$5*
1,1,$1+$1,$6,$7*
1,1,$1+$1,$8,$9*
0 Add four rect primitives between the rounded corners*
20,1,$1+$1,$2,$3,$4,$5,0*
20,1,$1+$1,$4,$5,$6,$7,0*
20,1,$1+$1,$6,$7,$8,$9,0*
20,1,$1+$1,$8,$9,$2,$3,0*%
%AMFreePoly0*
4,1,22,0.945671,0.830970,1.026777,0.776777,1.080970,0.695671,1.100000,0.600000,1.100000,-0.600000,1.080970,-0.695671,1.026777,-0.776777,0.945671,-0.830970,0.850000,-0.850000,-0.850000,-0.850000,-0.945671,-0.830970,-1.026777,-0.776777,-1.080970,-0.695671,-1.100000,-0.600000,-1.100000,0.200000,-1.080970,0.295671,-1.026777,0.376777,-0.626777,0.776777,-0.545671,0.830970,-0.450000,0.850000,
0.850000,0.850000,0.945671,0.830970,0.945671,0.830970,$1*%
%AMFreePoly1*
4,1,22,0.945671,0.830970,1.026777,0.776777,1.080970,0.695671,1.100000,0.600000,1.100000,-0.600000,1.080970,-0.695671,1.026777,-0.776777,0.945671,-0.830970,0.850000,-0.850000,-0.850000,-0.850000,-0.945671,-0.830970,-1.026777,-0.776777,-1.080970,-0.695671,-1.100000,-0.600000,-1.100000,0.346447,-1.080970,0.442118,-1.026777,0.523224,-0.773224,0.776777,-0.692118,0.830970,-0.596447,0.850000,
0.850000,0.850000,0.945671,0.830970,0.945671,0.830970,$1*%
%AMFreePoly2*
4,1,23,0.500000,-0.750000,0.000000,-0.750000,0.000000,-0.745722,-0.065263,-0.745722,-0.191342,-0.711940,-0.304381,-0.646677,-0.396677,-0.554381,-0.461940,-0.441342,-0.495722,-0.315263,-0.495722,-0.250000,-0.500000,-0.250000,-0.500000,0.250000,-0.495722,0.250000,-0.495722,0.315263,-0.461940,0.441342,-0.396677,0.554381,-0.304381,0.646677,-0.191342,0.711940,-0.065263,0.745722,0.000000,0.745722,
0.000000,0.750000,0.500000,0.750000,0.500000,-0.750000,0.500000,-0.750000,$1*%
%AMFreePoly3*
4,1,23,0.000000,0.745722,0.065263,0.745722,0.191342,0.711940,0.304381,0.646677,0.396677,0.554381,0.461940,0.441342,0.495722,0.315263,0.495722,0.250000,0.500000,0.250000,0.500000,-0.250000,0.495722,-0.250000,0.495722,-0.315263,0.461940,-0.441342,0.396677,-0.554381,0.304381,-0.646677,0.191342,-0.711940,0.065263,-0.745722,0.000000,-0.745722,0.000000,-0.750000,-0.500000,-0.750000,
-0.500000,0.750000,0.000000,0.750000,0.000000,0.745722,0.000000,0.745722,$1*%
G04 Aperture macros list end*
%ADD10RoundRect,0.102000X-0.669000X-0.669000X0.669000X-0.669000X0.669000X0.669000X-0.669000X0.669000X0*%
%ADD11C,1.542000*%
%ADD12R,1.700000X1.700000*%
%ADD13C,1.700000*%
%ADD14C,2.400000*%
%ADD15C,3.600000*%
%ADD16C,5.600000*%
%ADD17C,1.300000*%
%ADD18RoundRect,0.250000X0.600000X0.600000X-0.600000X0.600000X-0.600000X-0.600000X0.600000X-0.600000X0*%
%ADD19RoundRect,0.250000X-0.600000X-0.600000X0.600000X-0.600000X0.600000X0.600000X-0.600000X0.600000X0*%
%ADD20FreePoly0,90.000000*%
%ADD21O,1.700000X2.200000*%
%ADD22RoundRect,0.250000X0.600000X-0.850000X0.600000X0.850000X-0.600000X0.850000X-0.600000X-0.850000X0*%
%ADD23RoundRect,0.250000X0.850000X0.600000X-0.850000X0.600000X-0.850000X-0.600000X0.850000X-0.600000X0*%
%ADD24O,2.200000X1.700000*%
%ADD25C,3.000000*%
%ADD26FreePoly1,0.000000*%
%ADD27FreePoly0,270.000000*%
%ADD28C,2.000000*%
%ADD29C,0.650000*%
%ADD30O,1.000000X2.100000*%
%ADD31O,1.000000X1.800000*%
%ADD32RoundRect,0.250000X0.600000X-0.600000X0.600000X0.600000X-0.600000X0.600000X-0.600000X-0.600000X0*%
%ADD33RoundRect,0.237500X0.250000X0.237500X-0.250000X0.237500X-0.250000X-0.237500X0.250000X-0.237500X0*%
%ADD34RoundRect,0.237500X-0.250000X-0.237500X0.250000X-0.237500X0.250000X0.237500X-0.250000X0.237500X0*%
%ADD35RoundRect,0.237500X0.237500X-0.250000X0.237500X0.250000X-0.237500X0.250000X-0.237500X-0.250000X0*%
%ADD36RoundRect,0.237500X0.300000X0.237500X-0.300000X0.237500X-0.300000X-0.237500X0.300000X-0.237500X0*%
%ADD37RoundRect,0.237500X0.237500X-0.300000X0.237500X0.300000X-0.237500X0.300000X-0.237500X-0.300000X0*%
%ADD38RoundRect,0.250000X-0.337500X-0.475000X0.337500X-0.475000X0.337500X0.475000X-0.337500X0.475000X0*%
%ADD39RoundRect,0.250000X0.412500X1.100000X-0.412500X1.100000X-0.412500X-1.100000X0.412500X-1.100000X0*%
%ADD40RoundRect,0.237500X-0.237500X0.250000X-0.237500X-0.250000X0.237500X-0.250000X0.237500X0.250000X0*%
%ADD41RoundRect,0.225000X0.225000X0.250000X-0.225000X0.250000X-0.225000X-0.250000X0.225000X-0.250000X0*%
%ADD42RoundRect,0.250000X-0.412500X-1.100000X0.412500X-1.100000X0.412500X1.100000X-0.412500X1.100000X0*%
%ADD43RoundRect,0.225000X-0.225000X-0.375000X0.225000X-0.375000X0.225000X0.375000X-0.225000X0.375000X0*%
%ADD44RoundRect,0.237500X-0.237500X0.300000X-0.237500X-0.300000X0.237500X-0.300000X0.237500X0.300000X0*%
%ADD45RoundRect,0.250000X0.475000X-0.337500X0.475000X0.337500X-0.475000X0.337500X-0.475000X-0.337500X0*%
%ADD46FreePoly2,180.000000*%
%ADD47FreePoly3,180.000000*%
%ADD48RoundRect,0.237500X-0.300000X-0.237500X0.300000X-0.237500X0.300000X0.237500X-0.300000X0.237500X0*%
%ADD49R,1.490000X1.450000*%
%ADD50R,1.150000X0.600000*%
%ADD51RoundRect,0.250000X-1.000000X-0.900000X1.000000X-0.900000X1.000000X0.900000X-1.000000X0.900000X0*%
%ADD52R,1.300000X0.600000*%
%ADD53RoundRect,0.250000X0.337500X0.475000X-0.337500X0.475000X-0.337500X-0.475000X0.337500X-0.475000X0*%
%ADD54RoundRect,0.250000X-0.250000X-0.475000X0.250000X-0.475000X0.250000X0.475000X-0.250000X0.475000X0*%
%ADD55RoundRect,0.250000X-0.475000X0.337500X-0.475000X-0.337500X0.475000X-0.337500X0.475000X0.337500X0*%
%ADD56FreePoly2,0.000000*%
%ADD57FreePoly3,0.000000*%
%ADD58R,1.970000X1.670000*%
%ADD59RoundRect,0.112500X0.187500X0.112500X-0.187500X0.112500X-0.187500X-0.112500X0.187500X-0.112500X0*%
%ADD60RoundRect,0.250000X0.475000X-0.250000X0.475000X0.250000X-0.475000X0.250000X-0.475000X-0.250000X0*%
G04 APERTURE END LIST*
%TO.C,JP2*%
G36*
X175228108Y-90635335D02*
G01*
X175528108Y-90635335D01*
X175528108Y-92135335D01*
X175228108Y-92135335D01*
X175228108Y-90635335D01*
G37*
%TO.C,JP5*%
G36*
X158558108Y-60335335D02*
G01*
X158858108Y-60335335D01*
X158858108Y-61835335D01*
X158558108Y-61835335D01*
X158558108Y-60335335D01*
G37*
%TO.C,JP3*%
G36*
X175225000Y-93375000D02*
G01*
X175525000Y-93375000D01*
X175525000Y-94875000D01*
X175225000Y-94875000D01*
X175225000Y-93375000D01*
G37*
%TO.C,JP4*%
G36*
X159250000Y-118550000D02*
G01*
X159550000Y-118550000D01*
X159550000Y-120050000D01*
X159250000Y-120050000D01*
X159250000Y-118550000D01*
G37*
%TD*%
D10*
%TO.C,PS1*%
X155675000Y-57335335D03*
D11*
X158215000Y-57335335D03*
X160755000Y-57335335D03*
X163295000Y-57335335D03*
%TD*%
D12*
%TO.C,J16*%
X162500000Y-127240000D03*
D13*
X162500000Y-124700000D03*
X165040000Y-127240000D03*
X165040000Y-124700000D03*
X167580000Y-127240000D03*
X167580000Y-124700000D03*
X170120000Y-127240000D03*
X170120000Y-124700000D03*
X172660000Y-127240000D03*
X172660000Y-124700000D03*
X175200000Y-127240000D03*
X175200000Y-124700000D03*
X177740000Y-127240000D03*
X177740000Y-124700000D03*
%TD*%
D14*
%TO.C,F2*%
X109750416Y-63557518D03*
X106350416Y-63557518D03*
X109750416Y-77027518D03*
X106350416Y-77027518D03*
%TD*%
D15*
%TO.C,H3*%
X185000000Y-125000000D03*
D16*
X185000000Y-125000000D03*
%TD*%
D17*
%TO.C,J8*%
X182000000Y-70000000D03*
D18*
X183340000Y-78750000D03*
D13*
X183340000Y-76250000D03*
X183340000Y-73750000D03*
X183340000Y-71250000D03*
X183340000Y-68750000D03*
X183340000Y-66250000D03*
X183340000Y-63750000D03*
X185840000Y-63750000D03*
X185840000Y-66250000D03*
X185840000Y-68750000D03*
X185840000Y-71250000D03*
X185840000Y-73750000D03*
X185840000Y-76250000D03*
X185840000Y-78750000D03*
%TD*%
D17*
%TO.C,J7*%
X181960000Y-91450000D03*
D19*
X183300000Y-97700000D03*
D13*
X183300000Y-95200000D03*
X183300000Y-92700000D03*
X183300000Y-90200000D03*
X183300000Y-87700000D03*
X185800000Y-87700000D03*
X185800000Y-90200000D03*
X185800000Y-92700000D03*
X185800000Y-95200000D03*
X185800000Y-97700000D03*
%TD*%
D12*
%TO.C,J17*%
X153500000Y-101800000D03*
D13*
X153500000Y-104340000D03*
X153500000Y-106880000D03*
%TD*%
D12*
%TO.C,J14*%
X153100000Y-90960000D03*
D13*
X153100000Y-93500000D03*
X153100000Y-96040000D03*
%TD*%
D15*
%TO.C,H1*%
X95000000Y-55000000D03*
D16*
X95000000Y-55000000D03*
%TD*%
D17*
%TO.C,J3*%
X104950000Y-55240000D03*
D20*
X106200000Y-53900000D03*
D21*
X103700000Y-53900000D03*
%TD*%
D12*
%TO.C,J11*%
X110150000Y-126280000D03*
D13*
X110150000Y-123740000D03*
X110150000Y-121200000D03*
X110150000Y-118660000D03*
%TD*%
D17*
%TO.C,J1*%
X133330000Y-55290000D03*
D22*
X137080000Y-53950000D03*
D21*
X134580000Y-53950000D03*
X132080000Y-53950000D03*
X129580000Y-53950000D03*
%TD*%
D17*
%TO.C,J9*%
X94990000Y-82425000D03*
D23*
X93650000Y-78675000D03*
D24*
X93650000Y-81175000D03*
X93650000Y-83675000D03*
X93650000Y-86175000D03*
%TD*%
D12*
%TO.C,J18*%
X132860000Y-127250000D03*
D13*
X135400000Y-127250000D03*
X137940000Y-127250000D03*
X140480000Y-127250000D03*
%TD*%
D25*
%TO.C,TP2*%
X119000000Y-87700000D03*
%TD*%
D17*
%TO.C,J2*%
X184485000Y-109850000D03*
D26*
X185825000Y-113600000D03*
D24*
X185825000Y-111100000D03*
X185825000Y-108600000D03*
%TD*%
D17*
%TO.C,J5*%
X151550000Y-125390000D03*
D27*
X150300000Y-126730000D03*
D21*
X152800000Y-126730000D03*
%TD*%
D25*
%TO.C,TP1*%
X106500000Y-83500000D03*
%TD*%
%TO.C,TP4*%
X114250000Y-87700000D03*
%TD*%
D12*
%TO.C,JP1*%
X139835000Y-103725000D03*
D13*
X139835000Y-106265000D03*
%TD*%
D28*
%TO.C,TP_3.3V1*%
X130048000Y-85250000D03*
%TD*%
D25*
%TO.C,TP3*%
X124000000Y-87700000D03*
%TD*%
D14*
%TO.C,F1*%
X147950000Y-63512921D03*
X144550000Y-63512921D03*
X147950000Y-76982921D03*
X144550000Y-76982921D03*
%TD*%
D15*
%TO.C,H4*%
X185000000Y-55000000D03*
D16*
X185000000Y-55000000D03*
%TD*%
D29*
%TO.C,J19*%
X120030000Y-124220000D03*
X125810000Y-124220000D03*
D30*
X118600000Y-123720000D03*
X127240000Y-123720000D03*
D31*
X127240000Y-127900000D03*
X118600000Y-127900000D03*
%TD*%
D15*
%TO.C,H2*%
X95000000Y-125000000D03*
D16*
X95000000Y-125000000D03*
%TD*%
D12*
%TO.C,J15*%
X153500000Y-68960000D03*
D13*
X153500000Y-71500000D03*
X153500000Y-74040000D03*
X153500000Y-76580000D03*
%TD*%
D12*
%TO.C,J13*%
X98160000Y-88100000D03*
D13*
X100700000Y-88100000D03*
X103240000Y-88100000D03*
X105780000Y-88100000D03*
X108320000Y-88100000D03*
%TD*%
D17*
%TO.C,J6*%
X95000000Y-66825000D03*
D23*
X93660000Y-63075000D03*
D24*
X93660000Y-65575000D03*
X93660000Y-68075000D03*
X93660000Y-70575000D03*
%TD*%
D17*
%TO.C,J4*%
X117800000Y-57750000D03*
D32*
X121550000Y-56410000D03*
D13*
X119050000Y-56410000D03*
X116550000Y-56410000D03*
X116550000Y-53910000D03*
X119050000Y-53910000D03*
X121550000Y-53910000D03*
%TD*%
D33*
%TO.C,R34*%
X140212500Y-90400000D03*
X138387500Y-90400000D03*
%TD*%
D34*
%TO.C,R27*%
X145320000Y-92510000D03*
X147145000Y-92510000D03*
%TD*%
D33*
%TO.C,R70*%
X176637500Y-66025000D03*
X174812500Y-66025000D03*
%TD*%
D35*
%TO.C,R56*%
X163900000Y-74812500D03*
X163900000Y-72987500D03*
%TD*%
D34*
%TO.C,R16*%
X100737500Y-115150000D03*
X102562500Y-115150000D03*
%TD*%
D36*
%TO.C,C1*%
X136750000Y-61000000D03*
X135025000Y-61000000D03*
%TD*%
D33*
%TO.C,R73*%
X162362500Y-78450000D03*
X160537500Y-78450000D03*
%TD*%
%TO.C,R23*%
X102925000Y-108950000D03*
X101100000Y-108950000D03*
%TD*%
D37*
%TO.C,C48*%
X158850000Y-81900000D03*
X158850000Y-80175000D03*
%TD*%
D36*
%TO.C,C54*%
X160450000Y-55685335D03*
X158725000Y-55685335D03*
%TD*%
D38*
%TO.C,C5*%
X128500000Y-60800000D03*
X130575000Y-60800000D03*
%TD*%
D34*
%TO.C,R69*%
X174825000Y-64475000D03*
X176650000Y-64475000D03*
%TD*%
D39*
%TO.C,C11*%
X118812500Y-77500000D03*
X115687500Y-77500000D03*
%TD*%
D40*
%TO.C,R60*%
X170153108Y-69216548D03*
X170153108Y-71041548D03*
%TD*%
D37*
%TO.C,C34*%
X117075000Y-107062499D03*
X117075000Y-105337499D03*
%TD*%
D40*
%TO.C,R15*%
X135235000Y-102723500D03*
X135235000Y-104548500D03*
%TD*%
D33*
%TO.C,R24*%
X149812500Y-124720000D03*
X147987500Y-124720000D03*
%TD*%
D41*
%TO.C,C10*%
X119412916Y-69000000D03*
X117862916Y-69000000D03*
%TD*%
D42*
%TO.C,C12*%
X120687500Y-77500000D03*
X123812500Y-77500000D03*
%TD*%
D43*
%TO.C,D32*%
X121950000Y-120900000D03*
X125250000Y-120900000D03*
%TD*%
D44*
%TO.C,C52*%
X163950000Y-88525000D03*
X163950000Y-90250000D03*
%TD*%
D33*
%TO.C,R64*%
X176625000Y-68350000D03*
X174800000Y-68350000D03*
%TD*%
D45*
%TO.C,C13*%
X113562500Y-80494966D03*
X113562500Y-78419966D03*
%TD*%
D36*
%TO.C,C7*%
X128475000Y-69100000D03*
X126750000Y-69100000D03*
%TD*%
D46*
%TO.C,JP2*%
X176028108Y-91385335D03*
D47*
X174728108Y-91385335D03*
%TD*%
D48*
%TO.C,C47*%
X161950000Y-118780000D03*
X163675000Y-118780000D03*
%TD*%
D34*
%TO.C,R72*%
X160537500Y-80000000D03*
X162362500Y-80000000D03*
%TD*%
D35*
%TO.C,R66*%
X172150000Y-94212500D03*
X172150000Y-92387500D03*
%TD*%
D44*
%TO.C,C44*%
X159000000Y-65400000D03*
X159000000Y-67125000D03*
%TD*%
D49*
%TO.C,D22*%
X98000000Y-64650000D03*
X98000000Y-69000000D03*
%TD*%
D34*
%TO.C,R1*%
X184000000Y-106700000D03*
X185825000Y-106700000D03*
%TD*%
D33*
%TO.C,R32*%
X140250000Y-96390000D03*
X138425000Y-96390000D03*
%TD*%
D35*
%TO.C,R2*%
X114700000Y-55962500D03*
X114700000Y-54137500D03*
%TD*%
D34*
%TO.C,R26*%
X118325000Y-118950000D03*
X120150000Y-118950000D03*
%TD*%
D33*
%TO.C,R35*%
X147145000Y-105720000D03*
X145320000Y-105720000D03*
%TD*%
%TO.C,R37*%
X147145000Y-111990000D03*
X145320000Y-111990000D03*
%TD*%
D50*
%TO.C,Q8*%
X176719974Y-71820000D03*
X176719974Y-69900000D03*
X178919974Y-70860000D03*
%TD*%
D40*
%TO.C,R58*%
X163950000Y-94887500D03*
X163950000Y-96712500D03*
%TD*%
D48*
%TO.C,C15*%
X127807500Y-77150000D03*
X129532500Y-77150000D03*
%TD*%
D37*
%TO.C,C29*%
X115575000Y-107362500D03*
X115575000Y-105637500D03*
%TD*%
D51*
%TO.C,D1*%
X130687500Y-64200000D03*
X134987500Y-64200000D03*
%TD*%
D36*
%TO.C,C39*%
X94812500Y-93300000D03*
X93087500Y-93300000D03*
%TD*%
D34*
%TO.C,R29*%
X145280000Y-86726666D03*
X147105000Y-86726666D03*
%TD*%
D40*
%TO.C,R19*%
X114037501Y-93437499D03*
X114037501Y-95262499D03*
%TD*%
D33*
%TO.C,R71*%
X181562500Y-61350000D03*
X179737500Y-61350000D03*
%TD*%
D36*
%TO.C,C56*%
X163900000Y-55685335D03*
X162175000Y-55685335D03*
%TD*%
D34*
%TO.C,R4*%
X183837500Y-81500000D03*
X185662500Y-81500000D03*
%TD*%
D33*
%TO.C,R39*%
X104948978Y-92955000D03*
X103123978Y-92955000D03*
%TD*%
D44*
%TO.C,C58*%
X116850000Y-124787500D03*
X116850000Y-126512500D03*
%TD*%
D34*
%TO.C,R44*%
X94537500Y-74000000D03*
X96362500Y-74000000D03*
%TD*%
D44*
%TO.C,C14*%
X126100000Y-77375000D03*
X126100000Y-79100000D03*
%TD*%
D35*
%TO.C,R59*%
X170550000Y-90697835D03*
X170550000Y-88872835D03*
%TD*%
D48*
%TO.C,C30*%
X100787500Y-116700000D03*
X102512500Y-116700000D03*
%TD*%
D52*
%TO.C,Q9*%
X178650000Y-66325000D03*
X178650000Y-64425000D03*
X180750000Y-65375000D03*
%TD*%
D48*
%TO.C,C28*%
X129037500Y-100200000D03*
X130762500Y-100200000D03*
%TD*%
D34*
%TO.C,R28*%
X145280000Y-89763333D03*
X147105000Y-89763333D03*
%TD*%
D36*
%TO.C,C6*%
X128475000Y-67500000D03*
X126750000Y-67500000D03*
%TD*%
D34*
%TO.C,R30*%
X145320000Y-95655000D03*
X147145000Y-95655000D03*
%TD*%
D53*
%TO.C,C18*%
X136987500Y-77400000D03*
X134912500Y-77400000D03*
%TD*%
D33*
%TO.C,R45*%
X95800000Y-75500000D03*
X93975000Y-75500000D03*
%TD*%
D35*
%TO.C,R63*%
X174475000Y-71762500D03*
X174475000Y-69937500D03*
%TD*%
D33*
%TO.C,R46*%
X96862500Y-77000000D03*
X95037500Y-77000000D03*
%TD*%
D37*
%TO.C,C46*%
X162400000Y-90212500D03*
X162400000Y-88487500D03*
%TD*%
D33*
%TO.C,R62*%
X160325000Y-117180000D03*
X158500000Y-117180000D03*
%TD*%
D40*
%TO.C,R57*%
X164000000Y-83487500D03*
X164000000Y-85312500D03*
%TD*%
D48*
%TO.C,C45*%
X160737500Y-86950000D03*
X162462500Y-86950000D03*
%TD*%
D54*
%TO.C,C59*%
X118560000Y-120920000D03*
X120460000Y-120920000D03*
%TD*%
D36*
%TO.C,C4*%
X137000000Y-71000000D03*
X135275000Y-71000000D03*
%TD*%
D33*
%TO.C,R33*%
X140325000Y-93410000D03*
X138500000Y-93410000D03*
%TD*%
D44*
%TO.C,C38*%
X115100000Y-102237500D03*
X115100000Y-103962500D03*
%TD*%
%TO.C,C49*%
X163900000Y-65375000D03*
X163900000Y-67100000D03*
%TD*%
D33*
%TO.C,R22*%
X127212500Y-103599999D03*
X125387500Y-103599999D03*
%TD*%
D35*
%TO.C,R14*%
X133350000Y-104523500D03*
X133350000Y-102698500D03*
%TD*%
D44*
%TO.C,C51*%
X158800000Y-88525000D03*
X158800000Y-90250000D03*
%TD*%
D33*
%TO.C,R31*%
X140200000Y-87200000D03*
X138375000Y-87200000D03*
%TD*%
D55*
%TO.C,C19*%
X139250000Y-75462500D03*
X139250000Y-77537500D03*
%TD*%
D37*
%TO.C,C37*%
X111550001Y-107062499D03*
X111550001Y-105337499D03*
%TD*%
D56*
%TO.C,JP5*%
X158058108Y-61085335D03*
D57*
X159358108Y-61085335D03*
%TD*%
D44*
%TO.C,C42*%
X158671892Y-108394665D03*
X158671892Y-110119665D03*
%TD*%
D40*
%TO.C,R68*%
X170103108Y-65481548D03*
X170103108Y-67306548D03*
%TD*%
D35*
%TO.C,R75*%
X126070000Y-75772500D03*
X126070000Y-73947500D03*
%TD*%
D33*
%TO.C,R38*%
X147145000Y-114990000D03*
X145320000Y-114990000D03*
%TD*%
D36*
%TO.C,C53*%
X159560608Y-58985335D03*
X157835608Y-58985335D03*
%TD*%
D38*
%TO.C,C20*%
X135712500Y-117100000D03*
X137787500Y-117100000D03*
%TD*%
D58*
%TO.C,D2*%
X139412500Y-68500000D03*
X135362500Y-68500000D03*
%TD*%
D48*
%TO.C,C21*%
X135925000Y-115200000D03*
X137650000Y-115200000D03*
%TD*%
D33*
%TO.C,R74*%
X147325000Y-81500000D03*
X145500000Y-81500000D03*
%TD*%
D40*
%TO.C,R53*%
X170203108Y-76591548D03*
X170203108Y-78416548D03*
%TD*%
D34*
%TO.C,R25*%
X134630000Y-81910000D03*
X136455000Y-81910000D03*
%TD*%
D40*
%TO.C,R61*%
X170550000Y-92185335D03*
X170550000Y-94010335D03*
%TD*%
%TO.C,R54*%
X170103108Y-80341548D03*
X170103108Y-82166548D03*
%TD*%
%TO.C,R20*%
X115587501Y-93449999D03*
X115587501Y-95274999D03*
%TD*%
D36*
%TO.C,C57*%
X163887500Y-54135335D03*
X162162500Y-54135335D03*
%TD*%
D35*
%TO.C,R76*%
X125500000Y-72412500D03*
X125500000Y-70587500D03*
%TD*%
D40*
%TO.C,R49*%
X158900000Y-71487500D03*
X158900000Y-73312500D03*
%TD*%
D33*
%TO.C,R41*%
X94837500Y-94850000D03*
X93012500Y-94850000D03*
%TD*%
D37*
%TO.C,C23*%
X137200000Y-104461000D03*
X137200000Y-102736000D03*
%TD*%
D33*
%TO.C,R36*%
X147145000Y-108900000D03*
X145320000Y-108900000D03*
%TD*%
D40*
%TO.C,R50*%
X158850000Y-83537500D03*
X158850000Y-85362500D03*
%TD*%
D59*
%TO.C,D5*%
X97050000Y-112300000D03*
X94950000Y-112300000D03*
%TD*%
D44*
%TO.C,C43*%
X163921892Y-108382165D03*
X163921892Y-110107165D03*
%TD*%
D46*
%TO.C,JP3*%
X176025000Y-94125000D03*
D47*
X174725000Y-94125000D03*
%TD*%
D40*
%TO.C,R51*%
X158700000Y-94887500D03*
X158700000Y-96712500D03*
%TD*%
D60*
%TO.C,C26*%
X122900000Y-112750000D03*
X122900000Y-110850000D03*
%TD*%
D49*
%TO.C,D23*%
X98000000Y-80000000D03*
X98000000Y-84350000D03*
%TD*%
D33*
%TO.C,R3*%
X183812500Y-99700000D03*
X181987500Y-99700000D03*
%TD*%
D56*
%TO.C,JP4*%
X158750000Y-119300000D03*
D57*
X160050000Y-119300000D03*
%TD*%
D48*
%TO.C,C22*%
X135925000Y-113600000D03*
X137650000Y-113600000D03*
%TD*%
D40*
%TO.C,R21*%
X117137501Y-93449999D03*
X117137501Y-95274999D03*
%TD*%
D37*
%TO.C,C50*%
X164000000Y-81850000D03*
X164000000Y-80125000D03*
%TD*%
D36*
%TO.C,C55*%
X157050000Y-55685335D03*
X155325000Y-55685335D03*
%TD*%
D40*
%TO.C,R55*%
X170203108Y-83941548D03*
X170203108Y-85766548D03*
%TD*%
D35*
%TO.C,R67*%
X172350000Y-90800000D03*
X172350000Y-88975000D03*
%TD*%
D34*
%TO.C,R65*%
X161900000Y-117180000D03*
X163725000Y-117180000D03*
%TD*%
D40*
%TO.C,R52*%
X170185608Y-72844048D03*
X170185608Y-74669048D03*
%TD*%
M02*
