%TF.GenerationSoftware,KiCad,Pcbnew,10.0.5*%
%TF.CreationDate,2026-09-23T02:57:17-05:00*%
%TF.ProjectId,VehicleControlUnit,56656869-636c-4654-936f-6e74726f6c55,rev?*%
%TF.SameCoordinates,Original*%
%TF.FileFunction,Soldermask,Top*%
%TF.FilePolarity,Negative*%
%FSLAX46Y46*%
G04 Gerber Fmt 4.6, Leading zero omitted, Abs format (unit mm)*
G04 Created by KiCad (PCBNEW 10.0.5) date 2026-09-23 02:57:17*
%MOMM*%
%LPD*%
G01*
G04 APERTURE LIST*
G04 Aperture macros list*
%AMRoundRect*
0 Rectangle with rounded corners*
0 $1 Rounding radius*
0 $2 $3 $4 $5 $6 $7 $8 $9 X,Y pos of 4 corners*
0 Add a 4 corners polygon primitive as box body*
4,1,4,$2,$3,$4,$5,$6,$7,$8,$9,$2,$3,0*
0 Add four circle primitives for the rounded corners*
1,1,$1+$1,$2,$3*
1,1,$1+$1,$4,$5*
1,1,$1+$1,$6,$7*
1,1,$1+$1,$8,$9*
0 Add four rect primitives between the rounded corners*
20,1,$1+$1,$2,$3,$4,$5,0*
20,1,$1+$1,$4,$5,$6,$7,0*
20,1,$1+$1,$6,$7,$8,$9,0*
20,1,$1+$1,$8,$9,$2,$3,0*%
%AMFreePoly0*
4,1,22,0.945671,0.830970,1.026777,0.776777,1.080970,0.695671,1.100000,0.600000,1.100000,-0.600000,1.080970,-0.695671,1.026777,-0.776777,0.945671,-0.830970,0.850000,-0.850000,-0.850000,-0.850000,-0.945671,-0.830970,-1.026777,-0.776777,-1.080970,-0.695671,-1.100000,-0.600000,-1.100000,0.200000,-1.080970,0.295671,-1.026777,0.376777,-0.626777,0.776777,-0.545671,0.830970,-0.450000,0.850000,
0.850000,0.850000,0.945671,0.830970,0.945671,0.830970,$1*%
%AMFreePoly1*
4,1,9,2.975000,-2.350000,1.425000,-2.350000,1.425000,-2.100000,-1.650000,-2.100000,-1.650000,2.100000,1.425000,2.100000,1.425000,2.350000,2.975000,2.350000,2.975000,-2.350000,2.975000,-2.350000,$1*%
%AMFreePoly2*
4,1,23,0.500000,-0.750000,0.000000,-0.750000,0.000000,-0.745722,-0.065263,-0.745722,-0.191342,-0.711940,-0.304381,-0.646677,-0.396677,-0.554381,-0.461940,-0.441342,-0.495722,-0.315263,-0.495722,-0.250000,-0.500000,-0.250000,-0.500000,0.250000,-0.495722,0.250000,-0.495722,0.315263,-0.461940,0.441342,-0.396677,0.554381,-0.304381,0.646677,-0.191342,0.711940,-0.065263,0.745722,0.000000,0.745722,
0.000000,0.750000,0.500000,0.750000,0.500000,-0.750000,0.500000,-0.750000,$1*%
%AMFreePoly3*
4,1,23,0.000000,0.745722,0.065263,0.745722,0.191342,0.711940,0.304381,0.646677,0.396677,0.554381,0.461940,0.441342,0.495722,0.315263,0.495722,0.250000,0.500000,0.250000,0.500000,-0.250000,0.495722,-0.250000,0.495722,-0.315263,0.461940,-0.441342,0.396677,-0.554381,0.304381,-0.646677,0.191342,-0.711940,0.065263,-0.745722,0.000000,-0.745722,0.000000,-0.750000,-0.500000,-0.750000,
-0.500000,0.750000,0.000000,0.750000,0.000000,0.745722,0.000000,0.745722,$1*%
%AMFreePoly4*
4,1,22,0.945671,0.830970,1.026777,0.776777,1.080970,0.695671,1.100000,0.600000,1.100000,-0.600000,1.080970,-0.695671,1.026777,-0.776777,0.945671,-0.830970,0.850000,-0.850000,-0.850000,-0.850000,-0.945671,-0.830970,-1.026777,-0.776777,-1.080970,-0.695671,-1.100000,-0.600000,-1.100000,0.346447,-1.080970,0.442118,-1.026777,0.523224,-0.773224,0.776777,-0.692118,0.830970,-0.596447,0.850000,
0.850000,0.850000,0.945671,0.830970,0.945671,0.830970,$1*%
G04 Aperture macros list end*
%ADD10C,0.200000*%
%ADD11C,0.150000*%
%ADD12C,0.300000*%
%ADD13C,0.010000*%
%ADD14C,0.000000*%
%ADD15R,1.150000X0.600000*%
%ADD16R,1.950000X0.650000*%
%ADD17RoundRect,0.102000X-0.669000X-0.669000X0.669000X-0.669000X0.669000X0.669000X-0.669000X0.669000X0*%
%ADD18C,1.542000*%
%ADD19RoundRect,0.218750X-0.218750X-0.256250X0.218750X-0.256250X0.218750X0.256250X-0.218750X0.256250X0*%
%ADD20R,1.700000X1.700000*%
%ADD21C,1.700000*%
%ADD22RoundRect,0.237500X0.237500X-0.300000X0.237500X0.300000X-0.237500X0.300000X-0.237500X-0.300000X0*%
%ADD23C,2.400000*%
%ADD24R,1.200000X0.700000*%
%ADD25R,0.800000X1.000000*%
%ADD26R,1.200000X1.000000*%
%ADD27R,2.800000X1.000000*%
%ADD28R,1.900000X1.300000*%
%ADD29C,3.600000*%
%ADD30C,5.600000*%
%ADD31R,0.330000X0.360000*%
%ADD32RoundRect,0.237500X-0.237500X0.250000X-0.237500X-0.250000X0.237500X-0.250000X0.237500X0.250000X0*%
%ADD33RoundRect,0.200000X0.275000X-0.200000X0.275000X0.200000X-0.275000X0.200000X-0.275000X-0.200000X0*%
%ADD34RoundRect,0.237500X-0.300000X-0.237500X0.300000X-0.237500X0.300000X0.237500X-0.300000X0.237500X0*%
%ADD35RoundRect,0.237500X0.237500X-0.250000X0.237500X0.250000X-0.237500X0.250000X-0.237500X-0.250000X0*%
%ADD36RoundRect,0.218750X0.218750X0.256250X-0.218750X0.256250X-0.218750X-0.256250X0.218750X-0.256250X0*%
%ADD37C,1.300000*%
%ADD38RoundRect,0.250000X0.600000X0.600000X-0.600000X0.600000X-0.600000X-0.600000X0.600000X-0.600000X0*%
%ADD39RoundRect,0.218750X-0.256250X0.218750X-0.256250X-0.218750X0.256250X-0.218750X0.256250X0.218750X0*%
%ADD40RoundRect,0.237500X-0.237500X0.300000X-0.237500X-0.300000X0.237500X-0.300000X0.237500X0.300000X0*%
%ADD41RoundRect,0.250000X-0.600000X-0.600000X0.600000X-0.600000X0.600000X0.600000X-0.600000X0.600000X0*%
%ADD42RoundRect,0.218750X0.256250X-0.218750X0.256250X0.218750X-0.256250X0.218750X-0.256250X-0.218750X0*%
%ADD43R,1.300000X0.600000*%
%ADD44RoundRect,0.237500X0.250000X0.237500X-0.250000X0.237500X-0.250000X-0.237500X0.250000X-0.237500X0*%
%ADD45RoundRect,0.237500X0.300000X0.237500X-0.300000X0.237500X-0.300000X-0.237500X0.300000X-0.237500X0*%
%ADD46FreePoly0,90.000000*%
%ADD47O,1.700000X2.200000*%
%ADD48R,0.400000X0.550000*%
%ADD49R,0.500000X0.700000*%
%ADD50RoundRect,0.250000X0.600000X-0.850000X0.600000X0.850000X-0.600000X0.850000X-0.600000X-0.850000X0*%
%ADD51RoundRect,0.175000X0.400000X-0.175000X0.400000X0.175000X-0.400000X0.175000X-0.400000X-0.175000X0*%
%ADD52FreePoly1,180.000000*%
%ADD53R,0.650000X1.528000*%
%ADD54RoundRect,0.250000X0.850000X0.600000X-0.850000X0.600000X-0.850000X-0.600000X0.850000X-0.600000X0*%
%ADD55O,2.200000X1.700000*%
%ADD56RoundRect,0.200000X-0.275000X0.200000X-0.275000X-0.200000X0.275000X-0.200000X0.275000X0.200000X0*%
%ADD57FreePoly2,270.000000*%
%ADD58FreePoly3,270.000000*%
%ADD59R,9.000000X2.500000*%
%ADD60C,3.000000*%
%ADD61FreePoly4,0.000000*%
%ADD62R,0.600000X1.250000*%
%ADD63R,1.475000X0.450000*%
%ADD64R,1.900000X2.400000*%
%ADD65R,0.750000X1.000000*%
%ADD66FreePoly0,270.000000*%
%ADD67R,0.450000X1.200000*%
%ADD68RoundRect,0.237500X-0.250000X-0.237500X0.250000X-0.237500X0.250000X0.237500X-0.250000X0.237500X0*%
%ADD69RoundRect,0.175000X-0.400000X0.175000X-0.400000X-0.175000X0.400000X-0.175000X0.400000X0.175000X0*%
%ADD70FreePoly1,0.000000*%
%ADD71R,0.350000X0.950000*%
%ADD72R,0.950000X0.350000*%
%ADD73R,2.200000X2.200000*%
%ADD74R,2.500000X1.200000*%
%ADD75C,2.000000*%
%ADD76R,0.304800X1.193800*%
%ADD77R,1.193800X0.304800*%
%ADD78RoundRect,0.375000X0.375000X-0.625000X0.375000X0.625000X-0.375000X0.625000X-0.375000X-0.625000X0*%
%ADD79RoundRect,0.500000X1.400000X-0.500000X1.400000X0.500000X-1.400000X0.500000X-1.400000X-0.500000X0*%
%ADD80C,0.650000*%
%ADD81RoundRect,0.150000X-0.150000X-0.425000X0.150000X-0.425000X0.150000X0.425000X-0.150000X0.425000X0*%
%ADD82RoundRect,0.075000X-0.075000X-0.500000X0.075000X-0.500000X0.075000X0.500000X-0.075000X0.500000X0*%
%ADD83O,1.000000X2.100000*%
%ADD84O,1.000000X1.800000*%
%ADD85RoundRect,0.250000X0.250000X0.250000X-0.250000X0.250000X-0.250000X-0.250000X0.250000X-0.250000X0*%
%ADD86R,0.599999X1.100000*%
%ADD87RoundRect,0.102000X-0.425000X-1.150000X0.425000X-1.150000X0.425000X1.150000X-0.425000X1.150000X0*%
%ADD88RoundRect,0.250000X-0.475000X0.337500X-0.475000X-0.337500X0.475000X-0.337500X0.475000X0.337500X0*%
%ADD89RoundRect,0.250000X0.600000X-0.600000X0.600000X0.600000X-0.600000X0.600000X-0.600000X-0.600000X0*%
%ADD90R,0.990600X2.743200*%
G04 APERTURE END LIST*
D10*
X166321990Y-52292219D02*
X166530324Y-53292219D01*
X166530324Y-53292219D02*
X166988657Y-52292219D01*
X167583895Y-53244600D02*
X167482705Y-53292219D01*
X167482705Y-53292219D02*
X167292228Y-53292219D01*
X167292228Y-53292219D02*
X167202943Y-53244600D01*
X167202943Y-53244600D02*
X167167228Y-53149361D01*
X167167228Y-53149361D02*
X167214848Y-52768409D01*
X167214848Y-52768409D02*
X167274371Y-52673171D01*
X167274371Y-52673171D02*
X167375562Y-52625552D01*
X167375562Y-52625552D02*
X167566038Y-52625552D01*
X167566038Y-52625552D02*
X167655324Y-52673171D01*
X167655324Y-52673171D02*
X167691038Y-52768409D01*
X167691038Y-52768409D02*
X167679133Y-52863647D01*
X167679133Y-52863647D02*
X167191038Y-52958885D01*
X168054133Y-53292219D02*
X168179133Y-52292219D01*
X168482705Y-53292219D02*
X168548181Y-52768409D01*
X168548181Y-52768409D02*
X168512467Y-52673171D01*
X168512467Y-52673171D02*
X168423181Y-52625552D01*
X168423181Y-52625552D02*
X168280324Y-52625552D01*
X168280324Y-52625552D02*
X168179133Y-52673171D01*
X168179133Y-52673171D02*
X168125562Y-52720790D01*
X168958895Y-53292219D02*
X169042229Y-52625552D01*
X169083895Y-52292219D02*
X169030324Y-52339838D01*
X169030324Y-52339838D02*
X169071991Y-52387457D01*
X169071991Y-52387457D02*
X169125562Y-52339838D01*
X169125562Y-52339838D02*
X169083895Y-52292219D01*
X169083895Y-52292219D02*
X169071991Y-52387457D01*
X169869609Y-53244600D02*
X169768419Y-53292219D01*
X169768419Y-53292219D02*
X169577943Y-53292219D01*
X169577943Y-53292219D02*
X169488657Y-53244600D01*
X169488657Y-53244600D02*
X169446990Y-53196980D01*
X169446990Y-53196980D02*
X169411276Y-53101742D01*
X169411276Y-53101742D02*
X169446990Y-52816028D01*
X169446990Y-52816028D02*
X169506514Y-52720790D01*
X169506514Y-52720790D02*
X169560085Y-52673171D01*
X169560085Y-52673171D02*
X169661276Y-52625552D01*
X169661276Y-52625552D02*
X169851752Y-52625552D01*
X169851752Y-52625552D02*
X169941038Y-52673171D01*
X170435086Y-53292219D02*
X170345800Y-53244600D01*
X170345800Y-53244600D02*
X170310086Y-53149361D01*
X170310086Y-53149361D02*
X170417228Y-52292219D01*
X171202943Y-53244600D02*
X171101753Y-53292219D01*
X171101753Y-53292219D02*
X170911276Y-53292219D01*
X170911276Y-53292219D02*
X170821991Y-53244600D01*
X170821991Y-53244600D02*
X170786276Y-53149361D01*
X170786276Y-53149361D02*
X170833896Y-52768409D01*
X170833896Y-52768409D02*
X170893419Y-52673171D01*
X170893419Y-52673171D02*
X170994610Y-52625552D01*
X170994610Y-52625552D02*
X171185086Y-52625552D01*
X171185086Y-52625552D02*
X171274372Y-52673171D01*
X171274372Y-52673171D02*
X171310086Y-52768409D01*
X171310086Y-52768409D02*
X171298181Y-52863647D01*
X171298181Y-52863647D02*
X170810086Y-52958885D01*
X173018420Y-53196980D02*
X172964848Y-53244600D01*
X172964848Y-53244600D02*
X172816039Y-53292219D01*
X172816039Y-53292219D02*
X172720801Y-53292219D01*
X172720801Y-53292219D02*
X172583896Y-53244600D01*
X172583896Y-53244600D02*
X172500563Y-53149361D01*
X172500563Y-53149361D02*
X172464848Y-53054123D01*
X172464848Y-53054123D02*
X172441039Y-52863647D01*
X172441039Y-52863647D02*
X172458896Y-52720790D01*
X172458896Y-52720790D02*
X172530324Y-52530314D01*
X172530324Y-52530314D02*
X172589848Y-52435076D01*
X172589848Y-52435076D02*
X172696991Y-52339838D01*
X172696991Y-52339838D02*
X172845801Y-52292219D01*
X172845801Y-52292219D02*
X172941039Y-52292219D01*
X172941039Y-52292219D02*
X173077944Y-52339838D01*
X173077944Y-52339838D02*
X173119610Y-52387457D01*
X173577944Y-53292219D02*
X173488658Y-53244600D01*
X173488658Y-53244600D02*
X173446991Y-53196980D01*
X173446991Y-53196980D02*
X173411277Y-53101742D01*
X173411277Y-53101742D02*
X173446991Y-52816028D01*
X173446991Y-52816028D02*
X173506515Y-52720790D01*
X173506515Y-52720790D02*
X173560086Y-52673171D01*
X173560086Y-52673171D02*
X173661277Y-52625552D01*
X173661277Y-52625552D02*
X173804134Y-52625552D01*
X173804134Y-52625552D02*
X173893420Y-52673171D01*
X173893420Y-52673171D02*
X173935086Y-52720790D01*
X173935086Y-52720790D02*
X173970801Y-52816028D01*
X173970801Y-52816028D02*
X173935086Y-53101742D01*
X173935086Y-53101742D02*
X173875563Y-53196980D01*
X173875563Y-53196980D02*
X173821991Y-53244600D01*
X173821991Y-53244600D02*
X173720801Y-53292219D01*
X173720801Y-53292219D02*
X173577944Y-53292219D01*
X174423182Y-52625552D02*
X174339848Y-53292219D01*
X174411277Y-52720790D02*
X174464848Y-52673171D01*
X174464848Y-52673171D02*
X174566039Y-52625552D01*
X174566039Y-52625552D02*
X174708896Y-52625552D01*
X174708896Y-52625552D02*
X174798182Y-52673171D01*
X174798182Y-52673171D02*
X174833896Y-52768409D01*
X174833896Y-52768409D02*
X174768420Y-53292219D01*
X175185087Y-52625552D02*
X175566039Y-52625552D01*
X175369610Y-52292219D02*
X175262468Y-53149361D01*
X175262468Y-53149361D02*
X175298182Y-53244600D01*
X175298182Y-53244600D02*
X175387468Y-53292219D01*
X175387468Y-53292219D02*
X175482706Y-53292219D01*
X175816039Y-53292219D02*
X175899373Y-52625552D01*
X175875563Y-52816028D02*
X175935087Y-52720790D01*
X175935087Y-52720790D02*
X175988658Y-52673171D01*
X175988658Y-52673171D02*
X176089849Y-52625552D01*
X176089849Y-52625552D02*
X176185087Y-52625552D01*
X176577945Y-53292219D02*
X176488659Y-53244600D01*
X176488659Y-53244600D02*
X176446992Y-53196980D01*
X176446992Y-53196980D02*
X176411278Y-53101742D01*
X176411278Y-53101742D02*
X176446992Y-52816028D01*
X176446992Y-52816028D02*
X176506516Y-52720790D01*
X176506516Y-52720790D02*
X176560087Y-52673171D01*
X176560087Y-52673171D02*
X176661278Y-52625552D01*
X176661278Y-52625552D02*
X176804135Y-52625552D01*
X176804135Y-52625552D02*
X176893421Y-52673171D01*
X176893421Y-52673171D02*
X176935087Y-52720790D01*
X176935087Y-52720790D02*
X176970802Y-52816028D01*
X176970802Y-52816028D02*
X176935087Y-53101742D01*
X176935087Y-53101742D02*
X176875564Y-53196980D01*
X176875564Y-53196980D02*
X176821992Y-53244600D01*
X176821992Y-53244600D02*
X176720802Y-53292219D01*
X176720802Y-53292219D02*
X176577945Y-53292219D01*
X177482707Y-53292219D02*
X177393421Y-53244600D01*
X177393421Y-53244600D02*
X177357707Y-53149361D01*
X177357707Y-53149361D02*
X177464849Y-52292219D01*
X178750564Y-52292219D02*
X178649374Y-53101742D01*
X178649374Y-53101742D02*
X178685088Y-53196980D01*
X178685088Y-53196980D02*
X178726755Y-53244600D01*
X178726755Y-53244600D02*
X178816041Y-53292219D01*
X178816041Y-53292219D02*
X179006517Y-53292219D01*
X179006517Y-53292219D02*
X179107707Y-53244600D01*
X179107707Y-53244600D02*
X179161279Y-53196980D01*
X179161279Y-53196980D02*
X179220802Y-53101742D01*
X179220802Y-53101742D02*
X179321993Y-52292219D01*
X179756517Y-52625552D02*
X179673183Y-53292219D01*
X179744612Y-52720790D02*
X179798183Y-52673171D01*
X179798183Y-52673171D02*
X179899374Y-52625552D01*
X179899374Y-52625552D02*
X180042231Y-52625552D01*
X180042231Y-52625552D02*
X180131517Y-52673171D01*
X180131517Y-52673171D02*
X180167231Y-52768409D01*
X180167231Y-52768409D02*
X180101755Y-53292219D01*
X180577945Y-53292219D02*
X180661279Y-52625552D01*
X180702945Y-52292219D02*
X180649374Y-52339838D01*
X180649374Y-52339838D02*
X180691041Y-52387457D01*
X180691041Y-52387457D02*
X180744612Y-52339838D01*
X180744612Y-52339838D02*
X180702945Y-52292219D01*
X180702945Y-52292219D02*
X180691041Y-52387457D01*
X180994612Y-52625552D02*
X181375564Y-52625552D01*
X181179135Y-52292219D02*
X181071993Y-53149361D01*
X181071993Y-53149361D02*
X181107707Y-53244600D01*
X181107707Y-53244600D02*
X181196993Y-53292219D01*
X181196993Y-53292219D02*
X181292231Y-53292219D01*
D11*
X177126362Y-55042956D02*
X176921005Y-54685813D01*
X176697791Y-55042956D02*
X176791541Y-54292956D01*
X176791541Y-54292956D02*
X177077255Y-54292956D01*
X177077255Y-54292956D02*
X177144219Y-54328670D01*
X177144219Y-54328670D02*
X177175469Y-54364384D01*
X177175469Y-54364384D02*
X177202255Y-54435813D01*
X177202255Y-54435813D02*
X177188862Y-54542956D01*
X177188862Y-54542956D02*
X177144219Y-54614384D01*
X177144219Y-54614384D02*
X177104041Y-54650099D01*
X177104041Y-54650099D02*
X177028148Y-54685813D01*
X177028148Y-54685813D02*
X176742434Y-54685813D01*
X177496898Y-54650099D02*
X177746898Y-54650099D01*
X177804934Y-55042956D02*
X177447791Y-55042956D01*
X177447791Y-55042956D02*
X177541541Y-54292956D01*
X177541541Y-54292956D02*
X177898684Y-54292956D01*
X178112969Y-54292956D02*
X178269219Y-55042956D01*
X178269219Y-55042956D02*
X178612969Y-54292956D01*
X178778147Y-54971527D02*
X178809397Y-55007242D01*
X178809397Y-55007242D02*
X178769219Y-55042956D01*
X178769219Y-55042956D02*
X178737969Y-55007242D01*
X178737969Y-55007242D02*
X178778147Y-54971527D01*
X178778147Y-54971527D02*
X178769219Y-55042956D01*
X179688862Y-54828670D02*
X180046005Y-54828670D01*
X179590648Y-55042956D02*
X179934398Y-54292956D01*
X179934398Y-54292956D02*
X180090648Y-55042956D01*
X177090648Y-56250414D02*
X176662076Y-56250414D01*
X176876362Y-56250414D02*
X176970112Y-55500414D01*
X176970112Y-55500414D02*
X176885291Y-55607557D01*
X176885291Y-55607557D02*
X176804934Y-55678985D01*
X176804934Y-55678985D02*
X176729041Y-55714700D01*
X178090649Y-56250414D02*
X178023684Y-56214700D01*
X178023684Y-56214700D02*
X177992434Y-56178985D01*
X177992434Y-56178985D02*
X177965649Y-56107557D01*
X177965649Y-56107557D02*
X177992434Y-55893271D01*
X177992434Y-55893271D02*
X178037077Y-55821842D01*
X178037077Y-55821842D02*
X178077256Y-55786128D01*
X178077256Y-55786128D02*
X178153149Y-55750414D01*
X178153149Y-55750414D02*
X178260291Y-55750414D01*
X178260291Y-55750414D02*
X178327256Y-55786128D01*
X178327256Y-55786128D02*
X178358506Y-55821842D01*
X178358506Y-55821842D02*
X178385291Y-55893271D01*
X178385291Y-55893271D02*
X178358506Y-56107557D01*
X178358506Y-56107557D02*
X178313863Y-56178985D01*
X178313863Y-56178985D02*
X178273684Y-56214700D01*
X178273684Y-56214700D02*
X178197791Y-56250414D01*
X178197791Y-56250414D02*
X178090649Y-56250414D01*
X178617434Y-55750414D02*
X178903148Y-55750414D01*
X178662077Y-56250414D02*
X178742434Y-55607557D01*
X178742434Y-55607557D02*
X178787077Y-55536128D01*
X178787077Y-55536128D02*
X178862970Y-55500414D01*
X178862970Y-55500414D02*
X178934398Y-55500414D01*
X180054934Y-56250414D02*
X179626362Y-56250414D01*
X179840648Y-56250414D02*
X179934398Y-55500414D01*
X179934398Y-55500414D02*
X179849577Y-55607557D01*
X179849577Y-55607557D02*
X179769220Y-55678985D01*
X179769220Y-55678985D02*
X179693327Y-55714700D01*
X166510715Y-55614700D02*
X166617858Y-55650414D01*
X166617858Y-55650414D02*
X166796429Y-55650414D01*
X166796429Y-55650414D02*
X166867858Y-55614700D01*
X166867858Y-55614700D02*
X166903572Y-55578985D01*
X166903572Y-55578985D02*
X166939286Y-55507557D01*
X166939286Y-55507557D02*
X166939286Y-55436128D01*
X166939286Y-55436128D02*
X166903572Y-55364700D01*
X166903572Y-55364700D02*
X166867858Y-55328985D01*
X166867858Y-55328985D02*
X166796429Y-55293271D01*
X166796429Y-55293271D02*
X166653572Y-55257557D01*
X166653572Y-55257557D02*
X166582143Y-55221842D01*
X166582143Y-55221842D02*
X166546429Y-55186128D01*
X166546429Y-55186128D02*
X166510715Y-55114700D01*
X166510715Y-55114700D02*
X166510715Y-55043271D01*
X166510715Y-55043271D02*
X166546429Y-54971842D01*
X166546429Y-54971842D02*
X166582143Y-54936128D01*
X166582143Y-54936128D02*
X166653572Y-54900414D01*
X166653572Y-54900414D02*
X166832143Y-54900414D01*
X166832143Y-54900414D02*
X166939286Y-54936128D01*
X167582144Y-55650414D02*
X167582144Y-55257557D01*
X167582144Y-55257557D02*
X167546429Y-55186128D01*
X167546429Y-55186128D02*
X167475001Y-55150414D01*
X167475001Y-55150414D02*
X167332144Y-55150414D01*
X167332144Y-55150414D02*
X167260715Y-55186128D01*
X167582144Y-55614700D02*
X167510715Y-55650414D01*
X167510715Y-55650414D02*
X167332144Y-55650414D01*
X167332144Y-55650414D02*
X167260715Y-55614700D01*
X167260715Y-55614700D02*
X167225001Y-55543271D01*
X167225001Y-55543271D02*
X167225001Y-55471842D01*
X167225001Y-55471842D02*
X167260715Y-55400414D01*
X167260715Y-55400414D02*
X167332144Y-55364700D01*
X167332144Y-55364700D02*
X167510715Y-55364700D01*
X167510715Y-55364700D02*
X167582144Y-55328985D01*
X167832143Y-55150414D02*
X168117857Y-55150414D01*
X167939286Y-54900414D02*
X167939286Y-55543271D01*
X167939286Y-55543271D02*
X167975000Y-55614700D01*
X167975000Y-55614700D02*
X168046429Y-55650414D01*
X168046429Y-55650414D02*
X168117857Y-55650414D01*
X168367857Y-55650414D02*
X168367857Y-54900414D01*
X168689286Y-55650414D02*
X168689286Y-55257557D01*
X168689286Y-55257557D02*
X168653571Y-55186128D01*
X168653571Y-55186128D02*
X168582143Y-55150414D01*
X168582143Y-55150414D02*
X168475000Y-55150414D01*
X168475000Y-55150414D02*
X168403571Y-55186128D01*
X168403571Y-55186128D02*
X168367857Y-55221842D01*
X168974999Y-55150414D02*
X169153571Y-55650414D01*
X169153571Y-55650414D02*
X169332142Y-55150414D01*
X169617857Y-55650414D02*
X169617857Y-55150414D01*
X169617857Y-54900414D02*
X169582143Y-54936128D01*
X169582143Y-54936128D02*
X169617857Y-54971842D01*
X169617857Y-54971842D02*
X169653571Y-54936128D01*
X169653571Y-54936128D02*
X169617857Y-54900414D01*
X169617857Y-54900414D02*
X169617857Y-54971842D01*
X169975000Y-55650414D02*
X169975000Y-54900414D01*
X170046429Y-55364700D02*
X170260714Y-55650414D01*
X170260714Y-55150414D02*
X169975000Y-55436128D01*
X171296429Y-55293271D02*
X171296429Y-55650414D01*
X171046429Y-54900414D02*
X171296429Y-55293271D01*
X171296429Y-55293271D02*
X171546429Y-54900414D01*
X172082143Y-55614700D02*
X172010715Y-55650414D01*
X172010715Y-55650414D02*
X171867858Y-55650414D01*
X171867858Y-55650414D02*
X171796429Y-55614700D01*
X171796429Y-55614700D02*
X171760715Y-55543271D01*
X171760715Y-55543271D02*
X171760715Y-55257557D01*
X171760715Y-55257557D02*
X171796429Y-55186128D01*
X171796429Y-55186128D02*
X171867858Y-55150414D01*
X171867858Y-55150414D02*
X172010715Y-55150414D01*
X172010715Y-55150414D02*
X172082143Y-55186128D01*
X172082143Y-55186128D02*
X172117858Y-55257557D01*
X172117858Y-55257557D02*
X172117858Y-55328985D01*
X172117858Y-55328985D02*
X171760715Y-55400414D01*
X172760715Y-55614700D02*
X172689286Y-55650414D01*
X172689286Y-55650414D02*
X172546429Y-55650414D01*
X172546429Y-55650414D02*
X172475000Y-55614700D01*
X172475000Y-55614700D02*
X172439286Y-55578985D01*
X172439286Y-55578985D02*
X172403572Y-55507557D01*
X172403572Y-55507557D02*
X172403572Y-55293271D01*
X172403572Y-55293271D02*
X172439286Y-55221842D01*
X172439286Y-55221842D02*
X172475000Y-55186128D01*
X172475000Y-55186128D02*
X172546429Y-55150414D01*
X172546429Y-55150414D02*
X172689286Y-55150414D01*
X172689286Y-55150414D02*
X172760715Y-55186128D01*
X173082143Y-55650414D02*
X173082143Y-54900414D01*
X173403572Y-55650414D02*
X173403572Y-55257557D01*
X173403572Y-55257557D02*
X173367857Y-55186128D01*
X173367857Y-55186128D02*
X173296429Y-55150414D01*
X173296429Y-55150414D02*
X173189286Y-55150414D01*
X173189286Y-55150414D02*
X173117857Y-55186128D01*
X173117857Y-55186128D02*
X173082143Y-55221842D01*
X174082143Y-55150414D02*
X174082143Y-55650414D01*
X173760714Y-55150414D02*
X173760714Y-55543271D01*
X173760714Y-55543271D02*
X173796428Y-55614700D01*
X173796428Y-55614700D02*
X173867857Y-55650414D01*
X173867857Y-55650414D02*
X173975000Y-55650414D01*
X173975000Y-55650414D02*
X174046428Y-55614700D01*
X174046428Y-55614700D02*
X174082143Y-55578985D01*
X174439285Y-55650414D02*
X174439285Y-55150414D01*
X174439285Y-55293271D02*
X174474999Y-55221842D01*
X174474999Y-55221842D02*
X174510714Y-55186128D01*
X174510714Y-55186128D02*
X174582142Y-55150414D01*
X174582142Y-55150414D02*
X174653571Y-55150414D01*
X174903571Y-55650414D02*
X174903571Y-55150414D01*
X174903571Y-54900414D02*
X174867857Y-54936128D01*
X174867857Y-54936128D02*
X174903571Y-54971842D01*
X174903571Y-54971842D02*
X174939285Y-54936128D01*
X174939285Y-54936128D02*
X174903571Y-54900414D01*
X174903571Y-54900414D02*
X174903571Y-54971842D01*
D12*
X148673558Y-119664638D02*
X148673558Y-117664638D01*
X148673558Y-117664638D02*
X149340225Y-119093209D01*
X149340225Y-119093209D02*
X150006891Y-117664638D01*
X150006891Y-117664638D02*
X150006891Y-119664638D01*
X150959272Y-119664638D02*
X150959272Y-118331304D01*
X150959272Y-117664638D02*
X150864034Y-117759876D01*
X150864034Y-117759876D02*
X150959272Y-117855114D01*
X150959272Y-117855114D02*
X151054510Y-117759876D01*
X151054510Y-117759876D02*
X150959272Y-117664638D01*
X150959272Y-117664638D02*
X150959272Y-117855114D01*
X151911653Y-119664638D02*
X151911653Y-117664638D01*
X152102129Y-118902733D02*
X152673558Y-119664638D01*
X152673558Y-118331304D02*
X151911653Y-119093209D01*
X154387844Y-119664638D02*
X154387844Y-118617019D01*
X154387844Y-118617019D02*
X154292606Y-118426542D01*
X154292606Y-118426542D02*
X154102130Y-118331304D01*
X154102130Y-118331304D02*
X153721177Y-118331304D01*
X153721177Y-118331304D02*
X153530701Y-118426542D01*
X154387844Y-119569400D02*
X154197368Y-119664638D01*
X154197368Y-119664638D02*
X153721177Y-119664638D01*
X153721177Y-119664638D02*
X153530701Y-119569400D01*
X153530701Y-119569400D02*
X153435463Y-119378923D01*
X153435463Y-119378923D02*
X153435463Y-119188447D01*
X153435463Y-119188447D02*
X153530701Y-118997971D01*
X153530701Y-118997971D02*
X153721177Y-118902733D01*
X153721177Y-118902733D02*
X154197368Y-118902733D01*
X154197368Y-118902733D02*
X154387844Y-118807495D01*
D13*
%TO.C,U2*%
X126960000Y-73420000D02*
X126960000Y-74180000D01*
X126540000Y-74180000D01*
X126540000Y-73420000D01*
X126960000Y-73420000D01*
G36*
X126960000Y-74180000D02*
G01*
X126540000Y-74180000D01*
X126540000Y-73420000D01*
X126960000Y-73420000D01*
X126960000Y-74180000D01*
G37*
X126960000Y-74890000D02*
X126960000Y-75650000D01*
X126540000Y-75650000D01*
X126540000Y-74890000D01*
X126960000Y-74890000D01*
G36*
X126960000Y-75650000D02*
G01*
X126540000Y-75650000D01*
X126540000Y-74890000D01*
X126960000Y-74890000D01*
X126960000Y-75650000D01*
G37*
X127460000Y-73420000D02*
X127460000Y-74180000D01*
X127040000Y-74180000D01*
X127040000Y-73420000D01*
X127460000Y-73420000D01*
G36*
X127460000Y-74180000D02*
G01*
X127040000Y-74180000D01*
X127040000Y-73420000D01*
X127460000Y-73420000D01*
X127460000Y-74180000D01*
G37*
X127460000Y-74890000D02*
X127460000Y-75650000D01*
X127040000Y-75650000D01*
X127040000Y-74890000D01*
X127460000Y-74890000D01*
G36*
X127460000Y-75650000D02*
G01*
X127040000Y-75650000D01*
X127040000Y-74890000D01*
X127460000Y-74890000D01*
X127460000Y-75650000D01*
G37*
X127960000Y-73420000D02*
X127960000Y-74180000D01*
X127540000Y-74180000D01*
X127540000Y-73420000D01*
X127960000Y-73420000D01*
G36*
X127960000Y-74180000D02*
G01*
X127540000Y-74180000D01*
X127540000Y-73420000D01*
X127960000Y-73420000D01*
X127960000Y-74180000D01*
G37*
X127960000Y-74890000D02*
X127960000Y-75650000D01*
X127540000Y-75650000D01*
X127540000Y-74890000D01*
X127960000Y-74890000D01*
G36*
X127960000Y-75650000D02*
G01*
X127540000Y-75650000D01*
X127540000Y-74890000D01*
X127960000Y-74890000D01*
X127960000Y-75650000D01*
G37*
X128460000Y-73420000D02*
X128460000Y-74180000D01*
X128040000Y-74180000D01*
X128040000Y-73420000D01*
X128460000Y-73420000D01*
G36*
X128460000Y-74180000D02*
G01*
X128040000Y-74180000D01*
X128040000Y-73420000D01*
X128460000Y-73420000D01*
X128460000Y-74180000D01*
G37*
X128460000Y-74890000D02*
X128460000Y-75650000D01*
X128040000Y-75650000D01*
X128040000Y-74890000D01*
X128460000Y-74890000D01*
G36*
X128460000Y-75650000D02*
G01*
X128040000Y-75650000D01*
X128040000Y-74890000D01*
X128460000Y-74890000D01*
X128460000Y-75650000D01*
G37*
D14*
%TO.C,G\u002A\u002A\u002A*%
G36*
X169050794Y-117346905D02*
G01*
X169075993Y-118480833D01*
X170096528Y-118494476D01*
X171117064Y-118508119D01*
X171117064Y-118759059D01*
X171117064Y-119010000D01*
X169780751Y-119010000D01*
X168444438Y-119010000D01*
X168457834Y-117611488D01*
X168471231Y-116212976D01*
X168748413Y-116212976D01*
X169025596Y-116212976D01*
X169050794Y-117346905D01*
G37*
G36*
X181915873Y-116860198D02*
G01*
X181915873Y-117086984D01*
X181134722Y-117086984D01*
X180353571Y-117086984D01*
X180353571Y-117338968D01*
X180353571Y-117590952D01*
X181134722Y-117590952D01*
X181915873Y-117590952D01*
X181915873Y-118296508D01*
X181915873Y-119002063D01*
X180907936Y-119002063D01*
X179900000Y-119002063D01*
X179900000Y-118775278D01*
X179900000Y-118548492D01*
X180681151Y-118548492D01*
X181462301Y-118548492D01*
X181462301Y-118296508D01*
X181462301Y-118044524D01*
X180681151Y-118044524D01*
X179900000Y-118044524D01*
X179900000Y-117338968D01*
X179900000Y-116633413D01*
X180907936Y-116633413D01*
X181915873Y-116633413D01*
X181915873Y-116860198D01*
G37*
G36*
X174926828Y-116196870D02*
G01*
X175123612Y-116212976D01*
X175137008Y-117611488D01*
X175150404Y-119010000D01*
X174823678Y-119010000D01*
X174496952Y-119010000D01*
X174482703Y-118443036D01*
X174468453Y-117876071D01*
X173373982Y-117862494D01*
X172279510Y-117848916D01*
X172265251Y-118416859D01*
X172250993Y-118984801D01*
X171935211Y-118999826D01*
X171619429Y-119014851D01*
X171632830Y-117613914D01*
X171646231Y-116212976D01*
X171902691Y-116198025D01*
X172101790Y-116202861D01*
X172210363Y-116245420D01*
X172215728Y-116251244D01*
X172241275Y-116328573D01*
X172264051Y-116481243D01*
X172280876Y-116683801D01*
X172286847Y-116820561D01*
X172301389Y-117321706D01*
X173384921Y-117321706D01*
X174468453Y-117321706D01*
X174482752Y-116780474D01*
X174492061Y-116522555D01*
X174511771Y-116349779D01*
X174553781Y-116246509D01*
X174629990Y-116197105D01*
X174752298Y-116185930D01*
X174926828Y-116196870D01*
G37*
G36*
X177156389Y-116192880D02*
G01*
X177479517Y-116196724D01*
X177947725Y-116205193D01*
X178325655Y-116217869D01*
X178623823Y-116238856D01*
X178852744Y-116272257D01*
X179022934Y-116322178D01*
X179144908Y-116392721D01*
X179229182Y-116487992D01*
X179286272Y-116612094D01*
X179326693Y-116769132D01*
X179355352Y-116928856D01*
X179365781Y-117131314D01*
X179342188Y-117353805D01*
X179291695Y-117562348D01*
X179221422Y-117722966D01*
X179177371Y-117778160D01*
X179113130Y-117844076D01*
X179113297Y-117896382D01*
X179180288Y-117976572D01*
X179189499Y-117986385D01*
X179245563Y-118061351D01*
X179282230Y-118158775D01*
X179305316Y-118303634D01*
X179320634Y-118520905D01*
X179322438Y-118557429D01*
X179344076Y-119010000D01*
X179010332Y-119010000D01*
X178676588Y-119010000D01*
X178676588Y-118714415D01*
X178664342Y-118507713D01*
X178621898Y-118364351D01*
X178572136Y-118286042D01*
X178467685Y-118153254D01*
X177513803Y-118153254D01*
X176559921Y-118153254D01*
X176559921Y-118581627D01*
X176559921Y-119010000D01*
X176232342Y-119010000D01*
X175904762Y-119010000D01*
X175904762Y-117625047D01*
X175904762Y-117162116D01*
X175904762Y-116742143D01*
X176559921Y-116742143D01*
X176559921Y-117162116D01*
X176564188Y-117359653D01*
X176575542Y-117517374D01*
X176591816Y-117609012D01*
X176597719Y-117620099D01*
X176657819Y-117631199D01*
X176802244Y-117639204D01*
X177014564Y-117643761D01*
X177278345Y-117644519D01*
X177577158Y-117641126D01*
X177578719Y-117641098D01*
X177915482Y-117634007D01*
X178165965Y-117625610D01*
X178344681Y-117614404D01*
X178466141Y-117598885D01*
X178544859Y-117577551D01*
X178595349Y-117548897D01*
X178611853Y-117534093D01*
X178677195Y-117415962D01*
X178701407Y-117224497D01*
X178701786Y-117189462D01*
X178691791Y-117020129D01*
X178653410Y-116913196D01*
X178582810Y-116838484D01*
X178532720Y-116804546D01*
X178468423Y-116779601D01*
X178374814Y-116762287D01*
X178236788Y-116751247D01*
X178039240Y-116745123D01*
X177767064Y-116742554D01*
X177511878Y-116742143D01*
X176559921Y-116742143D01*
X175904762Y-116742143D01*
X175904762Y-116240095D01*
X176030608Y-116208509D01*
X176113764Y-116200726D01*
X176282805Y-116195150D01*
X176522847Y-116191903D01*
X176819004Y-116191106D01*
X177156389Y-116192880D01*
G37*
D13*
%TO.C,D6*%
X114762501Y-94475091D02*
X114762501Y-93874999D01*
X116362748Y-93874999D01*
X116362748Y-94475091D01*
X114762501Y-94475091D01*
G36*
X116362748Y-94475091D02*
G01*
X114762501Y-94475091D01*
X114762501Y-93874999D01*
X116362748Y-93874999D01*
X116362748Y-94475091D01*
G37*
%TO.C,JP6*%
G36*
X141450000Y-54050000D02*
G01*
X142950000Y-54050000D01*
X142950000Y-54350000D01*
X141450000Y-54350000D01*
X141450000Y-54050000D01*
G37*
%TD*%
D15*
%TO.C,CR1*%
X111150000Y-99100000D03*
X111150000Y-98150000D03*
X111150000Y-97200000D03*
X108550000Y-97200000D03*
X108550000Y-98150000D03*
X108550000Y-99100000D03*
%TD*%
D16*
%TO.C,IC5*%
X156603108Y-76779048D03*
X156603108Y-78049048D03*
X156603108Y-79319048D03*
X156603108Y-80589048D03*
X156603108Y-81859048D03*
X156603108Y-83129048D03*
X156603108Y-84399048D03*
X156603108Y-85669048D03*
X166053108Y-85669048D03*
X166053108Y-84399048D03*
X166053108Y-83129048D03*
X166053108Y-81859048D03*
X166053108Y-80589048D03*
X166053108Y-79319048D03*
X166053108Y-78049048D03*
X166053108Y-76779048D03*
%TD*%
D17*
%TO.C,PS1*%
X155675000Y-57335335D03*
D18*
X158215000Y-57335335D03*
X160755000Y-57335335D03*
X163295000Y-57335335D03*
%TD*%
D19*
%TO.C,D12*%
X145425000Y-87000000D03*
X147000000Y-87000000D03*
%TD*%
D20*
%TO.C,J16*%
X162500000Y-127240000D03*
D21*
X162500000Y-124700000D03*
X165040000Y-127240000D03*
X165040000Y-124700000D03*
X167580000Y-127240000D03*
X167580000Y-124700000D03*
X170120000Y-127240000D03*
X170120000Y-124700000D03*
X172660000Y-127240000D03*
X172660000Y-124700000D03*
X175200000Y-127240000D03*
X175200000Y-124700000D03*
X177740000Y-127240000D03*
X177740000Y-124700000D03*
%TD*%
D22*
%TO.C,C32*%
X110000001Y-107062499D03*
X110000001Y-105337499D03*
%TD*%
D23*
%TO.C,F2*%
X109750416Y-63557518D03*
X106350416Y-63557518D03*
X109750416Y-77027518D03*
X106350416Y-77027518D03*
%TD*%
D24*
%TO.C,J12*%
X106600000Y-101100000D03*
X106600000Y-100000000D03*
X106600000Y-98900000D03*
X106600000Y-97800000D03*
X106600000Y-96700000D03*
X106600000Y-95600000D03*
X106600000Y-94500000D03*
X106600000Y-93400000D03*
X106600000Y-92450000D03*
D25*
X96100000Y-91500000D03*
D26*
X102300000Y-91500000D03*
D27*
X91950000Y-91500000D03*
D26*
X106600000Y-102650000D03*
D28*
X91500000Y-105000000D03*
%TD*%
D19*
%TO.C,D10*%
X145465000Y-92710000D03*
X147040000Y-92710000D03*
%TD*%
D29*
%TO.C,H3*%
X185000000Y-125000000D03*
D30*
X185000000Y-125000000D03*
%TD*%
D31*
%TO.C,D33*%
X123270000Y-120520000D03*
X122570000Y-120520000D03*
X122920000Y-121680000D03*
%TD*%
D32*
%TO.C,R13*%
X129550000Y-73587500D03*
X129550000Y-75412500D03*
%TD*%
D33*
%TO.C,R11*%
X122842916Y-71025000D03*
X122842916Y-69375000D03*
%TD*%
D34*
%TO.C,C24*%
X122387500Y-93400001D03*
X124112500Y-93400001D03*
%TD*%
D35*
%TO.C,R7*%
X130125000Y-70862500D03*
X130125000Y-69037500D03*
%TD*%
D36*
%TO.C,D19*%
X147000000Y-108690000D03*
X145425000Y-108690000D03*
%TD*%
D15*
%TO.C,Q10*%
X170203108Y-65419048D03*
X170203108Y-67339048D03*
X172403108Y-66379048D03*
%TD*%
D37*
%TO.C,J8*%
X182000000Y-70000000D03*
D38*
X183340000Y-78750000D03*
D21*
X183340000Y-76250000D03*
X183340000Y-73750000D03*
X183340000Y-71250000D03*
X183340000Y-68750000D03*
X183340000Y-66250000D03*
X183340000Y-63750000D03*
X185840000Y-63750000D03*
X185840000Y-66250000D03*
X185840000Y-68750000D03*
X185840000Y-71250000D03*
X185840000Y-73750000D03*
X185840000Y-76250000D03*
X185840000Y-78750000D03*
%TD*%
D39*
%TO.C,D30*%
X179650000Y-63112500D03*
X179650000Y-64687500D03*
%TD*%
D40*
%TO.C,C33*%
X128737501Y-115399999D03*
X128737501Y-117124999D03*
%TD*%
D37*
%TO.C,J7*%
X181960000Y-91450000D03*
D41*
X183300000Y-97700000D03*
D21*
X183300000Y-95200000D03*
X183300000Y-92700000D03*
X183300000Y-90200000D03*
X183300000Y-87700000D03*
X185800000Y-87700000D03*
X185800000Y-90200000D03*
X185800000Y-92700000D03*
X185800000Y-95200000D03*
X185800000Y-97700000D03*
%TD*%
D32*
%TO.C,R78*%
X121420000Y-119407500D03*
X121420000Y-121232500D03*
%TD*%
D42*
%TO.C,D25*%
X174203108Y-78191548D03*
X174203108Y-76616548D03*
%TD*%
D43*
%TO.C,Q7*%
X170253108Y-69129048D03*
X170253108Y-71029048D03*
X172353108Y-70079048D03*
%TD*%
D36*
%TO.C,D31*%
X147087482Y-81445416D03*
X145512482Y-81445416D03*
%TD*%
D32*
%TO.C,R77*%
X116850000Y-124807500D03*
X116850000Y-126632500D03*
%TD*%
D44*
%TO.C,R6*%
X137037500Y-67550000D03*
X135212500Y-67550000D03*
%TD*%
D35*
%TO.C,R5*%
X138625000Y-69362500D03*
X138625000Y-67537500D03*
%TD*%
%TO.C,R48*%
X99750000Y-81125000D03*
X99750000Y-79300000D03*
%TD*%
D20*
%TO.C,J17*%
X153500000Y-101800000D03*
D21*
X153500000Y-104340000D03*
X153500000Y-106880000D03*
%TD*%
D36*
%TO.C,D16*%
X139980000Y-93275000D03*
X138405000Y-93275000D03*
%TD*%
D22*
%TO.C,FB2*%
X111550001Y-110462499D03*
X111550001Y-108737499D03*
%TD*%
D20*
%TO.C,J14*%
X153100000Y-90960000D03*
D21*
X153100000Y-93500000D03*
X153100000Y-96040000D03*
%TD*%
D19*
%TO.C,D13*%
X145465000Y-95710000D03*
X147040000Y-95710000D03*
%TD*%
D36*
%TO.C,D18*%
X147000000Y-105680000D03*
X145425000Y-105680000D03*
%TD*%
D16*
%TO.C,IC7*%
X156550000Y-108380000D03*
X156550000Y-109650000D03*
X156550000Y-110920000D03*
X156550000Y-112190000D03*
X156550000Y-113460000D03*
X156550000Y-114730000D03*
X156550000Y-116000000D03*
X156550000Y-117270000D03*
X166000000Y-117270000D03*
X166000000Y-116000000D03*
X166000000Y-114730000D03*
X166000000Y-113460000D03*
X166000000Y-112190000D03*
X166000000Y-110920000D03*
X166000000Y-109650000D03*
X166000000Y-108380000D03*
%TD*%
D36*
%TO.C,D7*%
X102762500Y-109000000D03*
X101187500Y-109000000D03*
%TD*%
D19*
%TO.C,D11*%
X145425000Y-90000000D03*
X147000000Y-90000000D03*
%TD*%
D29*
%TO.C,H1*%
X95000000Y-55000000D03*
D30*
X95000000Y-55000000D03*
%TD*%
D45*
%TO.C,C25*%
X120800000Y-93400001D03*
X119075000Y-93400001D03*
%TD*%
%TO.C,C35*%
X115562500Y-97400000D03*
X113837500Y-97400000D03*
%TD*%
D37*
%TO.C,J3*%
X104950000Y-55240000D03*
D46*
X106200000Y-53900000D03*
D47*
X103700000Y-53900000D03*
%TD*%
D48*
%TO.C,D6*%
X114837501Y-94849999D03*
X114837501Y-93499999D03*
D49*
X115562501Y-94924999D03*
X115562501Y-93424999D03*
D48*
X116287501Y-94849999D03*
X116287501Y-93499999D03*
%TD*%
D20*
%TO.C,J11*%
X110150000Y-126280000D03*
D21*
X110150000Y-123740000D03*
X110150000Y-121200000D03*
X110150000Y-118660000D03*
%TD*%
D37*
%TO.C,J1*%
X133330000Y-55290000D03*
D50*
X137080000Y-53950000D03*
D47*
X134580000Y-53950000D03*
X132080000Y-53950000D03*
X129580000Y-53950000D03*
%TD*%
D51*
%TO.C,Q2*%
X131875000Y-65850000D03*
X131875000Y-64580000D03*
X131875000Y-63300000D03*
X131875000Y-62030000D03*
D52*
X128605000Y-63940000D03*
%TD*%
D40*
%TO.C,C17*%
X128000000Y-76887500D03*
X128000000Y-78612500D03*
%TD*%
D53*
%TO.C,IC2*%
X133330000Y-111822000D03*
X134600000Y-111822000D03*
X135870000Y-111822000D03*
X137140000Y-111822000D03*
X137140000Y-106400000D03*
X135870000Y-106400000D03*
X134600000Y-106400000D03*
X133330000Y-106400000D03*
%TD*%
D40*
%TO.C,C36*%
X111600001Y-112174999D03*
X111600001Y-113899999D03*
%TD*%
D43*
%TO.C,Q4*%
X170203108Y-76529048D03*
X170203108Y-78429048D03*
X172303108Y-77479048D03*
%TD*%
D22*
%TO.C,FB1*%
X111550001Y-103662499D03*
X111550001Y-101937499D03*
%TD*%
D37*
%TO.C,J9*%
X94990000Y-82425000D03*
D54*
X93650000Y-78675000D03*
D55*
X93650000Y-81175000D03*
X93650000Y-83675000D03*
X93650000Y-86175000D03*
%TD*%
D16*
%TO.C,IC6*%
X156603108Y-88440335D03*
X156603108Y-89710335D03*
X156603108Y-90980335D03*
X156603108Y-92250335D03*
X156603108Y-93520335D03*
X156603108Y-94790335D03*
X156603108Y-96060335D03*
X156603108Y-97330335D03*
X166053108Y-97330335D03*
X166053108Y-96060335D03*
X166053108Y-94790335D03*
X166053108Y-93520335D03*
X166053108Y-92250335D03*
X166053108Y-90980335D03*
X166053108Y-89710335D03*
X166053108Y-88440335D03*
%TD*%
D32*
%TO.C,R10*%
X126750000Y-67504982D03*
X126750000Y-69329982D03*
%TD*%
D56*
%TO.C,R12*%
X121262916Y-69405000D03*
X121262916Y-71055000D03*
%TD*%
D57*
%TO.C,JP6*%
X142200000Y-53550000D03*
D58*
X142200000Y-54850000D03*
%TD*%
D32*
%TO.C,R17*%
X131900001Y-114487499D03*
X131900001Y-116312499D03*
%TD*%
D20*
%TO.C,J18*%
X132860000Y-127250000D03*
D21*
X135400000Y-127250000D03*
X137940000Y-127250000D03*
X140480000Y-127250000D03*
%TD*%
D16*
%TO.C,IC4*%
X156603108Y-65579048D03*
X156603108Y-66849048D03*
X156603108Y-68119048D03*
X156603108Y-69389048D03*
X156603108Y-70659048D03*
X156603108Y-71929048D03*
X156603108Y-73199048D03*
X156603108Y-74469048D03*
X166053108Y-74469048D03*
X166053108Y-73199048D03*
X166053108Y-71929048D03*
X166053108Y-70659048D03*
X166053108Y-69389048D03*
X166053108Y-68119048D03*
X166053108Y-66849048D03*
X166053108Y-65579048D03*
%TD*%
D59*
%TO.C,L1*%
X119162916Y-74100000D03*
X119162916Y-80500000D03*
%TD*%
D42*
%TO.C,D27*%
X174003108Y-85729048D03*
X174003108Y-84154048D03*
%TD*%
D60*
%TO.C,TP2*%
X119000000Y-87700000D03*
%TD*%
D36*
%TO.C,D15*%
X139980000Y-96390000D03*
X138405000Y-96390000D03*
%TD*%
D37*
%TO.C,J2*%
X184485000Y-109850000D03*
D61*
X185825000Y-113600000D03*
D55*
X185825000Y-111100000D03*
X185825000Y-108600000D03*
%TD*%
D62*
%TO.C,D4*%
X134335000Y-104411000D03*
X136235000Y-104411000D03*
X135285000Y-102411000D03*
%TD*%
D34*
%TO.C,C31*%
X125712500Y-97399999D03*
X127437500Y-97399999D03*
%TD*%
D63*
%TO.C,U5*%
X168615108Y-90567835D03*
X168615108Y-91217835D03*
X168615108Y-91867835D03*
X168615108Y-92517835D03*
X168615108Y-93167835D03*
X168615108Y-93817835D03*
X168615108Y-94467835D03*
X174491108Y-94467835D03*
X174491108Y-93817835D03*
X174491108Y-93167835D03*
X174491108Y-92517835D03*
X174491108Y-91867835D03*
X174491108Y-91217835D03*
X174491108Y-90567835D03*
%TD*%
D64*
%TO.C,Y1*%
X119550000Y-96100001D03*
X123650000Y-96100001D03*
%TD*%
D44*
%TO.C,R8*%
X130137500Y-67500000D03*
X128312500Y-67500000D03*
%TD*%
D35*
%TO.C,R47*%
X101250000Y-81125000D03*
X101250000Y-79300000D03*
%TD*%
D43*
%TO.C,Q3*%
X170203108Y-72829048D03*
X170203108Y-74729048D03*
X172303108Y-73779048D03*
%TD*%
D42*
%TO.C,D29*%
X174103108Y-67166548D03*
X174103108Y-65591548D03*
%TD*%
D65*
%TO.C,Reset1*%
X101900000Y-111450000D03*
X101900000Y-115950000D03*
X104050000Y-111450000D03*
X104050000Y-115950000D03*
%TD*%
D37*
%TO.C,J5*%
X151550000Y-125390000D03*
D66*
X150300000Y-126730000D03*
D47*
X152800000Y-126730000D03*
%TD*%
D60*
%TO.C,TP1*%
X106500000Y-83500000D03*
%TD*%
D67*
%TO.C,IC1*%
X131675000Y-70100000D03*
X132325000Y-70100000D03*
X132975000Y-70100000D03*
X133625000Y-70100000D03*
X133625000Y-67600000D03*
X132975000Y-67600000D03*
X132325000Y-67600000D03*
X131675000Y-67600000D03*
%TD*%
D60*
%TO.C,TP4*%
X114250000Y-87700000D03*
%TD*%
D19*
%TO.C,D8*%
X134712500Y-81950000D03*
X136287500Y-81950000D03*
%TD*%
%TO.C,D9*%
X118407500Y-119070000D03*
X119982500Y-119070000D03*
%TD*%
D42*
%TO.C,D26*%
X174003108Y-82054048D03*
X174003108Y-80479048D03*
%TD*%
D20*
%TO.C,JP1*%
X139835000Y-103725000D03*
D21*
X139835000Y-106265000D03*
%TD*%
D68*
%TO.C,R43*%
X100612500Y-71000000D03*
X102437500Y-71000000D03*
%TD*%
D69*
%TO.C,Q1*%
X133620000Y-62068297D03*
X133620000Y-63338297D03*
X133620000Y-64618297D03*
X133620000Y-65888297D03*
D70*
X136890000Y-63978297D03*
%TD*%
D40*
%TO.C,C3*%
X135325000Y-69187500D03*
X135325000Y-70912500D03*
%TD*%
D36*
%TO.C,D17*%
X139980000Y-90160000D03*
X138405000Y-90160000D03*
%TD*%
D22*
%TO.C,C27*%
X111600001Y-107062499D03*
X111600001Y-105337499D03*
%TD*%
D36*
%TO.C,D14*%
X139980000Y-87045000D03*
X138405000Y-87045000D03*
%TD*%
D71*
%TO.C,IC3*%
X101575000Y-74000000D03*
X100925000Y-74000000D03*
X100275000Y-74000000D03*
X99625000Y-74000000D03*
D72*
X98700000Y-74925000D03*
X98700000Y-75575000D03*
X98700000Y-76225000D03*
X98700000Y-76875000D03*
D71*
X99625000Y-77800000D03*
X100275000Y-77800000D03*
X100925000Y-77800000D03*
X101575000Y-77800000D03*
D72*
X102500000Y-76875000D03*
X102500000Y-76225000D03*
X102500000Y-75575000D03*
X102500000Y-74925000D03*
D73*
X100600000Y-75900000D03*
%TD*%
D74*
%TO.C,SW1*%
X97850000Y-114850000D03*
X92350000Y-112350000D03*
X97850000Y-109850000D03*
%TD*%
D75*
%TO.C,TP_3.3V1*%
X130048000Y-85250000D03*
%TD*%
D60*
%TO.C,TP3*%
X124000000Y-87700000D03*
%TD*%
D76*
%TO.C,U4*%
X127350002Y-99350000D03*
X126850000Y-99350000D03*
X126350001Y-99350000D03*
X125850002Y-99350000D03*
X125350001Y-99350000D03*
X124850002Y-99350000D03*
X124350000Y-99350000D03*
X123850001Y-99350000D03*
X123350002Y-99350000D03*
X122850001Y-99350000D03*
X122350002Y-99350000D03*
X121850003Y-99350000D03*
X121350001Y-99350000D03*
X120850002Y-99350000D03*
X120350000Y-99350000D03*
X119850001Y-99350000D03*
X119350002Y-99350000D03*
X118850001Y-99350000D03*
X118350002Y-99350000D03*
X117850000Y-99350000D03*
X117350001Y-99350000D03*
X116850002Y-99350000D03*
X116350001Y-99350000D03*
X115850002Y-99350000D03*
X115350000Y-99350000D03*
D77*
X113600001Y-101099999D03*
X113600001Y-101600001D03*
X113600001Y-102100000D03*
X113600001Y-102599999D03*
X113600001Y-103100000D03*
X113600001Y-103599999D03*
X113600001Y-104100001D03*
X113600001Y-104600000D03*
X113600001Y-105099999D03*
X113600001Y-105600000D03*
X113600001Y-106099999D03*
X113600001Y-106600001D03*
X113600001Y-107100000D03*
X113600001Y-107599999D03*
X113600001Y-108100001D03*
X113600001Y-108600000D03*
X113600001Y-109100001D03*
X113600001Y-109600000D03*
X113600001Y-110099999D03*
X113600001Y-110600001D03*
X113600001Y-111100000D03*
X113600001Y-111600001D03*
X113600001Y-112100000D03*
X113600001Y-112599999D03*
X113600001Y-113100001D03*
D76*
X115350000Y-114850000D03*
X115850002Y-114850000D03*
X116350001Y-114850000D03*
X116850000Y-114850000D03*
X117350001Y-114850000D03*
X117850000Y-114850000D03*
X118350002Y-114850000D03*
X118850001Y-114850000D03*
X119350000Y-114850000D03*
X119850001Y-114850000D03*
X120350000Y-114850000D03*
X120850002Y-114850000D03*
X121350001Y-114850000D03*
X121850000Y-114850000D03*
X122350002Y-114850000D03*
X122850001Y-114850000D03*
X123350002Y-114850000D03*
X123850001Y-114850000D03*
X124350000Y-114850000D03*
X124850002Y-114850000D03*
X125350001Y-114850000D03*
X125850002Y-114850000D03*
X126350001Y-114850000D03*
X126850000Y-114850000D03*
X127350002Y-114850000D03*
D77*
X129100001Y-113100001D03*
X129100001Y-112599999D03*
X129100001Y-112100000D03*
X129100001Y-111600001D03*
X129100001Y-111100000D03*
X129100001Y-110600001D03*
X129100001Y-110099999D03*
X129100001Y-109600000D03*
X129100001Y-109100001D03*
X129100001Y-108600000D03*
X129100001Y-108100001D03*
X129100001Y-107599999D03*
X129100001Y-107100000D03*
X129100001Y-106600001D03*
X129100001Y-106099999D03*
X129100001Y-105600000D03*
X129100001Y-105099999D03*
X129100001Y-104600000D03*
X129100001Y-104100001D03*
X129100001Y-103599999D03*
X129100001Y-103100000D03*
X129100001Y-102599999D03*
X129100001Y-102100000D03*
X129100001Y-101600001D03*
X129100001Y-101099999D03*
%TD*%
D68*
%TO.C,R42*%
X100625000Y-72500000D03*
X102450000Y-72500000D03*
%TD*%
D42*
%TO.C,D28*%
X174153108Y-71187500D03*
X174153108Y-69612500D03*
%TD*%
D23*
%TO.C,F1*%
X147950000Y-63512921D03*
X144550000Y-63512921D03*
X147950000Y-76982921D03*
X144550000Y-76982921D03*
%TD*%
D78*
%TO.C,U3*%
X134650000Y-79750000D03*
X136950000Y-79750000D03*
D79*
X136950000Y-73450000D03*
D78*
X139250000Y-79750000D03*
%TD*%
D22*
%TO.C,C2*%
X137025000Y-70912500D03*
X137025000Y-69187500D03*
%TD*%
D68*
%TO.C,R40*%
X108597500Y-95500000D03*
X110422500Y-95500000D03*
%TD*%
D40*
%TO.C,C9*%
X116400000Y-68837500D03*
X116400000Y-70562500D03*
%TD*%
D45*
%TO.C,C41*%
X99000000Y-71000000D03*
X97275000Y-71000000D03*
%TD*%
D29*
%TO.C,H4*%
X185000000Y-55000000D03*
D30*
X185000000Y-55000000D03*
%TD*%
D80*
%TO.C,J19*%
X120030000Y-124220000D03*
X125810000Y-124220000D03*
D81*
X119720000Y-123145000D03*
X120520000Y-123145000D03*
D82*
X121670000Y-123145000D03*
X122670000Y-123145000D03*
X123170000Y-123145000D03*
X124170000Y-123145000D03*
D81*
X125320000Y-123145000D03*
X126120000Y-123145000D03*
X126120000Y-123145000D03*
X125320000Y-123145000D03*
D82*
X124670000Y-123145000D03*
X123670000Y-123145000D03*
X122170000Y-123145000D03*
X121170000Y-123145000D03*
D81*
X120520000Y-123145000D03*
X119720000Y-123145000D03*
D83*
X118600000Y-123720000D03*
X127240000Y-123720000D03*
D84*
X127240000Y-127900000D03*
X118600000Y-127900000D03*
%TD*%
D36*
%TO.C,D21*%
X147000000Y-114710000D03*
X145425000Y-114710000D03*
%TD*%
%TO.C,D20*%
X147000000Y-111700000D03*
X145425000Y-111700000D03*
%TD*%
D34*
%TO.C,C16*%
X126307500Y-72460000D03*
X128032500Y-72460000D03*
%TD*%
D32*
%TO.C,R79*%
X124410000Y-119407500D03*
X124410000Y-121232500D03*
%TD*%
D35*
%TO.C,R9*%
X128375000Y-70912500D03*
X128375000Y-69087500D03*
%TD*%
D85*
%TO.C,D3*%
X132000000Y-77250000D03*
X129500000Y-77250000D03*
%TD*%
D42*
%TO.C,D24*%
X174085608Y-74531548D03*
X174085608Y-72956548D03*
%TD*%
D86*
%TO.C,U1*%
X120112917Y-68300000D03*
X119162916Y-68300000D03*
X118212915Y-68300000D03*
X118212915Y-70999984D03*
X119162916Y-70999984D03*
X120112917Y-70999984D03*
%TD*%
D43*
%TO.C,Q6*%
X170203108Y-83979048D03*
X170203108Y-85879048D03*
X172303108Y-84929048D03*
%TD*%
D29*
%TO.C,H2*%
X95000000Y-125000000D03*
D30*
X95000000Y-125000000D03*
%TD*%
D87*
%TO.C,L2*%
X157753108Y-61185335D03*
X159703108Y-61185335D03*
%TD*%
D20*
%TO.C,J15*%
X153500000Y-68960000D03*
D21*
X153500000Y-71500000D03*
X153500000Y-74040000D03*
X153500000Y-76580000D03*
%TD*%
D20*
%TO.C,J13*%
X98160000Y-88100000D03*
D21*
X100700000Y-88100000D03*
X103240000Y-88100000D03*
X105780000Y-88100000D03*
X108320000Y-88100000D03*
%TD*%
D43*
%TO.C,Q5*%
X170203108Y-80279048D03*
X170203108Y-82179048D03*
X172303108Y-81229048D03*
%TD*%
D32*
%TO.C,R18*%
X130300001Y-114474999D03*
X130300001Y-116299999D03*
%TD*%
D37*
%TO.C,J6*%
X95000000Y-66825000D03*
D54*
X93660000Y-63075000D03*
D55*
X93660000Y-65575000D03*
X93660000Y-68075000D03*
X93660000Y-70575000D03*
%TD*%
D88*
%TO.C,C8*%
X114100000Y-68662500D03*
X114100000Y-70737500D03*
%TD*%
D37*
%TO.C,J4*%
X117800000Y-57750000D03*
D89*
X121550000Y-56410000D03*
D21*
X119050000Y-56410000D03*
X116550000Y-56410000D03*
X116550000Y-53910000D03*
X119050000Y-53910000D03*
X121550000Y-53910000D03*
%TD*%
D45*
%TO.C,C40*%
X99000000Y-72500000D03*
X97275000Y-72500000D03*
%TD*%
D90*
%TO.C,J10*%
X103060399Y-124554999D03*
X103060399Y-120305000D03*
X105060401Y-124554999D03*
X105060401Y-120305000D03*
%TD*%
M02*
