%TF.GenerationSoftware,KiCad,Pcbnew,10.0.5*%
%TF.CreationDate,2026-09-23T01:57:49-05:00*%
%TF.ProjectId,VehicleControlUnit,56656869-636c-4654-936f-6e74726f6c55,rev?*%
%TF.SameCoordinates,Original*%
%TF.FileFunction,Paste,Top*%
%TF.FilePolarity,Positive*%
%FSLAX46Y46*%
G04 Gerber Fmt 4.6, Leading zero omitted, Abs format (unit mm)*
G04 Created by KiCad (PCBNEW 10.0.5) date 2026-09-23 01:57:49*
%MOMM*%
%LPD*%
G01*
G04 APERTURE LIST*
G04 Aperture macros list*
%AMRoundRect*
0 Rectangle with rounded corners*
0 $1 Rounding radius*
0 $2 $3 $4 $5 $6 $7 $8 $9 X,Y pos of 4 corners*
0 Add a 4 corners polygon primitive as box body*
4,1,4,$2,$3,$4,$5,$6,$7,$8,$9,$2,$3,0*
0 Add four circle primitives for the rounded corners*
1,1,$1+$1,$2,$3*
1,1,$1+$1,$4,$5*
1,1,$1+$1,$6,$7*
1,1,$1+$1,$8,$9*
0 Add four rect primitives between the rounded corners*
20,1,$1+$1,$2,$3,$4,$5,0*
20,1,$1+$1,$4,$5,$6,$7,0*
20,1,$1+$1,$6,$7,$8,$9,0*
20,1,$1+$1,$8,$9,$2,$3,0*%
G04 Aperture macros list end*
%ADD10R,1.150000X0.600000*%
%ADD11R,1.950000X0.650000*%
%ADD12RoundRect,0.218750X-0.218750X-0.256250X0.218750X-0.256250X0.218750X0.256250X-0.218750X0.256250X0*%
%ADD13RoundRect,0.237500X0.237500X-0.300000X0.237500X0.300000X-0.237500X0.300000X-0.237500X-0.300000X0*%
%ADD14R,1.200000X0.700000*%
%ADD15R,0.800000X1.000000*%
%ADD16R,1.200000X1.000000*%
%ADD17R,2.800000X1.000000*%
%ADD18R,1.900000X1.300000*%
%ADD19R,0.330000X0.360000*%
%ADD20RoundRect,0.237500X-0.237500X0.250000X-0.237500X-0.250000X0.237500X-0.250000X0.237500X0.250000X0*%
%ADD21RoundRect,0.200000X0.275000X-0.200000X0.275000X0.200000X-0.275000X0.200000X-0.275000X-0.200000X0*%
%ADD22RoundRect,0.237500X-0.300000X-0.237500X0.300000X-0.237500X0.300000X0.237500X-0.300000X0.237500X0*%
%ADD23RoundRect,0.237500X0.237500X-0.250000X0.237500X0.250000X-0.237500X0.250000X-0.237500X-0.250000X0*%
%ADD24RoundRect,0.218750X0.218750X0.256250X-0.218750X0.256250X-0.218750X-0.256250X0.218750X-0.256250X0*%
%ADD25R,0.320000X0.660000*%
%ADD26RoundRect,0.218750X-0.256250X0.218750X-0.256250X-0.218750X0.256250X-0.218750X0.256250X0.218750X0*%
%ADD27RoundRect,0.237500X-0.237500X0.300000X-0.237500X-0.300000X0.237500X-0.300000X0.237500X0.300000X0*%
%ADD28RoundRect,0.218750X0.256250X-0.218750X0.256250X0.218750X-0.256250X0.218750X-0.256250X-0.218750X0*%
%ADD29R,1.300000X0.600000*%
%ADD30RoundRect,0.237500X0.250000X0.237500X-0.250000X0.237500X-0.250000X-0.237500X0.250000X-0.237500X0*%
%ADD31RoundRect,0.237500X0.300000X0.237500X-0.300000X0.237500X-0.300000X-0.237500X0.300000X-0.237500X0*%
%ADD32R,0.400000X0.550000*%
%ADD33R,0.500000X0.700000*%
%ADD34RoundRect,0.150000X0.150000X0.300000X-0.150000X0.300000X-0.150000X-0.300000X0.150000X-0.300000X0*%
%ADD35RoundRect,0.150000X0.300000X-0.150000X0.300000X0.150000X-0.300000X0.150000X-0.300000X-0.150000X0*%
%ADD36RoundRect,0.125000X0.400000X-0.175000X0.400000X0.175000X-0.400000X0.175000X-0.400000X-0.175000X0*%
%ADD37R,0.650000X1.528000*%
%ADD38RoundRect,0.200000X-0.275000X0.200000X-0.275000X-0.200000X0.275000X-0.200000X0.275000X0.200000X0*%
%ADD39R,9.000000X2.500000*%
%ADD40R,0.600000X1.250000*%
%ADD41R,1.475000X0.450000*%
%ADD42R,1.900000X2.400000*%
%ADD43R,0.750000X1.000000*%
%ADD44R,0.450000X1.200000*%
%ADD45RoundRect,0.237500X-0.250000X-0.237500X0.250000X-0.237500X0.250000X0.237500X-0.250000X0.237500X0*%
%ADD46RoundRect,0.150000X-0.150000X-0.300000X0.150000X-0.300000X0.150000X0.300000X-0.150000X0.300000X0*%
%ADD47RoundRect,0.150000X-0.300000X0.150000X-0.300000X-0.150000X0.300000X-0.150000X0.300000X0.150000X0*%
%ADD48RoundRect,0.125000X-0.400000X0.175000X-0.400000X-0.175000X0.400000X-0.175000X0.400000X0.175000X0*%
%ADD49R,0.350000X0.950000*%
%ADD50R,0.950000X0.350000*%
%ADD51R,2.200000X2.200000*%
%ADD52R,2.500000X1.200000*%
%ADD53R,0.304800X1.193800*%
%ADD54R,1.193800X0.304800*%
%ADD55RoundRect,0.375000X0.375000X-0.625000X0.375000X0.625000X-0.375000X0.625000X-0.375000X-0.625000X0*%
%ADD56RoundRect,0.500000X1.400000X-0.500000X1.400000X0.500000X-1.400000X0.500000X-1.400000X-0.500000X0*%
%ADD57RoundRect,0.150000X-0.150000X-0.425000X0.150000X-0.425000X0.150000X0.425000X-0.150000X0.425000X0*%
%ADD58RoundRect,0.075000X-0.075000X-0.500000X0.075000X-0.500000X0.075000X0.500000X-0.075000X0.500000X0*%
%ADD59O,1.000000X2.100000*%
%ADD60O,1.000000X1.800000*%
%ADD61RoundRect,0.250000X0.250000X0.250000X-0.250000X0.250000X-0.250000X-0.250000X0.250000X-0.250000X0*%
%ADD62R,0.599999X1.100000*%
%ADD63R,0.850000X2.300000*%
%ADD64RoundRect,0.250000X-0.475000X0.337500X-0.475000X-0.337500X0.475000X-0.337500X0.475000X0.337500X0*%
%ADD65R,0.990600X2.743200*%
G04 APERTURE END LIST*
D10*
%TO.C,CR1*%
X111150000Y-99100000D03*
X111150000Y-98150000D03*
X111150000Y-97200000D03*
X108550000Y-97200000D03*
X108550000Y-98150000D03*
X108550000Y-99100000D03*
%TD*%
D11*
%TO.C,IC5*%
X156603108Y-76779048D03*
X156603108Y-78049048D03*
X156603108Y-79319048D03*
X156603108Y-80589048D03*
X156603108Y-81859048D03*
X156603108Y-83129048D03*
X156603108Y-84399048D03*
X156603108Y-85669048D03*
X166053108Y-85669048D03*
X166053108Y-84399048D03*
X166053108Y-83129048D03*
X166053108Y-81859048D03*
X166053108Y-80589048D03*
X166053108Y-79319048D03*
X166053108Y-78049048D03*
X166053108Y-76779048D03*
%TD*%
D12*
%TO.C,D12*%
X145425000Y-87000000D03*
X147000000Y-87000000D03*
%TD*%
D13*
%TO.C,C32*%
X110000001Y-107062499D03*
X110000001Y-105337499D03*
%TD*%
D14*
%TO.C,J12*%
X106600000Y-101100000D03*
X106600000Y-100000000D03*
X106600000Y-98900000D03*
X106600000Y-97800000D03*
X106600000Y-96700000D03*
X106600000Y-95600000D03*
X106600000Y-94500000D03*
X106600000Y-93400000D03*
X106600000Y-92450000D03*
D15*
X96100000Y-91500000D03*
D16*
X102300000Y-91500000D03*
D17*
X91950000Y-91500000D03*
D16*
X106600000Y-102650000D03*
D18*
X91500000Y-105000000D03*
%TD*%
D12*
%TO.C,D10*%
X145465000Y-92710000D03*
X147040000Y-92710000D03*
%TD*%
D19*
%TO.C,D33*%
X123270000Y-120520000D03*
X122570000Y-120520000D03*
X122920000Y-121680000D03*
%TD*%
D20*
%TO.C,R13*%
X129550000Y-73587500D03*
X129550000Y-75412500D03*
%TD*%
D21*
%TO.C,R11*%
X122842916Y-71025000D03*
X122842916Y-69375000D03*
%TD*%
D22*
%TO.C,C24*%
X122287501Y-93500000D03*
X124012501Y-93500000D03*
%TD*%
D23*
%TO.C,R7*%
X130125000Y-70862500D03*
X130125000Y-69037500D03*
%TD*%
D24*
%TO.C,D19*%
X147000000Y-108690000D03*
X145425000Y-108690000D03*
%TD*%
D10*
%TO.C,Q10*%
X170203108Y-65419048D03*
X170203108Y-67339048D03*
X172403108Y-66379048D03*
%TD*%
D25*
%TO.C,U2*%
X128250000Y-73800000D03*
X127750000Y-73800000D03*
X127250000Y-73800000D03*
X126750000Y-73800000D03*
X126750000Y-75270000D03*
X127250000Y-75270000D03*
X127750000Y-75270000D03*
X128250000Y-75270000D03*
%TD*%
D26*
%TO.C,D30*%
X179650000Y-63112500D03*
X179650000Y-64687500D03*
%TD*%
D27*
%TO.C,C33*%
X128737501Y-115399999D03*
X128737501Y-117124999D03*
%TD*%
D20*
%TO.C,R78*%
X121420000Y-119407500D03*
X121420000Y-121232500D03*
%TD*%
D28*
%TO.C,D25*%
X174203108Y-78191548D03*
X174203108Y-76616548D03*
%TD*%
D29*
%TO.C,Q7*%
X170253108Y-69129048D03*
X170253108Y-71029048D03*
X172353108Y-70079048D03*
%TD*%
D24*
%TO.C,D31*%
X147087482Y-81445416D03*
X145512482Y-81445416D03*
%TD*%
D20*
%TO.C,R77*%
X116850000Y-124807500D03*
X116850000Y-126632500D03*
%TD*%
D30*
%TO.C,R6*%
X137037500Y-67550000D03*
X135212500Y-67550000D03*
%TD*%
D23*
%TO.C,R5*%
X138625000Y-69362500D03*
X138625000Y-67537500D03*
%TD*%
%TO.C,R48*%
X99750000Y-81125000D03*
X99750000Y-79300000D03*
%TD*%
D24*
%TO.C,D16*%
X139980000Y-93275000D03*
X138405000Y-93275000D03*
%TD*%
D13*
%TO.C,FB2*%
X111550001Y-110462499D03*
X111550001Y-108737499D03*
%TD*%
D12*
%TO.C,D13*%
X145465000Y-95710000D03*
X147040000Y-95710000D03*
%TD*%
D24*
%TO.C,D18*%
X147000000Y-105680000D03*
X145425000Y-105680000D03*
%TD*%
D11*
%TO.C,IC7*%
X156550000Y-108380000D03*
X156550000Y-109650000D03*
X156550000Y-110920000D03*
X156550000Y-112190000D03*
X156550000Y-113460000D03*
X156550000Y-114730000D03*
X156550000Y-116000000D03*
X156550000Y-117270000D03*
X166000000Y-117270000D03*
X166000000Y-116000000D03*
X166000000Y-114730000D03*
X166000000Y-113460000D03*
X166000000Y-112190000D03*
X166000000Y-110920000D03*
X166000000Y-109650000D03*
X166000000Y-108380000D03*
%TD*%
D24*
%TO.C,D7*%
X102762500Y-109000000D03*
X101187500Y-109000000D03*
%TD*%
D12*
%TO.C,D11*%
X145425000Y-90000000D03*
X147000000Y-90000000D03*
%TD*%
D31*
%TO.C,C25*%
X120700001Y-93500000D03*
X118975001Y-93500000D03*
%TD*%
%TO.C,C35*%
X115562500Y-97400000D03*
X113837500Y-97400000D03*
%TD*%
D32*
%TO.C,D6*%
X114837501Y-94849999D03*
X114837501Y-93499999D03*
D33*
X115562501Y-94924999D03*
X115562501Y-93424999D03*
D32*
X116287501Y-94849999D03*
X116287501Y-93499999D03*
%TD*%
D34*
%TO.C,Q2*%
X129705000Y-65090000D03*
X129705000Y-63940000D03*
X129705000Y-62790000D03*
X128855000Y-65090000D03*
X128855000Y-63940000D03*
X128855000Y-62790000D03*
X128005000Y-65090000D03*
X128005000Y-63940000D03*
X128005000Y-62790000D03*
D35*
X126155000Y-65820000D03*
X126155000Y-64540000D03*
X126155000Y-63340000D03*
X126155000Y-62060000D03*
D36*
X131875000Y-65850000D03*
X131875000Y-64580000D03*
X131875000Y-63300000D03*
X131875000Y-62030000D03*
%TD*%
D27*
%TO.C,C17*%
X128000000Y-76887500D03*
X128000000Y-78612500D03*
%TD*%
D37*
%TO.C,IC2*%
X133330000Y-111822000D03*
X134600000Y-111822000D03*
X135870000Y-111822000D03*
X137140000Y-111822000D03*
X137140000Y-106400000D03*
X135870000Y-106400000D03*
X134600000Y-106400000D03*
X133330000Y-106400000D03*
%TD*%
D27*
%TO.C,C36*%
X111600001Y-112174999D03*
X111600001Y-113899999D03*
%TD*%
D29*
%TO.C,Q4*%
X170203108Y-76529048D03*
X170203108Y-78429048D03*
X172303108Y-77479048D03*
%TD*%
D13*
%TO.C,FB1*%
X111550001Y-103662499D03*
X111550001Y-101937499D03*
%TD*%
D11*
%TO.C,IC6*%
X156603108Y-88440335D03*
X156603108Y-89710335D03*
X156603108Y-90980335D03*
X156603108Y-92250335D03*
X156603108Y-93520335D03*
X156603108Y-94790335D03*
X156603108Y-96060335D03*
X156603108Y-97330335D03*
X166053108Y-97330335D03*
X166053108Y-96060335D03*
X166053108Y-94790335D03*
X166053108Y-93520335D03*
X166053108Y-92250335D03*
X166053108Y-90980335D03*
X166053108Y-89710335D03*
X166053108Y-88440335D03*
%TD*%
D20*
%TO.C,R10*%
X126750000Y-67504982D03*
X126750000Y-69329982D03*
%TD*%
D38*
%TO.C,R12*%
X121262916Y-69405000D03*
X121262916Y-71055000D03*
%TD*%
D20*
%TO.C,R17*%
X131900001Y-114487499D03*
X131900001Y-116312499D03*
%TD*%
D11*
%TO.C,IC4*%
X156603108Y-65579048D03*
X156603108Y-66849048D03*
X156603108Y-68119048D03*
X156603108Y-69389048D03*
X156603108Y-70659048D03*
X156603108Y-71929048D03*
X156603108Y-73199048D03*
X156603108Y-74469048D03*
X166053108Y-74469048D03*
X166053108Y-73199048D03*
X166053108Y-71929048D03*
X166053108Y-70659048D03*
X166053108Y-69389048D03*
X166053108Y-68119048D03*
X166053108Y-66849048D03*
X166053108Y-65579048D03*
%TD*%
D39*
%TO.C,L1*%
X119162916Y-74100000D03*
X119162916Y-80500000D03*
%TD*%
D28*
%TO.C,D27*%
X174003108Y-85729048D03*
X174003108Y-84154048D03*
%TD*%
D24*
%TO.C,D15*%
X139980000Y-96390000D03*
X138405000Y-96390000D03*
%TD*%
D40*
%TO.C,D4*%
X134335000Y-104411000D03*
X136235000Y-104411000D03*
X135285000Y-102411000D03*
%TD*%
D22*
%TO.C,C31*%
X125675001Y-97399999D03*
X127400001Y-97399999D03*
%TD*%
D41*
%TO.C,U5*%
X168615108Y-90567835D03*
X168615108Y-91217835D03*
X168615108Y-91867835D03*
X168615108Y-92517835D03*
X168615108Y-93167835D03*
X168615108Y-93817835D03*
X168615108Y-94467835D03*
X174491108Y-94467835D03*
X174491108Y-93817835D03*
X174491108Y-93167835D03*
X174491108Y-92517835D03*
X174491108Y-91867835D03*
X174491108Y-91217835D03*
X174491108Y-90567835D03*
%TD*%
D42*
%TO.C,Y1*%
X119450001Y-96200000D03*
X123550001Y-96200000D03*
%TD*%
D30*
%TO.C,R8*%
X130137500Y-67500000D03*
X128312500Y-67500000D03*
%TD*%
D23*
%TO.C,R47*%
X101250000Y-81125000D03*
X101250000Y-79300000D03*
%TD*%
D29*
%TO.C,Q3*%
X170203108Y-72829048D03*
X170203108Y-74729048D03*
X172303108Y-73779048D03*
%TD*%
D28*
%TO.C,D29*%
X174103108Y-67166548D03*
X174103108Y-65591548D03*
%TD*%
D43*
%TO.C,Reset1*%
X101900000Y-111450000D03*
X101900000Y-115950000D03*
X104050000Y-111450000D03*
X104050000Y-115950000D03*
%TD*%
D44*
%TO.C,IC1*%
X131675000Y-70100000D03*
X132325000Y-70100000D03*
X132975000Y-70100000D03*
X133625000Y-70100000D03*
X133625000Y-67600000D03*
X132975000Y-67600000D03*
X132325000Y-67600000D03*
X131675000Y-67600000D03*
%TD*%
D12*
%TO.C,D8*%
X134712500Y-81950000D03*
X136287500Y-81950000D03*
%TD*%
%TO.C,D9*%
X118407500Y-119070000D03*
X119982500Y-119070000D03*
%TD*%
D28*
%TO.C,D26*%
X174003108Y-82054048D03*
X174003108Y-80479048D03*
%TD*%
D45*
%TO.C,R43*%
X100612500Y-71000000D03*
X102437500Y-71000000D03*
%TD*%
D46*
%TO.C,Q1*%
X135790000Y-62828297D03*
X135790000Y-63978297D03*
X135790000Y-65128297D03*
X136640000Y-62828297D03*
X136640000Y-63978297D03*
X136640000Y-65128297D03*
X137490000Y-62828297D03*
X137490000Y-63978297D03*
X137490000Y-65128297D03*
D47*
X139340000Y-62098297D03*
X139340000Y-63378297D03*
X139340000Y-64578297D03*
X139340000Y-65858297D03*
D48*
X133620000Y-62068297D03*
X133620000Y-63338297D03*
X133620000Y-64618297D03*
X133620000Y-65888297D03*
%TD*%
D27*
%TO.C,C3*%
X135325000Y-69187500D03*
X135325000Y-70912500D03*
%TD*%
D24*
%TO.C,D17*%
X139980000Y-90160000D03*
X138405000Y-90160000D03*
%TD*%
D13*
%TO.C,C27*%
X111600001Y-107062499D03*
X111600001Y-105337499D03*
%TD*%
D24*
%TO.C,D14*%
X139980000Y-87045000D03*
X138405000Y-87045000D03*
%TD*%
D49*
%TO.C,IC3*%
X101575000Y-74000000D03*
X100925000Y-74000000D03*
X100275000Y-74000000D03*
X99625000Y-74000000D03*
D50*
X98700000Y-74925000D03*
X98700000Y-75575000D03*
X98700000Y-76225000D03*
X98700000Y-76875000D03*
D49*
X99625000Y-77800000D03*
X100275000Y-77800000D03*
X100925000Y-77800000D03*
X101575000Y-77800000D03*
D50*
X102500000Y-76875000D03*
X102500000Y-76225000D03*
X102500000Y-75575000D03*
X102500000Y-74925000D03*
D51*
X100600000Y-75900000D03*
%TD*%
D52*
%TO.C,SW1*%
X97850000Y-114850000D03*
X92350000Y-112350000D03*
X97850000Y-109850000D03*
%TD*%
D53*
%TO.C,U4*%
X127350002Y-99350000D03*
X126850000Y-99350000D03*
X126350001Y-99350000D03*
X125850002Y-99350000D03*
X125350001Y-99350000D03*
X124850002Y-99350000D03*
X124350000Y-99350000D03*
X123850001Y-99350000D03*
X123350002Y-99350000D03*
X122850001Y-99350000D03*
X122350002Y-99350000D03*
X121850003Y-99350000D03*
X121350001Y-99350000D03*
X120850002Y-99350000D03*
X120350000Y-99350000D03*
X119850001Y-99350000D03*
X119350002Y-99350000D03*
X118850001Y-99350000D03*
X118350002Y-99350000D03*
X117850000Y-99350000D03*
X117350001Y-99350000D03*
X116850002Y-99350000D03*
X116350001Y-99350000D03*
X115850002Y-99350000D03*
X115350000Y-99350000D03*
D54*
X113600001Y-101099999D03*
X113600001Y-101600001D03*
X113600001Y-102100000D03*
X113600001Y-102599999D03*
X113600001Y-103100000D03*
X113600001Y-103599999D03*
X113600001Y-104100001D03*
X113600001Y-104600000D03*
X113600001Y-105099999D03*
X113600001Y-105600000D03*
X113600001Y-106099999D03*
X113600001Y-106600001D03*
X113600001Y-107100000D03*
X113600001Y-107599999D03*
X113600001Y-108100001D03*
X113600001Y-108600000D03*
X113600001Y-109100001D03*
X113600001Y-109600000D03*
X113600001Y-110099999D03*
X113600001Y-110600001D03*
X113600001Y-111100000D03*
X113600001Y-111600001D03*
X113600001Y-112100000D03*
X113600001Y-112599999D03*
X113600001Y-113100001D03*
D53*
X115350000Y-114850000D03*
X115850002Y-114850000D03*
X116350001Y-114850000D03*
X116850000Y-114850000D03*
X117350001Y-114850000D03*
X117850000Y-114850000D03*
X118350002Y-114850000D03*
X118850001Y-114850000D03*
X119350000Y-114850000D03*
X119850001Y-114850000D03*
X120350000Y-114850000D03*
X120850002Y-114850000D03*
X121350001Y-114850000D03*
X121850000Y-114850000D03*
X122350002Y-114850000D03*
X122850001Y-114850000D03*
X123350002Y-114850000D03*
X123850001Y-114850000D03*
X124350000Y-114850000D03*
X124850002Y-114850000D03*
X125350001Y-114850000D03*
X125850002Y-114850000D03*
X126350001Y-114850000D03*
X126850000Y-114850000D03*
X127350002Y-114850000D03*
D54*
X129100001Y-113100001D03*
X129100001Y-112599999D03*
X129100001Y-112100000D03*
X129100001Y-111600001D03*
X129100001Y-111100000D03*
X129100001Y-110600001D03*
X129100001Y-110099999D03*
X129100001Y-109600000D03*
X129100001Y-109100001D03*
X129100001Y-108600000D03*
X129100001Y-108100001D03*
X129100001Y-107599999D03*
X129100001Y-107100000D03*
X129100001Y-106600001D03*
X129100001Y-106099999D03*
X129100001Y-105600000D03*
X129100001Y-105099999D03*
X129100001Y-104600000D03*
X129100001Y-104100001D03*
X129100001Y-103599999D03*
X129100001Y-103100000D03*
X129100001Y-102599999D03*
X129100001Y-102100000D03*
X129100001Y-101600001D03*
X129100001Y-101099999D03*
%TD*%
D45*
%TO.C,R42*%
X100625000Y-72500000D03*
X102450000Y-72500000D03*
%TD*%
D28*
%TO.C,D28*%
X174153108Y-71187500D03*
X174153108Y-69612500D03*
%TD*%
D55*
%TO.C,U3*%
X134650000Y-79750000D03*
X136950000Y-79750000D03*
D56*
X136950000Y-73450000D03*
D55*
X139250000Y-79750000D03*
%TD*%
D13*
%TO.C,C2*%
X137025000Y-70912500D03*
X137025000Y-69187500D03*
%TD*%
D45*
%TO.C,R40*%
X108597500Y-95500000D03*
X110422500Y-95500000D03*
%TD*%
D27*
%TO.C,C9*%
X116400000Y-68837500D03*
X116400000Y-70562500D03*
%TD*%
D31*
%TO.C,C41*%
X99000000Y-71000000D03*
X97275000Y-71000000D03*
%TD*%
D57*
%TO.C,J19*%
X119720000Y-123145000D03*
X120520000Y-123145000D03*
D58*
X121670000Y-123145000D03*
X122670000Y-123145000D03*
X123170000Y-123145000D03*
X124170000Y-123145000D03*
D57*
X125320000Y-123145000D03*
X126120000Y-123145000D03*
X126120000Y-123145000D03*
X125320000Y-123145000D03*
D58*
X124670000Y-123145000D03*
X123670000Y-123145000D03*
X122170000Y-123145000D03*
X121170000Y-123145000D03*
D57*
X120520000Y-123145000D03*
X119720000Y-123145000D03*
D59*
X118600000Y-123720000D03*
X127240000Y-123720000D03*
D60*
X127240000Y-127900000D03*
X118600000Y-127900000D03*
%TD*%
D24*
%TO.C,D21*%
X147000000Y-114710000D03*
X145425000Y-114710000D03*
%TD*%
%TO.C,D20*%
X147000000Y-111700000D03*
X145425000Y-111700000D03*
%TD*%
D22*
%TO.C,C16*%
X126307500Y-72460000D03*
X128032500Y-72460000D03*
%TD*%
D20*
%TO.C,R79*%
X124410000Y-119407500D03*
X124410000Y-121232500D03*
%TD*%
D23*
%TO.C,R9*%
X128375000Y-70912500D03*
X128375000Y-69087500D03*
%TD*%
D61*
%TO.C,D3*%
X132000000Y-77250000D03*
X129500000Y-77250000D03*
%TD*%
D28*
%TO.C,D24*%
X174085608Y-74531548D03*
X174085608Y-72956548D03*
%TD*%
D62*
%TO.C,U1*%
X120112917Y-68300000D03*
X119162916Y-68300000D03*
X118212915Y-68300000D03*
X118212915Y-70999984D03*
X119162916Y-70999984D03*
X120112917Y-70999984D03*
%TD*%
D29*
%TO.C,Q6*%
X170203108Y-83979048D03*
X170203108Y-85879048D03*
X172303108Y-84929048D03*
%TD*%
D63*
%TO.C,L2*%
X157753108Y-61185335D03*
X159703108Y-61185335D03*
%TD*%
D29*
%TO.C,Q5*%
X170203108Y-80279048D03*
X170203108Y-82179048D03*
X172303108Y-81229048D03*
%TD*%
D20*
%TO.C,R18*%
X130300001Y-114474999D03*
X130300001Y-116299999D03*
%TD*%
D64*
%TO.C,C8*%
X114100000Y-68662500D03*
X114100000Y-70737500D03*
%TD*%
D31*
%TO.C,C40*%
X99000000Y-72500000D03*
X97275000Y-72500000D03*
%TD*%
D65*
%TO.C,J10*%
X103060399Y-124554999D03*
X103060399Y-120305000D03*
X105060401Y-124554999D03*
X105060401Y-120305000D03*
%TD*%
M02*
