%TF.GenerationSoftware,KiCad,Pcbnew,10.0.5*%
%TF.CreationDate,2026-09-20T02:06:40-05:00*%
%TF.ProjectId,VehicleControlUnit,56656869-636c-4654-936f-6e74726f6c55,rev?*%
%TF.SameCoordinates,Original*%
%TF.FileFunction,Paste,Bot*%
%TF.FilePolarity,Positive*%
%FSLAX46Y46*%
G04 Gerber Fmt 4.6, Leading zero omitted, Abs format (unit mm)*
G04 Created by KiCad (PCBNEW 10.0.5) date 2026-09-20 02:06:40*
%MOMM*%
%LPD*%
G01*
G04 APERTURE LIST*
G04 Aperture macros list*
%AMRoundRect*
0 Rectangle with rounded corners*
0 $1 Rounding radius*
0 $2 $3 $4 $5 $6 $7 $8 $9 X,Y pos of 4 corners*
0 Add a 4 corners polygon primitive as box body*
4,1,4,$2,$3,$4,$5,$6,$7,$8,$9,$2,$3,0*
0 Add four circle primitives for the rounded corners*
1,1,$1+$1,$2,$3*
1,1,$1+$1,$4,$5*
1,1,$1+$1,$6,$7*
1,1,$1+$1,$8,$9*
0 Add four rect primitives between the rounded corners*
20,1,$1+$1,$2,$3,$4,$5,0*
20,1,$1+$1,$4,$5,$6,$7,0*
20,1,$1+$1,$6,$7,$8,$9,0*
20,1,$1+$1,$8,$9,$2,$3,0*%
G04 Aperture macros list end*
%ADD10RoundRect,0.237500X0.250000X0.237500X-0.250000X0.237500X-0.250000X-0.237500X0.250000X-0.237500X0*%
%ADD11RoundRect,0.237500X-0.250000X-0.237500X0.250000X-0.237500X0.250000X0.237500X-0.250000X0.237500X0*%
%ADD12RoundRect,0.237500X0.237500X-0.250000X0.237500X0.250000X-0.237500X0.250000X-0.237500X-0.250000X0*%
%ADD13RoundRect,0.237500X0.300000X0.237500X-0.300000X0.237500X-0.300000X-0.237500X0.300000X-0.237500X0*%
%ADD14RoundRect,0.237500X0.237500X-0.300000X0.237500X0.300000X-0.237500X0.300000X-0.237500X-0.300000X0*%
%ADD15RoundRect,0.250000X-0.337500X-0.475000X0.337500X-0.475000X0.337500X0.475000X-0.337500X0.475000X0*%
%ADD16RoundRect,0.250000X0.412500X1.100000X-0.412500X1.100000X-0.412500X-1.100000X0.412500X-1.100000X0*%
%ADD17RoundRect,0.237500X-0.237500X0.250000X-0.237500X-0.250000X0.237500X-0.250000X0.237500X0.250000X0*%
%ADD18RoundRect,0.225000X0.225000X0.250000X-0.225000X0.250000X-0.225000X-0.250000X0.225000X-0.250000X0*%
%ADD19RoundRect,0.250000X-0.412500X-1.100000X0.412500X-1.100000X0.412500X1.100000X-0.412500X1.100000X0*%
%ADD20RoundRect,0.225000X-0.225000X-0.375000X0.225000X-0.375000X0.225000X0.375000X-0.225000X0.375000X0*%
%ADD21RoundRect,0.237500X-0.237500X0.300000X-0.237500X-0.300000X0.237500X-0.300000X0.237500X0.300000X0*%
%ADD22RoundRect,0.250000X0.475000X-0.337500X0.475000X0.337500X-0.475000X0.337500X-0.475000X-0.337500X0*%
%ADD23RoundRect,0.237500X-0.300000X-0.237500X0.300000X-0.237500X0.300000X0.237500X-0.300000X0.237500X0*%
%ADD24R,1.490000X1.450000*%
%ADD25RoundRect,0.250000X-1.000000X-0.900000X1.000000X-0.900000X1.000000X0.900000X-1.000000X0.900000X0*%
%ADD26RoundRect,0.250000X0.337500X0.475000X-0.337500X0.475000X-0.337500X-0.475000X0.337500X-0.475000X0*%
%ADD27RoundRect,0.250000X-0.250000X-0.475000X0.250000X-0.475000X0.250000X0.475000X-0.250000X0.475000X0*%
%ADD28RoundRect,0.250000X-0.475000X0.337500X-0.475000X-0.337500X0.475000X-0.337500X0.475000X0.337500X0*%
%ADD29R,1.970000X1.670000*%
%ADD30RoundRect,0.112500X0.187500X0.112500X-0.187500X0.112500X-0.187500X-0.112500X0.187500X-0.112500X0*%
%ADD31RoundRect,0.250000X0.475000X-0.250000X0.475000X0.250000X-0.475000X0.250000X-0.475000X-0.250000X0*%
G04 APERTURE END LIST*
D10*
%TO.C,R38*%
X145320000Y-114990000D03*
X147145000Y-114990000D03*
%TD*%
D11*
%TO.C,R30*%
X147145000Y-95655000D03*
X145320000Y-95655000D03*
%TD*%
D10*
%TO.C,R33*%
X138500000Y-93410000D03*
X140325000Y-93410000D03*
%TD*%
%TO.C,R34*%
X138387500Y-90400000D03*
X140212500Y-90400000D03*
%TD*%
D11*
%TO.C,R27*%
X145320000Y-92510000D03*
X147145000Y-92510000D03*
%TD*%
D12*
%TO.C,R54*%
X163900000Y-74812500D03*
X163900000Y-72987500D03*
%TD*%
D11*
%TO.C,R16*%
X100737500Y-115150000D03*
X102562500Y-115150000D03*
%TD*%
D13*
%TO.C,C1*%
X136750000Y-61000000D03*
X135025000Y-61000000D03*
%TD*%
D10*
%TO.C,R69*%
X162362500Y-78450000D03*
X160537500Y-78450000D03*
%TD*%
%TO.C,R23*%
X102925000Y-108950000D03*
X101100000Y-108950000D03*
%TD*%
D14*
%TO.C,C43*%
X158850000Y-81900000D03*
X158850000Y-80175000D03*
%TD*%
D13*
%TO.C,C54*%
X160450000Y-55685335D03*
X158725000Y-55685335D03*
%TD*%
D15*
%TO.C,C5*%
X128500000Y-60800000D03*
X130575000Y-60800000D03*
%TD*%
D16*
%TO.C,C11*%
X118812500Y-77500000D03*
X115687500Y-77500000D03*
%TD*%
D17*
%TO.C,R52*%
X170153108Y-69216548D03*
X170153108Y-71041548D03*
%TD*%
D14*
%TO.C,C34*%
X117075000Y-107062499D03*
X117075000Y-105337499D03*
%TD*%
D17*
%TO.C,R15*%
X135235000Y-102723500D03*
X135235000Y-104548500D03*
%TD*%
D10*
%TO.C,R24*%
X149812500Y-124720000D03*
X147987500Y-124720000D03*
%TD*%
D18*
%TO.C,C10*%
X119412916Y-69000000D03*
X117862916Y-69000000D03*
%TD*%
D19*
%TO.C,C12*%
X120687500Y-77500000D03*
X123812500Y-77500000D03*
%TD*%
D20*
%TO.C,D32*%
X121950000Y-120900000D03*
X125250000Y-120900000D03*
%TD*%
D21*
%TO.C,C52*%
X163950000Y-88525000D03*
X163950000Y-90250000D03*
%TD*%
D22*
%TO.C,C13*%
X113562500Y-80494966D03*
X113562500Y-78419966D03*
%TD*%
D13*
%TO.C,C7*%
X128475000Y-69100000D03*
X126750000Y-69100000D03*
%TD*%
D23*
%TO.C,C50*%
X161950000Y-118780000D03*
X163675000Y-118780000D03*
%TD*%
D11*
%TO.C,R68*%
X160537500Y-80000000D03*
X162362500Y-80000000D03*
%TD*%
D12*
%TO.C,R65*%
X172150000Y-94212500D03*
X172150000Y-92387500D03*
%TD*%
D21*
%TO.C,C42*%
X159000000Y-65400000D03*
X159000000Y-67125000D03*
%TD*%
D24*
%TO.C,D22*%
X98000000Y-64650000D03*
X98000000Y-69000000D03*
%TD*%
D11*
%TO.C,R1*%
X184000000Y-106700000D03*
X185825000Y-106700000D03*
%TD*%
D10*
%TO.C,R32*%
X140250000Y-96390000D03*
X138425000Y-96390000D03*
%TD*%
D12*
%TO.C,R2*%
X114700000Y-55962500D03*
X114700000Y-54137500D03*
%TD*%
D11*
%TO.C,R26*%
X118325000Y-118950000D03*
X120150000Y-118950000D03*
%TD*%
D10*
%TO.C,R35*%
X147145000Y-105720000D03*
X145320000Y-105720000D03*
%TD*%
%TO.C,R37*%
X147145000Y-111990000D03*
X145320000Y-111990000D03*
%TD*%
D21*
%TO.C,C47*%
X164000000Y-76750000D03*
X164000000Y-78475000D03*
%TD*%
D17*
%TO.C,R56*%
X163950000Y-94887500D03*
X163950000Y-96712500D03*
%TD*%
D23*
%TO.C,C15*%
X127807500Y-77150000D03*
X129532500Y-77150000D03*
%TD*%
D14*
%TO.C,C29*%
X115575000Y-107362500D03*
X115575000Y-105637500D03*
%TD*%
D25*
%TO.C,D1*%
X130687500Y-64200000D03*
X134987500Y-64200000D03*
%TD*%
D13*
%TO.C,C39*%
X94812500Y-93300000D03*
X93087500Y-93300000D03*
%TD*%
D11*
%TO.C,R29*%
X145280000Y-86726666D03*
X147105000Y-86726666D03*
%TD*%
D17*
%TO.C,R19*%
X114037501Y-93437499D03*
X114037501Y-95262499D03*
%TD*%
D12*
%TO.C,R67*%
X181000000Y-64912500D03*
X181000000Y-63087500D03*
%TD*%
D21*
%TO.C,C43*%
X158850000Y-76775000D03*
X158850000Y-78500000D03*
%TD*%
D13*
%TO.C,C56*%
X163900000Y-55685335D03*
X162175000Y-55685335D03*
%TD*%
D11*
%TO.C,R4*%
X183837500Y-81500000D03*
X185662500Y-81500000D03*
%TD*%
D10*
%TO.C,R39*%
X104948978Y-92955000D03*
X103123978Y-92955000D03*
%TD*%
D21*
%TO.C,C58*%
X116850000Y-124787500D03*
X116850000Y-126512500D03*
%TD*%
D11*
%TO.C,R44*%
X94537500Y-74000000D03*
X96362500Y-74000000D03*
%TD*%
D21*
%TO.C,C14*%
X126100000Y-77375000D03*
X126100000Y-79100000D03*
%TD*%
D12*
%TO.C,R57*%
X170550000Y-90697835D03*
X170550000Y-88872835D03*
%TD*%
D23*
%TO.C,C30*%
X100787500Y-116700000D03*
X102512500Y-116700000D03*
%TD*%
%TO.C,C28*%
X129037500Y-100200000D03*
X130762500Y-100200000D03*
%TD*%
D11*
%TO.C,R28*%
X145280000Y-89763333D03*
X147105000Y-89763333D03*
%TD*%
D13*
%TO.C,C6*%
X128475000Y-67500000D03*
X126750000Y-67500000D03*
%TD*%
D26*
%TO.C,C18*%
X136987500Y-77400000D03*
X134912500Y-77400000D03*
%TD*%
D10*
%TO.C,R45*%
X95800000Y-75500000D03*
X93975000Y-75500000D03*
%TD*%
%TO.C,R46*%
X96862500Y-77000000D03*
X95037500Y-77000000D03*
%TD*%
D14*
%TO.C,C49*%
X162400000Y-90212500D03*
X162400000Y-88487500D03*
%TD*%
D10*
%TO.C,R59*%
X160325000Y-117180000D03*
X158500000Y-117180000D03*
%TD*%
D17*
%TO.C,R55*%
X164000000Y-83487500D03*
X164000000Y-85312500D03*
%TD*%
D23*
%TO.C,C48*%
X160737500Y-86950000D03*
X162462500Y-86950000D03*
%TD*%
D27*
%TO.C,C59*%
X118560000Y-120920000D03*
X120460000Y-120920000D03*
%TD*%
D13*
%TO.C,C4*%
X137000000Y-71000000D03*
X135275000Y-71000000D03*
%TD*%
D21*
%TO.C,C38*%
X115100000Y-102237500D03*
X115100000Y-103962500D03*
%TD*%
%TO.C,C44*%
X163900000Y-65375000D03*
X163900000Y-67100000D03*
%TD*%
D10*
%TO.C,R22*%
X127212500Y-103599999D03*
X125387500Y-103599999D03*
%TD*%
D12*
%TO.C,R14*%
X133350000Y-104523500D03*
X133350000Y-102698500D03*
%TD*%
D21*
%TO.C,C51*%
X158800000Y-88525000D03*
X158800000Y-90250000D03*
%TD*%
D10*
%TO.C,R31*%
X140200000Y-87200000D03*
X138375000Y-87200000D03*
%TD*%
D28*
%TO.C,C19*%
X139250000Y-75462500D03*
X139250000Y-77537500D03*
%TD*%
D14*
%TO.C,C37*%
X111550001Y-107062499D03*
X111550001Y-105337499D03*
%TD*%
D21*
%TO.C,C46*%
X158671892Y-108394665D03*
X158671892Y-110119665D03*
%TD*%
D17*
%TO.C,R53*%
X170103108Y-65481548D03*
X170103108Y-67306548D03*
%TD*%
D12*
%TO.C,R71*%
X126070000Y-75772500D03*
X126070000Y-73947500D03*
%TD*%
D13*
%TO.C,C53*%
X159560608Y-58985335D03*
X157835608Y-58985335D03*
%TD*%
D15*
%TO.C,C20*%
X135712500Y-117100000D03*
X137787500Y-117100000D03*
%TD*%
D29*
%TO.C,D2*%
X139412500Y-68500000D03*
X135362500Y-68500000D03*
%TD*%
D23*
%TO.C,C21*%
X135925000Y-115200000D03*
X137650000Y-115200000D03*
%TD*%
D10*
%TO.C,R70*%
X147325000Y-81500000D03*
X145500000Y-81500000D03*
%TD*%
D17*
%TO.C,R61*%
X170203108Y-76591548D03*
X170203108Y-78416548D03*
%TD*%
D11*
%TO.C,R25*%
X134630000Y-81910000D03*
X136455000Y-81910000D03*
%TD*%
D17*
%TO.C,R58*%
X170550000Y-92185335D03*
X170550000Y-94010335D03*
%TD*%
%TO.C,R62*%
X170103108Y-80341548D03*
X170103108Y-82166548D03*
%TD*%
%TO.C,R20*%
X115587501Y-93449999D03*
X115587501Y-95274999D03*
%TD*%
D13*
%TO.C,C57*%
X163887500Y-54135335D03*
X162162500Y-54135335D03*
%TD*%
D12*
%TO.C,R72*%
X125500000Y-72412500D03*
X125500000Y-70587500D03*
%TD*%
D17*
%TO.C,R49*%
X158900000Y-71487500D03*
X158900000Y-73312500D03*
%TD*%
D10*
%TO.C,R41*%
X94837500Y-94850000D03*
X93012500Y-94850000D03*
%TD*%
D14*
%TO.C,C23*%
X137200000Y-104461000D03*
X137200000Y-102736000D03*
%TD*%
D10*
%TO.C,R36*%
X147145000Y-108900000D03*
X145320000Y-108900000D03*
%TD*%
D17*
%TO.C,R50*%
X158850000Y-83537500D03*
X158850000Y-85362500D03*
%TD*%
D30*
%TO.C,D5*%
X97050000Y-112300000D03*
X94950000Y-112300000D03*
%TD*%
D21*
%TO.C,C47*%
X163921892Y-108382165D03*
X163921892Y-110107165D03*
%TD*%
D17*
%TO.C,R51*%
X158700000Y-94887500D03*
X158700000Y-96712500D03*
%TD*%
D31*
%TO.C,C26*%
X122900000Y-112750000D03*
X122900000Y-110850000D03*
%TD*%
D24*
%TO.C,D23*%
X98000000Y-80000000D03*
X98000000Y-84350000D03*
%TD*%
D10*
%TO.C,R3*%
X183812500Y-99700000D03*
X181987500Y-99700000D03*
%TD*%
D23*
%TO.C,C22*%
X135925000Y-113600000D03*
X137650000Y-113600000D03*
%TD*%
D17*
%TO.C,R21*%
X117137501Y-93449999D03*
X117137501Y-95274999D03*
%TD*%
D14*
%TO.C,C45*%
X164000000Y-81850000D03*
X164000000Y-80125000D03*
%TD*%
D13*
%TO.C,C55*%
X157050000Y-55685335D03*
X155325000Y-55685335D03*
%TD*%
D17*
%TO.C,R63*%
X170203108Y-83941548D03*
X170203108Y-85766548D03*
%TD*%
D12*
%TO.C,R66*%
X172350000Y-90800000D03*
X172350000Y-88975000D03*
%TD*%
D11*
%TO.C,R64*%
X161900000Y-117180000D03*
X163725000Y-117180000D03*
%TD*%
D17*
%TO.C,R60*%
X170185608Y-72844048D03*
X170185608Y-74669048D03*
%TD*%
M02*
